<?xml version="1.0" encoding="iso-8859-1"?>
<!-- Generator: Adobe Illustrator 19.0.0, SVG Export Plug-In . SVG Version: 6.00 Build 0)  -->
<svg xmlns="http://www.w3.org/2000/svg" xmlns:xlink="http://www.w3.org/1999/xlink" version="1.1" id="Capa_1" x="0px" y="0px" viewBox="0 0 512 512" style="enable-background:new 0 0 512 512;" xml:space="preserve">
<circle style="fill:#FFB344;" cx="256" cy="256" r="256"/>
<path style="fill:#FF9451;" d="M190.728,403.892l105.03,105.03c115.789-18.056,205.87-113.711,215.396-232.112L299.465,65.12  l-86.93,30.826L256,139.412l-8.54,233.756L190.728,403.892z"/>
<path style="fill:#FFFFFF;" d="M308.921,416.424l-30.301,26.328c-12.472,10.837-32.77,10.837-45.241,0l-30.301-26.328  C179.971,396.345,167,369.183,167,340.87v-68.635h178v68.635C345,369.183,332.029,396.345,308.921,416.424z"/>
<path style="fill:#E0E0E0;" d="M255.667,272.235v178.638c8.303,0.074,16.634-2.629,22.954-8.121l30.301-26.328  C332.029,396.345,345,369.183,345,340.87v-68.635H255.667z"/>
<path style="fill:#754C24;" d="M256,348.936L256,348.936c-8.713,0-15.777-7.063-15.777-15.777V87.308  c0-8.713,7.063-15.777,15.777-15.777l0,0c8.713,0,15.777,7.063,15.777,15.777v245.851C271.777,341.873,264.713,348.936,256,348.936z  "/>
<g>
	<path style="fill:#603813;" d="M256,71.532L256,71.532c-0.113,0-0.221,0.015-0.333,0.017V348.92   c0.112,0.002,0.221,0.017,0.333,0.017c8.713,0,15.777-7.063,15.777-15.777V87.309C271.777,78.595,264.713,71.532,256,71.532z"/>
	<rect x="212.53" y="65.12" style="fill:#603813;" width="86.93" height="30.826"/>
</g>
<rect x="255.67" y="65.12" style="fill:#42210B;" width="43.798" height="30.826"/>
<g>
</g>
<g>
</g>
<g>
</g>
<g>
</g>
<g>
</g>
<g>
</g>
<g>
</g>
<g>
</g>
<g>
</g>
<g>
</g>
<g>
</g>
<g>
</g>
<g>
</g>
<g>
</g>
<g>
</g>
</svg>
