<?xml version="1.0" encoding="iso-8859-1"?>
<!-- Generator: Adobe Illustrator 19.0.0, SVG Export Plug-In . SVG Version: 6.00 Build 0)  -->
<svg xmlns="http://www.w3.org/2000/svg" xmlns:xlink="http://www.w3.org/1999/xlink" version="1.1" id="Capa_1" x="0px" y="0px" viewBox="0 0 512 512" style="enable-background:new 0 0 512 512;" xml:space="preserve">
<circle style="fill:#FFDC00;" cx="256" cy="256" r="256"/>
<path style="fill:#FFC000;" d="M512,256c0-6.086-0.228-12.118-0.645-18.098L410,136.547l-292.991,3.786v80.676l111.155,111.155  l-69.84,87.509l92.258,92.258c1.802,0.037,3.606,0.069,5.418,0.069C397.385,512,512,397.385,512,256z"/>
<path style="fill:#758F9A;" d="M330.418,431.453H181.582c-14.666,0-26.999-10.999-28.671-25.569L122,136.547h268l-30.91,269.336  C357.417,420.454,345.084,431.453,330.418,431.453z"/>
<path style="fill:#4B7689;" d="M255.667,136.547v294.905h74.751c14.666,0,26.999-10.999,28.671-25.569L390,136.547H255.667z"/>
<path style="fill:#175D76;" d="M256,326.673c-84.916,0-154-69.084-154-154v-36.125h20v36.125c0,73.888,60.112,134,134,134  s134-60.112,134-134v-36.125h20v36.125C410,257.589,340.916,326.673,256,326.673z"/>
<path style="fill:#00263F;" d="M390,136.547v36.125c0,73.888-60.112,134-134,134c-0.111,0-0.222-0.004-0.333-0.004v20  c0.111,0,0.222,0.004,0.333,0.004c84.916,0,154-69.084,154-154v-36.125H390z"/>
<g>
</g>
<g>
</g>
<g>
</g>
<g>
</g>
<g>
</g>
<g>
</g>
<g>
</g>
<g>
</g>
<g>
</g>
<g>
</g>
<g>
</g>
<g>
</g>
<g>
</g>
<g>
</g>
<g>
</g>
</svg>
