<?xml version="1.0" encoding="iso-8859-1"?>
<!-- Generator: Adobe Illustrator 19.0.0, SVG Export Plug-In . SVG Version: 6.00 Build 0)  -->
<svg xmlns="http://www.w3.org/2000/svg" xmlns:xlink="http://www.w3.org/1999/xlink" version="1.1" id="Capa_1" x="0px" y="0px" viewBox="0 0 512 512" style="enable-background:new 0 0 512 512;" xml:space="preserve">
<circle style="fill:#FFDC00;" cx="256" cy="256" r="256"/>
<path style="fill:#FFC000;" d="M72.741,325.639l186.323,186.323c128.347-1.508,233.972-97.45,250.633-221.592l-72.9-72.9  L72.741,325.639z"/>
<path style="fill:#AE4E32;" d="M451,300.525c0,57.975-97.336-40.249-201.335,7.714C124.21,366.098,63,350.785,63,292.81v-48.116  l237.252-27.225L451,252.248V300.525z"/>
<path style="fill:#893D2B;" d="M300.252,217.469L256,222.547v82.952c101.582-41.286,195,51.822,195-4.974v-48.277L300.252,217.469z"/>
<path style="fill:#FF6838;" d="M451,252.409c0,57.975-97.336-40.249-201.335,7.714C124.21,317.982,63,302.669,63,244.694  s55.795-93.217,166.43-93.217S451,194.434,451,252.409z"/>
<path style="fill:#AE4E32;" d="M256,152.295v105.086c101.582-41.286,195,51.823,195-4.973C451,199.084,357.147,158.469,256,152.295z  "/>
<path style="fill:#FF9451;" d="M439.871,244.694c-0.124,43.818-93.23-37.22-184.442-1.199  c-111.356,43.976-173.712,37.923-173.712-5.872s57.439-76.201,155.734-76.201S439.995,200.898,439.871,244.694z"/>
<path style="fill:#F7674F;" d="M256,161.879v81.401c91.029-35.459,183.747,45.14,183.871,1.414  C439.987,203.647,348.419,166.394,256,161.879z"/>
<path style="fill:#FFFFFF;" d="M208.809,205.074c1.487,12.459-12.422,25.474-31.067,29.069c-18.645,3.596-34.965-3.59-36.452-16.049  s12.422-25.474,31.067-29.069S207.321,192.615,208.809,205.074z"/>
<g>
</g>
<g>
</g>
<g>
</g>
<g>
</g>
<g>
</g>
<g>
</g>
<g>
</g>
<g>
</g>
<g>
</g>
<g>
</g>
<g>
</g>
<g>
</g>
<g>
</g>
<g>
</g>
<g>
</g>
</svg>
