<?xml version="1.0" encoding="iso-8859-1"?>
<!-- Generator: Adobe Illustrator 19.0.0, SVG Export Plug-In . SVG Version: 6.00 Build 0)  -->
<svg xmlns="http://www.w3.org/2000/svg" xmlns:xlink="http://www.w3.org/1999/xlink" version="1.1" id="Capa_1" x="0px" y="0px" viewBox="0 0 512 512" style="enable-background:new 0 0 512 512;" xml:space="preserve">
<circle style="fill:#FFECB3;" cx="256" cy="256" r="256"/>
<path style="fill:#FFD863;" d="M512,256c0-7.852-0.373-15.615-1.065-23.287L395.629,117.407L98,370.665l140.743,140.743  C244.448,511.788,250.199,512,256,512C397.385,512,512,397.385,512,256z"/>
<path style="fill:#47AB4B;" d="M395.629,117.407L98,370.665c0,0,40.275,40.958,105.808,15.701  c65.533-25.257,177.485-133.114,191.82-178.85S395.629,117.407,395.629,117.407z"/>
<path style="fill:#2B9153;" d="M395.629,117.407L244.393,246.096l60.516,71.363c43.996-39.178,82.686-84.314,90.719-109.944  C409.964,161.779,395.629,117.407,395.629,117.407z"/>
<g>
	<circle style="fill:#60C344;" cx="366.63" cy="177.38" r="20.668"/>
	<circle style="fill:#60C344;" cx="315.34" cy="222.92" r="20.668"/>
</g>
<circle style="fill:#97CC52;" cx="263.69" cy="268.77" r="20.668"/>
<path style="fill:#60C344;" d="M284.324,269.994c0.677-11.395-8.011-21.181-19.405-21.858c-5.549-0.33-10.707,1.573-14.627,4.917  l26.713,31.501C281.182,281.029,283.974,275.88,284.324,269.994z"/>
<g>
	<circle style="fill:#97CC52;" cx="210.81" cy="315.71" r="20.668"/>
	<circle style="fill:#97CC52;" cx="157.23" cy="363.28" r="20.668"/>
</g>
<g>
</g>
<g>
</g>
<g>
</g>
<g>
</g>
<g>
</g>
<g>
</g>
<g>
</g>
<g>
</g>
<g>
</g>
<g>
</g>
<g>
</g>
<g>
</g>
<g>
</g>
<g>
</g>
<g>
</g>
</svg>
