<?xml version="1.0" encoding="iso-8859-1"?>
<!-- Generator: Adobe Illustrator 19.0.0, SVG Export Plug-In . SVG Version: 6.00 Build 0)  -->
<svg xmlns="http://www.w3.org/2000/svg" xmlns:xlink="http://www.w3.org/1999/xlink" version="1.1" id="Capa_1" x="0px" y="0px" viewBox="0 0 512 512" style="enable-background:new 0 0 512 512;" xml:space="preserve">
<circle style="fill:#005C83;" cx="256" cy="256" r="256"/>
<path style="fill:#00263F;" d="M509.171,294.126l-141.86-141.86l-13.22,20.325L263,81.5l-25.261,184.666L29.873,376.082  l106.046,106.046C171.732,501.186,212.601,512,256,512C384.428,512,490.759,417.427,509.171,294.126z"/>
<rect x="249" y="81.5" style="fill:#FF9451;" width="14" height="89"/>
<rect x="255.67" y="81.5" style="fill:#F7674F;" width="7.333" height="89"/>
<path style="fill:#F1333F;" d="M377.833,190.833c5.294-35.506-29.102-65-65-65c-24.45,0-45.736,13.506-56.833,33.458  c-11.097-19.952-32.384-33.458-56.833-33.458c-35.898,0-70.294,29.494-65,65c4.111,27.574,22.167,77.667,32.531,106.667  c8.855,24.778,21.331,47.644,47.644,47.644c9.851,0,19.001-2.991,26.595-8.114c9.118-6.15,21.008-6.15,30.126,0  c7.594,5.123,16.744,8.114,26.595,8.114c26.313,0,38.265-23.06,47.644-47.644C358.083,264,373.722,218.408,377.833,190.833z"/>
<path style="fill:#AE283F;" d="M312.833,125.833c-24.45,0-45.736,13.506-56.833,33.458c-0.108-0.194-0.223-0.384-0.333-0.577V332.43  c5.363-0.066,10.741,1.46,15.396,4.601c7.594,5.123,16.744,8.113,26.595,8.113c26.313,0,38.265-23.06,47.644-47.644  c12.781-33.5,28.42-79.092,32.531-106.667C383.127,155.327,348.732,125.833,312.833,125.833z"/>
<path style="fill:#FFD8B1;" d="M416.691,289.334c-0.104,0.018-0.206,0.033-0.311,0.047l-121.399,15.66  c-0.154,0.92-0.353,1.839-0.595,2.755c-3.799,14.37-17.34,23.862-32.092,22.502l-70.086-6.297c-4.434-0.396-7.702-4.314-7.304-8.746  c0.396-4.434,4.332-7.804,8.745-7.305l70.086,6.297c6.924,0.588,13.285-3.82,15.069-10.568c0.972-3.683,0.453-7.526-1.464-10.818  c-1.917-3.294-5.002-5.644-8.685-6.616l-90.04-23.78c-10.113-2.668-20.724-2.396-30.686,0.798L5.493,308.932  c4.997,23.765,13.291,46.312,24.38,67.149l39.921-18.494c15.022-8.684,32.962-10.185,49.22-4.104l97.711,36.534  c18.025,6.079,37.481,5.091,54.796-2.778l156.026-67.816c7.197-4.172,10.106-13.259,6.619-20.849  C431.107,291.913,423.919,288.122,416.691,289.334z"/>
<g>
	<path style="fill:#DDB897;" d="M263.736,314.248c6.924,0.588,13.285-3.82,15.069-10.568c0.972-3.683,0.453-7.526-1.464-10.818   c-1.917-3.294-5.002-5.644-8.685-6.616l-12.989-3.43v30.707L263.736,314.248z"/>
	<path style="fill:#DDB897;" d="M434.166,298.574c-3.059-6.661-10.247-10.452-17.475-9.239c-0.104,0.018-0.206,0.033-0.311,0.047   l-121.399,15.66c-0.154,0.92-0.353,1.839-0.595,2.755c-3.799,14.37-17.34,23.862-32.092,22.502l-6.628-0.596v62.696   c5.41-1.118,10.727-2.83,15.854-5.16l156.026-67.816C434.744,315.251,437.654,306.164,434.166,298.574z"/>
</g>
<g>
</g>
<g>
</g>
<g>
</g>
<g>
</g>
<g>
</g>
<g>
</g>
<g>
</g>
<g>
</g>
<g>
</g>
<g>
</g>
<g>
</g>
<g>
</g>
<g>
</g>
<g>
</g>
<g>
</g>
</svg>
