<?xml version="1.0" encoding="iso-8859-1"?>
<!-- Generator: Adobe Illustrator 19.0.0, SVG Export Plug-In . SVG Version: 6.00 Build 0)  -->
<svg xmlns="http://www.w3.org/2000/svg" xmlns:xlink="http://www.w3.org/1999/xlink" version="1.1" id="Capa_1" x="0px" y="0px" viewBox="0 0 512 512" style="enable-background:new 0 0 512 512;" xml:space="preserve">
<circle style="fill:#FFCF35;" cx="256" cy="256" r="256"/>
<path id="SVGCleanerId_0" style="fill:#8C6239;" d="M512,256c0-16.369-1.555-32.373-4.491-47.887H4.491  C1.555,223.627,0,239.631,0,256c0,141.385,114.615,256,256,256S512,397.385,512,256z"/>
<g>
	<path id="SVGCleanerId_0_1_" style="fill:#8C6239;" d="M512,256c0-16.369-1.555-32.373-4.491-47.887H4.491   C1.555,223.627,0,239.631,0,256c0,141.385,114.615,256,256,256S512,397.385,512,256z"/>
</g>
<path style="fill:#754C24;" d="M512,256c0-16.369-1.555-32.373-4.491-47.887H257v303.875C397.924,511.447,512,397.05,512,256z"/>
<ellipse style="fill:#C69C6D;" cx="142.13" cy="271.56" rx="77.59" ry="48.558"/>
<path style="fill:#A67C52;" d="M142.131,223c-0.156,0-0.309,0.006-0.464,0.007v97.101c0.156,0,0.308,0.007,0.464,0.007  c42.85,0,77.586-21.74,77.586-48.558S184.981,223,142.131,223z"/>
<ellipse style="fill:#8C6239;" cx="166.59" cy="263.71" rx="11.563" ry="7.848"/>
<g>
	<ellipse style="fill:#A67C52;" cx="106.82" cy="247.52" rx="6.376" ry="4.327"/>
	<ellipse style="fill:#A67C52;" cx="119.57" cy="295.59" rx="6.376" ry="4.327"/>
</g>
<ellipse transform="matrix(-0.3915 -0.9202 0.9202 -0.3915 198.9985 751.7868)" style="fill:#C69C6D;" cx="348.074" cy="310.095" rx="65.261" ry="104.282"/>
<path style="fill:#A67C52;" d="M444.02,269.27c-11.993-28.188-53.088-38.632-97.687-27.292v137.077  c8.995-2.068,18.161-5.026,27.285-8.909C426.611,347.6,458.131,302.436,444.02,269.27z"/>
<ellipse transform="matrix(-0.3915 -0.9202 0.9202 -0.3915 229.2177 785.0956)" style="fill:#8C6239;" cx="374.197" cy="316.758" rx="10.547" ry="15.541"/>
<g>
	
		<ellipse transform="matrix(-0.3915 -0.9202 0.9202 -0.3915 130.8863 684.4613)" style="fill:#A67C52;" cx="291.757" cy="298.954" rx="5.816" ry="8.57"/>
	
		<ellipse transform="matrix(-0.3915 -0.9202 0.9202 -0.3915 139.4863 795.6411)" style="fill:#A67C52;" cx="332.818" cy="351.7" rx="5.816" ry="8.57"/>
</g>
<ellipse transform="matrix(-0.3915 -0.9202 0.9202 -0.3915 278.4157 730.918)" style="fill:#8C6239;" cx="380.883" cy="273.402" rx="5.816" ry="8.57"/>
<g>
</g>
<g>
</g>
<g>
</g>
<g>
</g>
<g>
</g>
<g>
</g>
<g>
</g>
<g>
</g>
<g>
</g>
<g>
</g>
<g>
</g>
<g>
</g>
<g>
</g>
<g>
</g>
<g>
</g>
</svg>
