<?xml version="1.0" encoding="iso-8859-1"?>
<!-- Generator: Adobe Illustrator 19.0.0, SVG Export Plug-In . SVG Version: 6.00 Build 0)  -->
<svg xmlns="http://www.w3.org/2000/svg" xmlns:xlink="http://www.w3.org/1999/xlink" version="1.1" id="Capa_1" x="0px" y="0px" viewBox="0 0 512 512" style="enable-background:new 0 0 512 512;" xml:space="preserve">
<circle style="fill:#FFCF35;" cx="256" cy="256" r="256"/>
<path style="fill:#FFB344;" d="M282.31,510.663c121.582-12.413,217.962-109.912,228.679-231.987l-69.323-69.322l-182.199,97.498  L121.48,168.864l-42.288,4.603l57.307,57.307l22.718,99.456l19.807,19.807l-18.272,39.068L282.31,510.663z"/>
<polygon style="fill:#758F9A;" points="441.667,209.354 146.471,209.354 183.456,326.473 321.857,355.221 "/>
<polygon style="fill:#4B7689;" points="441.667,209.354 255.667,209.354 255.667,341.472 321.857,355.221 "/>
<polygon style="fill:#0074A3;" points="361.427,370.812 159.217,330.229 109.82,181.352 79.192,173.467 82.933,158.941   121.48,168.864 170.711,317.237 364.378,356.104 "/>
<polygon style="fill:#005C83;" points="364.378,356.104 255.667,334.287 255.667,349.586 361.427,370.812 "/>
<circle style="fill:#1A1A1A;" cx="362.88" cy="373.04" r="35.797"/>
<circle style="fill:#808080;" cx="362.88" cy="373.04" r="17.815"/>
<polygon style="fill:#0074A3;" points="172.165,397.119 160.752,389.105 176.162,324.727 190.75,328.219 179.747,374.187   241.442,333.641 249.681,346.176 "/>
<g>
</g>
<g>
</g>
<g>
</g>
<g>
</g>
<g>
</g>
<g>
</g>
<g>
</g>
<g>
</g>
<g>
</g>
<g>
</g>
<g>
</g>
<g>
</g>
<g>
</g>
<g>
</g>
<g>
</g>
</svg>
