<?xml version="1.0" encoding="iso-8859-1"?>
<!-- Generator: Adobe Illustrator 19.0.0, SVG Export Plug-In . SVG Version: 6.00 Build 0)  -->
<svg xmlns="http://www.w3.org/2000/svg" xmlns:xlink="http://www.w3.org/1999/xlink" version="1.1" id="Capa_1" x="0px" y="0px" viewBox="0 0 512 512" style="enable-background:new 0 0 512 512;" xml:space="preserve">
<circle style="fill:#A5E1EB;" cx="256" cy="256" r="256"/>
<path style="fill:#78BED2;" d="M512,256c0-8.756-0.442-17.408-1.301-25.938L383,102.363L129,409.637l101.063,101.062  C238.592,511.558,247.244,512,256,512C397.385,512,512,397.385,512,256z"/>
<path style="fill:#FF6838;" d="M367.754,368.055c8.984-74.703,8.984-149.406,0-224.11c9.23-6.666,15.244-17.511,15.245-29.767  L383,102.363h-11.818c-11.749,0-22.201,5.527-28.919,14.116c-57.508-10.202-115.017-10.202-172.525,0  c-6.718-8.589-17.17-14.116-28.919-14.116H129l0.001,11.815c0.001,12.256,6.014,23.101,15.245,29.767  c-8.984,74.703-8.984,149.406,0,224.11c-9.23,6.666-15.244,17.511-15.245,29.767L129,409.637h11.818  c11.749,0,22.201-5.527,28.919-14.116c57.508,10.202,115.017,10.202,172.525,0c6.718,8.589,17.17,14.116,28.919,14.116H383  l-0.001-11.815C382.998,385.566,376.985,374.721,367.754,368.055z"/>
<path style="fill:#AE4E32;" d="M367.754,368.055c8.984-74.703,8.984-149.406,0-224.11c9.23-6.666,15.244-17.511,15.245-29.767  L383,102.363h-11.818c-11.749,0-22.201,5.527-28.919,14.116c-28.865-5.121-57.731-7.669-86.596-7.649v294.341  c28.865,0.02,57.73-2.529,86.596-7.649c6.718,8.589,17.17,14.116,28.919,14.116h11.819L383,397.823  C382.998,385.566,376.985,374.721,367.754,368.055z"/>
<path style="fill:#97CC52;" d="M191.2,317.089l-5.79-20.591c-14.367-51.093,15.406-104.16,66.499-118.526l20.591-5.79l5.79,20.591  c14.367,51.093-15.406,104.16-66.499,118.526L191.2,317.089z"/>
<g>
	<path style="fill:#60C344;" d="M278.29,192.772l-5.79-20.591l-16.833,4.733v107.847C278.04,261.015,287.764,226.466,278.29,192.772   z"/>
	<path style="fill:#60C344;" d="M246.122,212.858l-56.11,100.008l1.187,4.223l7.86-2.21l54.803-97.678   c1.199-2.137,0.439-4.842-1.699-6.041C250.026,209.96,247.321,210.721,246.122,212.858z"/>
</g>
<path style="fill:#E6E18A;" d="M185.975,317.601l6.321-20.443c15.679-50.705,69.493-79.101,120.199-63.427l20.444,6.32  l-6.322,20.443c-15.679,50.705-69.492,79.101-120.199,63.426L185.975,317.601z"/>
<g>
	<path style="fill:#97CC52;" d="M312.495,233.732c-19.248-5.95-38.941-5.544-56.828,0.015v92.183   c32.546-7.269,60.394-31.294,70.951-65.436l6.321-20.443L312.495,233.732z"/>
	<path style="fill:#97CC52;" d="M305.999,254.267c-1.144-2.168-3.829-2.997-5.996-1.854l-112.175,59.194l-1.854,5.995l5.997,1.854   l112.173-59.193C306.312,259.119,307.143,256.434,305.999,254.267z"/>
</g>
<path style="fill:#60C344;" d="M305.999,254.267c-1.144-2.168-3.828-2.997-5.996-1.854l-44.336,23.396v10.035l48.478-25.582  C306.312,259.119,307.143,256.434,305.999,254.267z"/>
<g>
</g>
<g>
</g>
<g>
</g>
<g>
</g>
<g>
</g>
<g>
</g>
<g>
</g>
<g>
</g>
<g>
</g>
<g>
</g>
<g>
</g>
<g>
</g>
<g>
</g>
<g>
</g>
<g>
</g>
</svg>
