<?xml version="1.0" encoding="iso-8859-1"?>
<!-- Generator: Adobe Illustrator 19.0.0, SVG Export Plug-In . SVG Version: 6.00 Build 0)  -->
<svg xmlns="http://www.w3.org/2000/svg" xmlns:xlink="http://www.w3.org/1999/xlink" version="1.1" id="Capa_1" x="0px" y="0px" viewBox="0 0 512 512" style="enable-background:new 0 0 512 512;" xml:space="preserve">
<circle style="fill:#00BAFF;" cx="256" cy="256" r="256"/>
<g>
	<path style="fill:#008CC3;" d="M69.503,250l210.604,210.604l161.427-28.219C485.199,386.469,512,324.365,512,256   c0-3.949-0.103-7.875-0.28-11.78l-98.348-98.72L69.503,250z"/>
	<polygon style="fill:#008CC3;" points="93.046,343.504 178.183,428.641 180.324,423 216.205,430.295 101.786,315.876  "/>
</g>
<path style="fill:#2B9153;" d="M28.247,373C70.735,455.542,156.772,512,256,512s185.265-56.458,227.753-139H28.247z"/>
<path style="fill:#005D5E;" d="M255.667,373v138.997c0.111,0,0.222,0.003,0.333,0.003c99.228,0,185.265-56.458,227.753-139H255.667z  "/>
<g>
	<path style="fill:#35CCFF;" d="M363.894,299.617c0-6.509,11.786-19.741,11.786-19.741s11.786,13.232,11.786,19.741   s-5.277,11.786-11.786,11.786S363.894,306.127,363.894,299.617z"/>
	<path style="fill:#35CCFF;" d="M324.766,335.617c0-6.509,11.786-19.741,11.786-19.741s11.786,13.232,11.786,19.741   s-5.277,11.786-11.786,11.786S324.766,342.127,324.766,335.617z"/>
	<path style="fill:#35CCFF;" d="M285.639,299.617c0-6.509,11.786-19.741,11.786-19.741s11.786,13.232,11.786,19.741   s-5.277,11.786-11.786,11.786C290.915,311.403,285.639,306.127,285.639,299.617z"/>
</g>
<path style="fill:#B9EAFF;" d="M244.214,335.617c0-6.509,11.786-19.741,11.786-19.741s11.786,13.232,11.786,19.741  s-5.277,11.786-11.786,11.786S244.214,342.127,244.214,335.617z"/>
<path style="fill:#35CCFF;" d="M256,347.403c6.509,0,11.786-5.277,11.786-11.786S256,315.875,256,315.875V347.403z"/>
<g>
	<path style="fill:#B9EAFF;" d="M207.383,299.617c0-6.509,11.786-19.741,11.786-19.741s11.786,13.232,11.786,19.741   s-5.277,11.786-11.786,11.786S207.383,306.127,207.383,299.617z"/>
	<path style="fill:#B9EAFF;" d="M168.255,335.617c0-6.509,11.786-19.741,11.786-19.741s11.786,13.232,11.786,19.741   s-5.277,11.786-11.786,11.786S168.255,342.127,168.255,335.617z"/>
	<path style="fill:#B9EAFF;" d="M129.128,299.617c0-6.509,11.786-19.741,11.786-19.741s11.786,13.232,11.786,19.741   s-5.277,11.786-11.786,11.786C134.404,311.403,129.128,306.127,129.128,299.617z"/>
	<path style="fill:#B9EAFF;" d="M90,335.617c0-6.509,11.786-19.741,11.786-19.741s11.786,13.232,11.786,19.741   s-5.277,11.786-11.786,11.786S90,342.127,90,335.617z"/>
</g>
<path style="fill:#FFFFFF;" d="M370.129,250.209c33.847,0,61.285-27.438,61.285-61.284s-27.438-61.283-61.285-61.283  c-3.556,0-7.035,0.32-10.425,0.901C349.845,101.953,324.256,83,294.236,83c-26.57,0-49.67,14.847-61.465,36.695  c-2.529-0.591-5.162-0.913-7.872-0.913c-16.737,0-30.686,11.92-33.832,27.733c-24.346,4.464-42.802,25.775-42.802,51.41  c0,28.876,23.409,52.284,52.285,52.284H370.129z"/>
<g>
	<path style="fill:#E0E0E0;" d="M370.129,127.642c-3.556,0-7.035,0.32-10.425,0.901C349.845,101.953,324.256,83,294.236,83   c-14.261,0-27.519,4.281-38.569,11.623v155.586h114.462c33.847,0,61.285-27.438,61.285-61.284   C431.414,155.08,403.976,127.642,370.129,127.642z"/>
	<path style="fill:#E0E0E0;" d="M247.427,269.209c28.288,0,51.22-22.932,51.22-51.219s-22.932-51.219-51.22-51.219   c-2.972,0-5.88,0.267-8.713,0.753c-8.24-22.224-29.626-38.064-54.717-38.064c-22.207,0-41.513,12.408-51.371,30.668   c-2.114-0.494-4.314-0.763-6.579-0.763c-13.988,0-25.647,9.963-28.276,23.178C77.425,186.275,62,204.086,62,225.512   c0,24.133,19.564,43.698,43.699,43.697L247.427,269.209z"/>
</g>
<path style="fill:#C0C0C0;" d="M298.647,217.99c0-25.482-18.611-46.608-42.981-50.55v101.101  C280.036,264.598,298.647,243.472,298.647,217.99z"/>
<g>
</g>
<g>
</g>
<g>
</g>
<g>
</g>
<g>
</g>
<g>
</g>
<g>
</g>
<g>
</g>
<g>
</g>
<g>
</g>
<g>
</g>
<g>
</g>
<g>
</g>
<g>
</g>
<g>
</g>
</svg>
