<?xml version="1.0" encoding="iso-8859-1"?>
<!-- Generator: Adobe Illustrator 19.0.0, SVG Export Plug-In . SVG Version: 6.00 Build 0)  -->
<svg xmlns="http://www.w3.org/2000/svg" xmlns:xlink="http://www.w3.org/1999/xlink" version="1.1" id="Capa_1" x="0px" y="0px" viewBox="0 0 512 512" style="enable-background:new 0 0 512 512;" xml:space="preserve">
<circle style="fill:#B9EAFF;" cx="256" cy="256" r="256"/>
<path style="fill:#35CCFF;" d="M512,256c0-3.355-0.085-6.689-0.213-10.013L420.75,154.95l-7.248,4.595l-83.418-83.418L256,124.5  l-60.3,2.33l60.3,60.299l11.944,70.667L131.5,273l123.536,123.536l-78.459,51.797l63.136,63.136C245.1,511.808,250.527,512,256,512  C397.385,512,512,397.385,512,256z"/>
<rect x="335.491" y="164.073" transform="matrix(-0.9395 -0.3424 0.3424 -0.9395 592.001 543.6556)" style="fill:#FF9451;" width="16.999" height="110.994"/>
<rect x="319.07" y="136.981" transform="matrix(-0.9395 -0.3424 0.3424 -0.9395 657.1161 438.1293)" style="fill:#FFB344;" width="96.325" height="48.158"/>
<path style="fill:#2B9153;" d="M262.383,217.804V147.69l9.006,0.011c32.364,0.041,58.634-26.161,58.677-58.525l0.017-13.048  l-13.049-0.016c-24.845-0.032-52.481,15.404-61.034,37.22c-8.553-21.816-36.189-37.253-61.035-37.221l-13.049,0.016l0.017,13.048  c0.044,32.364,26.314,58.566,58.678,58.525l9.006-0.011v70.114L262.383,217.804L262.383,217.804z"/>
<path style="fill:#005D5E;" d="M317.035,76.111C292.189,76.08,264.553,91.516,256,113.332c-0.104-0.265,0.11,0.263,0,0  l-0.333,104.471h6.717v-70.114l9.006,0.011c32.364,0.041,58.634-26.161,58.677-58.525l0.018-13.048L317.035,76.111z"/>
<polygon style="fill:#FF6838;" points="335.423,448.333 176.577,448.333 144.5,262 367.5,262 "/>
<g>
	<polygon style="fill:#AE4E32;" points="367.5,262 255.667,262 255.667,448.333 335.423,448.333  "/>
	<rect x="131.5" y="212" style="fill:#AE4E32;" width="249" height="61"/>
</g>
<rect x="255.67" y="212" style="fill:#892F1A;" width="124.83" height="61"/>
<g>
</g>
<g>
</g>
<g>
</g>
<g>
</g>
<g>
</g>
<g>
</g>
<g>
</g>
<g>
</g>
<g>
</g>
<g>
</g>
<g>
</g>
<g>
</g>
<g>
</g>
<g>
</g>
<g>
</g>
</svg>
