<?xml version="1.0" encoding="iso-8859-1"?>
<!-- Generator: Adobe Illustrator 19.0.0, SVG Export Plug-In . SVG Version: 6.00 Build 0)  -->
<svg xmlns="http://www.w3.org/2000/svg" xmlns:xlink="http://www.w3.org/1999/xlink" version="1.1" id="Capa_1" x="0px" y="0px" viewBox="0 0 512 512" style="enable-background:new 0 0 512 512;" xml:space="preserve">
<circle style="fill:#662E57;" cx="256" cy="256" r="256"/>
<path style="fill:#590F38;" d="M512,256c0-1.45-0.031-2.892-0.055-4.336l-140.32-140.321L170,171l-17,29.403l123.511,123.512  L164.667,437.544l73.85,73.85C244.296,511.784,250.122,512,256,512C397.385,512,512,397.385,512,256z"/>
<polygon style="fill:#FFDC00;" points="347.333,437.544 164.667,437.544 164.667,166.544 256,91.698 347.333,166.544 "/>
<polygon style="fill:#FFC000;" points="347.333,166.544 256,91.698 256,91.971 256,437.544 347.333,437.544 "/>
<polygon style="fill:#FF9451;" points="256,85.172 153,169.579 153,200.403 256,115.997 359,200.403 359,169.579 "/>
<polygon style="fill:#F7674F;" points="256,85.172 256,85.172 256,115.997 256,115.997 359,200.403 359,169.579 "/>
<rect x="204" y="351.88" style="fill:#FFECB3;" width="104" height="85.67"/>
<rect x="256" y="351.88" style="fill:#FFD863;" width="52" height="85.67"/>
<rect x="311.656" y="195.553" transform="matrix(-0.7071 0.7071 -0.7071 -0.7071 759.3823 215.8374)" style="fill:#008CC3;" width="46.667" height="139.279"/>
<rect x="153.676" y="103.561" transform="matrix(-0.7071 0.7071 -0.7071 -0.7071 424.6443 170.5076)" style="fill:#00BAFF;" width="46.667" height="139.279"/>
<rect x="250.497" y="61.173" transform="matrix(-0.7071 0.7071 -0.7071 -0.7071 592.0059 193.1665)" style="fill:#0074A3;" width="11" height="316.037"/>
<polygon style="fill:#005C83;" points="371.626,327.039 255.667,211.08 255.667,226.636 363.848,334.817 "/>
<rect x="278.669" y="70.564" transform="matrix(0.7071 0.7071 -0.7071 0.7071 187.5898 -172.4847)" style="fill:#00BAFF;" width="46.667" height="139.269"/>
<polygon style="fill:#008CC3;" points="367.736,107.454 334.737,74.456 255.917,153.277 255.917,192.599 269.254,205.936 "/>
<rect x="186.67" y="228.556" transform="matrix(0.7071 0.7071 -0.7071 0.7071 272.3606 -61.1568)" style="fill:#00BAFF;" width="46.667" height="139.269"/>
<polygon style="fill:#008CC3;" points="255.938,245.638 255.938,285.25 275.743,265.444 "/>
<rect x="250.502" y="61.175" transform="matrix(0.7071 0.7071 -0.7071 0.7071 229.9741 -116.8203)" style="fill:#0074A3;" width="11" height="316.037"/>
<g>
	<polygon style="fill:#005C83;" points="363.847,103.565 256,211.454 256,227.011 371.625,111.343  "/>
	<circle style="fill:#005C83;" cx="256" cy="219.19" r="13.255"/>
</g>
<path style="fill:#00263F;" d="M256,232.446c7.32,0,13.255-5.935,13.255-13.255S263.32,205.936,256,205.936V232.446z"/>
<g>
</g>
<g>
</g>
<g>
</g>
<g>
</g>
<g>
</g>
<g>
</g>
<g>
</g>
<g>
</g>
<g>
</g>
<g>
</g>
<g>
</g>
<g>
</g>
<g>
</g>
<g>
</g>
<g>
</g>
</svg>
