<?xml version="1.0" encoding="iso-8859-1"?>
<!-- Generator: Adobe Illustrator 19.0.0, SVG Export Plug-In . SVG Version: 6.00 Build 0)  -->
<svg xmlns="http://www.w3.org/2000/svg" xmlns:xlink="http://www.w3.org/1999/xlink" version="1.1" id="Capa_1" x="0px" y="0px" viewBox="0 0 512 512" style="enable-background:new 0 0 512 512;" xml:space="preserve">
<circle style="fill:#00BAFF;" cx="256" cy="256" r="256"/>
<path style="fill:#008CC3;" d="M270.156,511.604c132.08-7.2,237.498-114.512,241.699-247.368l-68.6-68.6L75.833,317.282  L270.156,511.604z"/>
<g>
	<polygon style="fill:#FFECB3;" points="482.79,290.614 435,305.8 435,276.475 482.79,276.475  "/>
	<path style="fill:#FFECB3;" d="M87.801,206.187l79.215-59.056c50.891-37.94,134.168-37.94,185.059-0.001l79.213,59.053   L87.801,206.187z"/>
</g>
<path style="fill:#FFD863;" d="M352.074,147.131c-26.427-19.701-61.585-29.145-96.408-28.386v87.44l175.62-0.002L352.074,147.131z"/>
<rect x="75.833" y="195.64" style="fill:#FFCF35;" width="367.42" height="121.65"/>
<rect x="255.67" y="195.64" style="fill:#FFB344;" width="187.59" height="121.65"/>
<rect x="75.833" y="230.39" style="fill:#FFD863;" width="367.42" height="52.13"/>
<rect x="255.67" y="230.39" style="fill:#FFCF35;" width="187.59" height="52.13"/>
<rect x="416.88" y="195.64" style="fill:#FF9451;" width="26.377" height="121.65"/>
<rect x="242.81" y="195.64" style="fill:#FFB344;" width="26.377" height="121.65"/>
<rect x="255.75" y="195.64" style="fill:#FF9451;" width="13.439" height="121.65"/>
<rect x="75.833" y="195.64" style="fill:#FFB344;" width="26.377" height="121.65"/>
<circle style="fill:#1A1A1A;" cx="165.83" cy="315.44" r="49.884"/>
<circle style="fill:#808080;" cx="165.83" cy="315.44" r="24.826"/>
<circle cx="353.26" cy="315.44" r="49.884"/>
<circle style="fill:#666666;" cx="353.26" cy="315.44" r="24.826"/>
<g>
</g>
<g>
</g>
<g>
</g>
<g>
</g>
<g>
</g>
<g>
</g>
<g>
</g>
<g>
</g>
<g>
</g>
<g>
</g>
<g>
</g>
<g>
</g>
<g>
</g>
<g>
</g>
<g>
</g>
</svg>
