<?xml version="1.0" encoding="iso-8859-1"?>
<!-- Generator: Adobe Illustrator 19.0.0, SVG Export Plug-In . SVG Version: 6.00 Build 0)  -->
<svg xmlns="http://www.w3.org/2000/svg" xmlns:xlink="http://www.w3.org/1999/xlink" version="1.1" id="Capa_1" x="0px" y="0px" viewBox="0 0 512 512" style="enable-background:new 0 0 512 512;" xml:space="preserve">
<circle style="fill:#008CC3;" cx="256" cy="256" r="256"/>
<path style="fill:#0074A3;" d="M266.068,511.785c131.617-5.093,237.73-109.536,245.462-240.46l-63.03-63.03l-385,21.047  l49.517,49.517L63.5,292.355l65.447,65.447l-9.957,6.904L266.068,511.785z"/>
<g>
	<polygon style="fill:#FFD863;" points="118.99,281.832 98.236,281.832 79.413,225.109 100.167,225.109  "/>
	<polygon style="fill:#FFD863;" points="179.05,281.832 158.296,281.832 139.473,225.109 160.227,225.109  "/>
</g>
<g>
	<polygon style="fill:#FFCF35;" points="393.01,281.832 413.764,281.832 432.587,225.109 411.833,225.109  "/>
	<polygon style="fill:#FFCF35;" points="332.95,281.832 353.704,281.832 372.527,225.109 351.773,225.109  "/>
</g>
<rect x="63.5" y="208.29" style="fill:#FFECB3;" width="385" height="21.05"/>
<rect x="255.67" y="208.29" style="fill:#FFD863;" width="192.83" height="21.05"/>
<rect x="63.5" y="271.31" style="fill:#FFECB3;" width="385" height="21.05"/>
<rect x="255.67" y="271.31" style="fill:#FFD863;" width="192.83" height="21.05"/>
<path style="fill:#FFFFFF;" d="M260.39,328.168h-8.781c-27.886-9.454-49.53-33.78-46.287-61.476l4.39-37.502  c2.749-23.482,22.645-41.185,46.287-41.185l0,0c23.642,0,43.538,17.703,46.287,41.185l4.39,37.502  C309.92,294.389,288.276,318.714,260.39,328.168z"/>
<path style="fill:#E0E0E0;" d="M306.678,266.692l-4.39-37.502c-2.749-23.482-22.645-41.185-46.287-41.185l0,0  c-0.112,0-0.222,0.007-0.333,0.008v140.156h4.724C288.276,318.714,309.92,294.389,306.678,266.692z"/>
<path style="fill:#B9EAFF;" d="M296.265,232.334c-2.391-20.427-19.699-35.827-40.265-35.827l0,0  c-20.566,0-37.874,15.4-40.265,35.827l-1.68,14.347h83.89L296.265,232.334z"/>
<path style="fill:#35CCFF;" d="M296.265,232.334c-2.391-20.427-19.699-35.826-40.265-35.826c-0.112,0-0.222,0.007-0.333,0.008  v50.166h42.278L296.265,232.334z"/>
<g>
	<path style="fill:#FFFFFF;" d="M111.973,349.5c0-11.046,20-33.5,20-33.5s20,22.454,20,33.5s-8.954,20-20,20   S111.973,360.546,111.973,349.5z"/>
	<path style="fill:#FFFFFF;" d="M173.987,389.667c0-11.046,20-33.5,20-33.5s20,22.454,20,33.5s-8.954,20-20,20   S173.987,400.712,173.987,389.667z"/>
</g>
<g>
	<path style="fill:#E0E0E0;" d="M400.027,349.5c0-11.046-20-33.5-20-33.5s-20,22.454-20,33.5s8.954,20,20,20   C391.072,369.5,400.027,360.546,400.027,349.5z"/>
	<path style="fill:#E0E0E0;" d="M338.013,389.667c0-11.046-20-33.5-20-33.5s-20,22.454-20,33.5s8.954,20,20,20   S338.013,400.712,338.013,389.667z"/>
</g>
<path style="fill:#FFFFFF;" d="M276,426.417c0-11.046-20-33.5-20-33.5s-20,22.454-20,33.5s8.954,20,20,20  C267.046,446.417,276,437.462,276,426.417z"/>
<path style="fill:#E0E0E0;" d="M256,446.417c11.046,0,20-8.954,20-20c0-11.045-20-33.5-20-33.5V446.417z"/>
<g>
</g>
<g>
</g>
<g>
</g>
<g>
</g>
<g>
</g>
<g>
</g>
<g>
</g>
<g>
</g>
<g>
</g>
<g>
</g>
<g>
</g>
<g>
</g>
<g>
</g>
<g>
</g>
<g>
</g>
</svg>
