<?xml version="1.0" encoding="iso-8859-1"?>
<!-- Generator: Adobe Illustrator 19.0.0, SVG Export Plug-In . SVG Version: 6.00 Build 0)  -->
<svg xmlns="http://www.w3.org/2000/svg" xmlns:xlink="http://www.w3.org/1999/xlink" version="1.1" id="Capa_1" x="0px" y="0px" viewBox="0 0 512 512" style="enable-background:new 0 0 512 512;" xml:space="preserve">
<circle style="fill:#FFDC00;" cx="256" cy="256" r="256"/>
<path style="fill:#FFC000;" d="M512,256c0-5.962-0.221-11.871-0.622-17.731L384.194,111.084l-256.388,69.5l119.258,119.259  L139.383,413.5l97.81,97.81c6.211,0.451,12.481,0.69,18.807,0.69C397.385,512,512,397.385,512,256z"/>
<rect x="139.38" y="165.28" style="fill:#FF3F84;" width="233.23" height="248.22"/>
<rect x="255.67" y="165.28" style="fill:#983262;" width="116.95" height="248.22"/>
<rect x="165.25" y="234.5" style="fill:#FFFFFF;" width="181.5" height="104.5"/>
<rect x="255.67" y="234.5" style="fill:#E0E0E0;" width="91.08" height="104.5"/>
<path style="fill:#60C344;" d="M260.189,288.334l6.749-17.576c7.784-20.273,30.524-30.412,50.804-22.651l17.572,6.724l-6.749,17.576  c-7.784,20.273-30.524,30.412-50.804,22.651L260.189,288.334z"/>
<path style="fill:#662E57;" d="M275.381,253.093c-6.816,0-12.928,2.95-17.181,7.622c-3.432-8.563-11.792-14.618-21.581-14.618  c-12.845,0-23.257,10.413-23.257,23.257c0,10.391,6.817,19.185,16.221,22.168c-2.358,3.638-3.741,7.966-3.741,12.624  c0,12.845,10.413,23.257,23.257,23.257s23.257-10.413,23.257-23.257c0-1.659-0.18-3.274-0.51-4.835  c1.156,0.177,2.331,0.297,3.536,0.297c12.845,0,23.257-10.413,23.257-23.257C298.639,263.506,288.226,253.093,275.381,253.093z"/>
<path style="fill:#590F38;" d="M275.381,253.093c-6.816,0-12.928,2.95-17.181,7.622c-0.666-1.661-1.522-3.225-2.533-4.671v70.413  c9.645-2.835,16.689-11.748,16.689-22.311c0-1.659-0.18-3.274-0.51-4.835c1.156,0.177,2.331,0.297,3.536,0.297  c12.845,0,23.258-10.413,23.258-23.258C298.639,263.506,288.226,253.093,275.381,253.093z"/>
<rect x="127.81" y="111.08" style="fill:#662E57;" width="256.39" height="69.5"/>
<rect x="255.67" y="111.08" style="fill:#590F38;" width="128.53" height="69.5"/>
<g>
</g>
<g>
</g>
<g>
</g>
<g>
</g>
<g>
</g>
<g>
</g>
<g>
</g>
<g>
</g>
<g>
</g>
<g>
</g>
<g>
</g>
<g>
</g>
<g>
</g>
<g>
</g>
<g>
</g>
</svg>
