<?xml version="1.0" encoding="iso-8859-1"?>
<!-- Generator: Adobe Illustrator 19.0.0, SVG Export Plug-In . SVG Version: 6.00 Build 0)  -->
<svg xmlns="http://www.w3.org/2000/svg" xmlns:xlink="http://www.w3.org/1999/xlink" version="1.1" id="Capa_1" x="0px" y="0px" viewBox="0 0 512 512" style="enable-background:new 0 0 512 512;" xml:space="preserve">
<circle style="fill:#0074A3;" cx="256" cy="256" r="256"/>
<path style="fill:#005C83;" d="M512,256c0-7.464-0.338-14.848-0.964-22.15L394.593,117.407l-11.686,10.349l-53.484-53.484  l-109.09,112.061L60,256l59.916,59.916l-44.335,16.668l53.482,53.482l-11.656,8.528L233.85,511.036  C241.152,511.662,248.536,512,256,512C397.385,512,512,397.385,512,256z"/>
<path style="fill:#FFCF35;" d="M215.5,150.191C215.5,106.819,256,60,256,60s40.5,42.223,40.5,90.191c0,22.368-18.132,40.5-40.5,40.5  S215.5,172.559,215.5,150.191z"/>
<path style="fill:#FFB344;" d="M255.667,190.683c0.112,0.001,0.221,0.008,0.333,0.008c22.368,0,40.5-18.132,40.5-40.5  C296.5,102.223,256,60,256,60L255.667,190.683z"/>
<path style="fill:#FFCF35;" d="M296.5,361.809C296.5,405.181,256,452,256,452s-40.5-42.223-40.5-90.191  c0-22.368,18.133-40.5,40.5-40.5C278.368,321.309,296.5,339.441,296.5,361.809z"/>
<g>
	<path style="fill:#FFB344;" d="M256,452c0,0,40.5-46.819,40.5-90.191c0-22.367-18.133-40.5-40.5-40.5   c-0.112,0-0.222,0.008-0.333,0.008L256,452z"/>
	<path style="fill:#FFB344;" d="M361.809,215.5C405.181,215.5,452,256,452,256s-42.223,40.5-90.191,40.5   c-22.368,0-40.5-18.132-40.5-40.5S339.441,215.5,361.809,215.5z"/>
</g>
<path style="fill:#FFCF35;" d="M150.191,296.5C106.819,296.5,60,256,60,256s42.223-40.5,90.191-40.5c22.368,0,40.5,18.133,40.5,40.5  C190.691,278.368,172.559,296.5,150.191,296.5z"/>
<path style="fill:#FFB344;" d="M302.18,152.544c30.669-30.669,92.413-35.137,92.413-35.137s-1.219,58.494-35.137,92.413  c-15.816,15.816-41.459,15.816-57.276,0S286.364,168.36,302.18,152.544z"/>
<g>
	<path style="fill:#FFCF35;" d="M209.82,359.456c-30.669,30.669-92.413,35.137-92.413,35.137s1.219-58.494,35.137-92.413   c15.816-15.816,41.459-15.816,57.276,0S225.636,343.64,209.82,359.456z"/>
	<path style="fill:#FFCF35;" d="M152.544,209.82c-30.669-30.669-35.137-92.413-35.137-92.413s58.494,1.219,92.413,35.137   c15.816,15.816,15.816,41.459,0,57.276S168.36,225.636,152.544,209.82z"/>
</g>
<g>
	<path style="fill:#FFB344;" d="M359.456,302.18c30.669,30.669,35.137,92.413,35.137,92.413s-58.494-1.219-92.413-35.137   c-15.816-15.816-15.816-41.459,0-57.276C317.996,286.364,343.64,286.364,359.456,302.18z"/>
	<path style="fill:#FFB344;" d="M177.377,174.427c-16.947-39.924,2.04-98.846,2.04-98.846s53.778,23.042,72.521,67.197   c8.74,20.589-0.866,44.365-21.456,53.105C209.892,204.623,186.117,195.017,177.377,174.427z"/>
</g>
<g>
	<path style="fill:#FF9451;" d="M334.623,337.573c16.947,39.924-2.04,98.846-2.04,98.846s-53.778-23.042-72.521-67.197   c-8.74-20.589,0.866-44.365,21.456-53.105C302.108,307.377,325.884,316.983,334.623,337.573z"/>
	<path style="fill:#FF9451;" d="M337.573,177.377c39.924-16.947,98.846,2.04,98.846,2.04s-23.042,53.778-67.197,72.521   c-20.589,8.74-44.365-0.866-53.105-21.456C307.377,209.893,316.983,186.117,337.573,177.377z"/>
</g>
<path style="fill:#FFB344;" d="M174.427,334.623c-39.924,16.947-98.846-2.04-98.846-2.04s23.042-53.778,67.197-72.521  c20.589-8.74,44.365,0.866,53.105,21.456C204.623,302.108,195.017,325.883,174.427,334.623z"/>
<path style="fill:#FF9451;" d="M258.086,142.724c16.248-40.214,71.337-68.453,71.337-68.453s21.734,54.32,3.765,98.796  c-8.379,20.739-31.984,30.758-52.722,22.379C259.726,187.068,249.707,163.463,258.086,142.724z"/>
<g>
	<path style="fill:#FFB344;" d="M253.914,369.276c-16.248,40.214-71.337,68.452-71.337,68.452s-21.734-54.32-3.765-98.796   c8.379-20.739,31.984-30.758,52.723-22.379S262.293,348.537,253.914,369.276z"/>
	<path style="fill:#FFB344;" d="M142.724,253.914c-40.214-16.248-68.453-71.337-68.453-71.337s54.32-21.734,98.796-3.765   c20.739,8.379,30.758,31.984,22.379,52.723S163.463,262.293,142.724,253.914z"/>
</g>
<path style="fill:#FF9451;" d="M369.276,258.086c40.214,16.248,68.452,71.337,68.452,71.337s-54.32,21.734-98.796,3.765  c-20.739-8.379-30.758-31.984-22.379-52.723C324.932,259.726,348.537,249.707,369.276,258.086z"/>
<circle style="fill:#4D4D4D;" cx="256" cy="256" r="124"/>
<path style="fill:#333333;" d="M256,132c-0.111,0-0.222,0.004-0.333,0.004v247.992c0.111,0,0.222,0.004,0.333,0.004  c68.483,0,124-55.517,124-124S324.483,132,256,132z"/>
<g>
</g>
<g>
</g>
<g>
</g>
<g>
</g>
<g>
</g>
<g>
</g>
<g>
</g>
<g>
</g>
<g>
</g>
<g>
</g>
<g>
</g>
<g>
</g>
<g>
</g>
<g>
</g>
<g>
</g>
</svg>
