<?xml version="1.0" encoding="iso-8859-1"?>
<!-- Generator: Adobe Illustrator 19.0.0, SVG Export Plug-In . SVG Version: 6.00 Build 0)  -->
<svg xmlns="http://www.w3.org/2000/svg" xmlns:xlink="http://www.w3.org/1999/xlink" version="1.1" id="Capa_1" x="0px" y="0px" viewBox="0 0 512 512" style="enable-background:new 0 0 512 512;" xml:space="preserve">
<circle style="fill:#B9EAFF;" cx="256" cy="256" r="256"/>
<path style="fill:#35CCFF;" d="M506.866,307.241L291.625,92l-16.313,41.687L233.625,92L227,127L97.233,357.202L251.98,511.949  c1.339,0.021,2.676,0.051,4.02,0.051C379.836,512,483.131,424.071,506.866,307.241z"/>
<rect x="251.5" y="386.5" style="fill:#8C6239;" width="9" height="35"/>
<rect x="255.67" y="386.5" style="fill:#754C24;" width="4.833" height="35"/>
<rect x="220.37" y="92" style="fill:#8C6239;" width="13.251" height="44"/>
<rect x="278.37" y="92" style="fill:#754C24;" width="13.251" height="44"/>
<path style="fill:#FF9451;" d="M238.751,198.582l-27.55,117.342c-12.96,55.198-81.493,74.712-121.586,34.62l0,0  c-28.253-28.253-28.254-74.06-0.001-102.313l99.391-99.394L238.751,198.582z"/>
<path style="fill:#F7674F;" d="M273.249,198.582l27.55,117.342c12.96,55.198,81.493,74.712,121.586,34.62l0,0  c28.253-28.253,28.254-74.06,0.001-102.313l-99.391-99.394L273.249,198.582z"/>
<path style="fill:#FFCF35;" d="M256,397L256,397c-45.255,0-81.941-36.686-81.941-81.941V196.941  C174.059,151.686,210.745,115,256,115l0,0c45.255,0,81.941,36.686,81.941,81.941v118.118C337.941,360.314,301.255,397,256,397z"/>
<path style="fill:#FFB344;" d="M256,115L256,115c-0.112,0-0.222,0.008-0.333,0.008v281.983c0.112,0,0.221,0.008,0.333,0.008l0,0  c45.255,0,81.941-36.686,81.941-81.941V196.941C337.941,151.686,301.255,115,256,115z"/>
<rect x="174.06" y="203.25" style="fill:#8C6239;" width="163.88" height="41.5"/>
<rect x="255.67" y="203.25" style="fill:#754C24;" width="82.28" height="41.5"/>
<rect x="174.06" y="267.25" style="fill:#8C6239;" width="163.88" height="41.5"/>
<rect x="255.67" y="267.25" style="fill:#754C24;" width="82.28" height="41.5"/>
<path style="fill:#8C6239;" d="M197.821,372.75H314.18c11.067-11.161,18.944-25.485,22.155-41.5H175.666  C178.876,347.265,186.753,361.589,197.821,372.75z"/>
<path style="fill:#754C24;" d="M336.334,331.25h-80.667v41.5h58.513C325.247,361.589,333.124,347.265,336.334,331.25z"/>
<path style="fill:#8C6239;" d="M175.666,180.75h160.668c-3.21-16.015-11.087-30.339-22.155-41.5H197.82  C186.753,150.411,178.876,164.735,175.666,180.75z"/>
<path style="fill:#754C24;" d="M314.18,139.25h-58.513v41.5h80.667C333.124,164.735,325.247,150.411,314.18,139.25z"/>
<g>
</g>
<g>
</g>
<g>
</g>
<g>
</g>
<g>
</g>
<g>
</g>
<g>
</g>
<g>
</g>
<g>
</g>
<g>
</g>
<g>
</g>
<g>
</g>
<g>
</g>
<g>
</g>
<g>
</g>
</svg>
