<?xml version="1.0" encoding="iso-8859-1"?>
<!-- Generator: Adobe Illustrator 19.0.0, SVG Export Plug-In . SVG Version: 6.00 Build 0)  -->
<svg xmlns="http://www.w3.org/2000/svg" xmlns:xlink="http://www.w3.org/1999/xlink" version="1.1" id="Capa_1" x="0px" y="0px" viewBox="0 0 512 512" style="enable-background:new 0 0 512 512;" xml:space="preserve">
<circle style="fill:#FFDC00;" cx="256" cy="256" r="256"/>
<path style="fill:#FFC000;" d="M510.987,278.694L389.333,157.04l-9.123,7.321l-94.345-94.345L122.667,229.667l105.219,105.219  L129,409.637l101.063,101.062C238.592,511.558,247.244,512,256,512C389.735,512,499.5,409.446,510.987,278.694z"/>
<path style="fill:#FFFFFF;" d="M256,288.808L142,162l76.029-84.571c20.971-23.327,54.971-23.327,75.942,0L370,162L256,288.808z"/>
<path style="fill:#E0E0E0;" d="M370,162l-76.029-84.571c-10.57-11.758-24.451-17.582-38.304-17.486v228.494l0.333,0.371L370,162z"/>
<path style="fill:#983262;" d="M367.754,368.055c6.242-51.907,8.136-103.814,5.704-155.721H138.542  c-2.433,51.907-0.539,103.814,5.704,155.721c-9.23,6.666-15.244,17.511-15.245,29.767L129,409.637h11.818  c11.749,0,22.201-5.527,28.919-14.115c57.508,10.202,115.017,10.202,172.525,0c6.718,8.589,17.17,14.115,28.919,14.115H383  l-0.001-11.816C382.998,385.566,376.985,374.721,367.754,368.055z"/>
<g>
	<path style="fill:#662E57;" d="M382.999,397.821c-0.001-12.256-6.014-23.101-15.245-29.767   c6.242-51.907,8.136-103.814,5.704-155.721H255.667V403.17c28.865,0.02,57.73-2.529,86.596-7.649   c6.718,8.589,17.17,14.115,28.919,14.115h11.819L382.999,397.821z"/>
	<rect x="122.67" y="157.04" style="fill:#662E57;" width="266.67" height="72.63"/>
</g>
<rect x="255.67" y="157.04" style="fill:#590F38;" width="133.67" height="72.63"/>
<g>
</g>
<g>
</g>
<g>
</g>
<g>
</g>
<g>
</g>
<g>
</g>
<g>
</g>
<g>
</g>
<g>
</g>
<g>
</g>
<g>
</g>
<g>
</g>
<g>
</g>
<g>
</g>
<g>
</g>
</svg>
