<?xml version="1.0" encoding="iso-8859-1"?>
<!-- Generator: Adobe Illustrator 19.0.0, SVG Export Plug-In . SVG Version: 6.00 Build 0)  -->
<svg xmlns="http://www.w3.org/2000/svg" xmlns:xlink="http://www.w3.org/1999/xlink" version="1.1" id="Capa_1" x="0px" y="0px" viewBox="0 0 512 512" style="enable-background:new 0 0 512 512;" xml:space="preserve">
<circle style="fill:#B9EAFF;" cx="256" cy="256" r="256"/>
<path style="fill:#35CCFF;" d="M456.379,415.318C491.188,371.595,512,316.231,512,256c0-5.971-0.221-11.889-0.624-17.758  l-87.256-87.256L456.379,415.318z"/>
<path style="fill:#FFCF35;" d="M0.773,276C10.977,408.037,121.346,512,256,512s245.023-103.963,255.227-236H0.773z"/>
<path style="fill:#FFB344;" d="M255.667,276v235.996c0.111,0,0.222,0.004,0.333,0.004c134.654,0,245.023-103.963,255.227-236  H255.667z"/>
<path style="fill:#E2B024;" d="M354.479,346c53.808,0,97.428-51.383,97.428-114.767s-43.62-114.767-97.428-114.767H160.97V346  H354.479z"/>
<path style="fill:#C6951C;" d="M160.97,230.333V346h193.509c53.808,0,97.428-51.383,97.428-114.767c0-0.301-0.008-0.6-0.01-0.9  L160.97,230.333L160.97,230.333z"/>
<ellipse style="fill:#EAC675;" cx="160.97" cy="231.23" rx="97.43" ry="114.77"/>
<path style="fill:#D3AF66;" d="M63.552,230.333c-0.002,0.301-0.01,0.599-0.01,0.9c0,63.384,43.62,114.767,97.428,114.767  s97.428-51.383,97.428-114.767c0-0.301-0.008-0.6-0.01-0.9L63.552,230.333L63.552,230.333z"/>
<ellipse style="fill:#E2B024;" cx="160.97" cy="231.23" rx="70.28" ry="82.79"/>
<path style="fill:#C6951C;" d="M90.706,230.333c-0.003,0.301-0.019,0.598-0.019,0.9c0,45.725,31.467,82.792,70.283,82.792  s70.284-37.067,70.284-82.792c0-0.302-0.017-0.599-0.019-0.9L90.706,230.333L90.706,230.333z"/>
<ellipse style="fill:#EAC675;" cx="160.97" cy="231.23" rx="35.755" ry="42.12"/>
<path style="fill:#C4A15C;" d="M125.234,230.333c-0.005,0.301-0.019,0.598-0.019,0.9c0,23.261,16.008,42.119,35.755,42.119  s35.755-18.857,35.755-42.118c0-0.302-0.014-0.6-0.019-0.901H125.234z"/>
<g>
</g>
<g>
</g>
<g>
</g>
<g>
</g>
<g>
</g>
<g>
</g>
<g>
</g>
<g>
</g>
<g>
</g>
<g>
</g>
<g>
</g>
<g>
</g>
<g>
</g>
<g>
</g>
<g>
</g>
</svg>
