<?xml version="1.0" encoding="iso-8859-1"?>
<!-- Generator: Adobe Illustrator 19.0.0, SVG Export Plug-In . SVG Version: 6.00 Build 0)  -->
<svg xmlns="http://www.w3.org/2000/svg" xmlns:xlink="http://www.w3.org/1999/xlink" version="1.1" id="Capa_1" x="0px" y="0px" viewBox="0 0 512 512" style="enable-background:new 0 0 512 512;" xml:space="preserve">
<circle style="fill:#B9EAFF;" cx="256" cy="256" r="256"/>
<path style="fill:#35CCFF;" d="M512,256c0-7.571-0.348-15.06-0.992-22.465l-120.591-120.59l-112.904,79.581l-47.742-47.742  l-84.12,59.024L405.5,463.657l0.007,0.155C470.004,417.329,512,341.574,512,256z"/>
<path style="fill:#8C6239;" d="M5.087,307C28.73,423.949,132.08,512,256,512s227.27-88.051,250.913-205H5.087z"/>
<path style="fill:#754C24;" d="M255.667,307v204.996c0.111,0,0.222,0.004,0.333,0.004c123.92,0,227.27-88.051,250.913-205H255.667z"/>
<g>
	<path style="fill:#47AB4B;" d="M267.582,370V242.786l16.34,0.021c58.72,0.074,106.384-47.466,106.463-106.187l0.032-23.675   l-23.676-0.03c-45.08-0.057-95.222,27.951-110.742,67.534c-15.519-39.583-65.662-67.591-110.742-67.534l-23.676,0.03l0.032,23.675   c0.079,58.721,47.743,106.261,106.464,106.187l16.34-0.021V370H267.582z"/>
</g>
<path style="fill:#2B9153;" d="M256,180.449c15.519-39.583,65.662-67.591,110.742-67.534l23.676,0.03l-0.032,23.675  c-0.079,58.721-47.743,106.261-106.463,106.187l-16.34-0.021V370H256V180.449z"/>
<g>
</g>
<g>
</g>
<g>
</g>
<g>
</g>
<g>
</g>
<g>
</g>
<g>
</g>
<g>
</g>
<g>
</g>
<g>
</g>
<g>
</g>
<g>
</g>
<g>
</g>
<g>
</g>
<g>
</g>
</svg>
