<?xml version="1.0" encoding="iso-8859-1"?>
<!-- Generator: Adobe Illustrator 19.0.0, SVG Export Plug-In . SVG Version: 6.00 Build 0)  -->
<svg xmlns="http://www.w3.org/2000/svg" xmlns:xlink="http://www.w3.org/1999/xlink" version="1.1" id="Capa_1" x="0px" y="0px" viewBox="0 0 512 512" style="enable-background:new 0 0 512 512;" xml:space="preserve">
<circle style="fill:#B9EAFF;" cx="256" cy="256" r="256"/>
<path style="fill:#35CCFF;" d="M469.705,396.966c20.493-31.005,34.415-66.725,39.795-105.19l-147.3-147.3L469.705,396.966z"/>
<circle style="fill:#FFCF35;" cx="256" cy="256" r="154"/>
<path style="fill:#FFB344;" d="M256,102c-0.111,0-0.222,0.004-0.333,0.004v307.992c0.111,0,0.222,0.004,0.333,0.004  c85.052,0,154-68.948,154-154S341.052,102,256,102z"/>
<path style="fill:#2B9153;" d="M0.364,242.333C0.126,246.859,0,251.415,0,256c0,141.385,114.615,256,256,256s256-114.615,256-256  c0-4.585-0.126-9.141-0.364-13.667L0.364,242.333L0.364,242.333z"/>
<path style="fill:#005D5E;" d="M511.636,242.333H255.667v269.663c0.111,0,0.222,0.004,0.333,0.004c141.385,0,256-114.615,256-256  C512,251.415,511.874,246.859,511.636,242.333z"/>
<path style="fill:#60C344;" d="M438.991,435C484.15,388.84,512,325.677,512,256c0-4.585-0.126-9.141-0.364-13.667H0.364  C0.126,246.859,0,251.415,0,256c0,69.677,27.85,132.84,73.009,179H438.991z"/>
<path style="fill:#47AB4B;" d="M512,256c0-4.585-0.126-9.141-0.364-13.667H255.667V435h183.324C484.15,388.84,512,325.677,512,256z"/>
<path style="fill:#2B9153;" d="M488.928,362.333C503.737,329.946,512,293.94,512,256c0-4.585-0.126-9.141-0.364-13.667H0.364  C0.126,246.859,0,251.415,0,256c0,37.94,8.263,73.946,23.072,106.333H488.928z"/>
<path style="fill:#005D5E;" d="M512,256c0-4.585-0.126-9.141-0.364-13.667H255.667v120h233.261C503.737,329.946,512,293.94,512,256z  "/>
<path style="fill:#60C344;" d="M508.192,300.167C510.688,285.818,512,271.063,512,256c0-4.585-0.126-9.141-0.364-13.667H0.364  C0.126,246.859,0,251.415,0,256c0,15.063,1.312,29.818,3.808,44.167H508.192z"/>
<path style="fill:#47AB4B;" d="M512,256c0-4.585-0.126-9.141-0.364-13.667H255.667v57.833h252.525  C510.688,285.818,512,271.063,512,256z"/>
<g>
</g>
<g>
</g>
<g>
</g>
<g>
</g>
<g>
</g>
<g>
</g>
<g>
</g>
<g>
</g>
<g>
</g>
<g>
</g>
<g>
</g>
<g>
</g>
<g>
</g>
<g>
</g>
<g>
</g>
</svg>
