<?xml version="1.0" encoding="iso-8859-1"?>
<!-- Generator: Adobe Illustrator 19.0.0, SVG Export Plug-In . SVG Version: 6.00 Build 0)  -->
<svg xmlns="http://www.w3.org/2000/svg" xmlns:xlink="http://www.w3.org/1999/xlink" version="1.1" id="Capa_1" x="0px" y="0px" viewBox="0 0 512 512" style="enable-background:new 0 0 512 512;" xml:space="preserve">
<circle style="fill:#B9EAFF;" cx="256" cy="256" r="256"/>
<path style="fill:#35CCFF;" d="M177.745,320.831L350.784,493.87c90.017-35.901,154.859-121.414,160.76-222.757L319.512,79.08  L177.745,320.831z"/>
<path style="fill:#47AB4B;" d="M283.759,340h-55.517c-45.461,0-80.782-39.598-75.608-84.764l14.64-127.796  C171.676,89.013,204.203,60,242.882,60h26.237c38.679,0,71.205,29.013,75.608,67.441l14.64,127.796  C364.541,300.402,329.22,340,283.759,340z"/>
<path style="fill:#2B9153;" d="M359.366,255.236l-14.64-127.795C340.324,89.013,307.797,60,269.118,60h-13.452v280h28.092  C329.22,340,364.541,300.402,359.366,255.236z"/>
<g>
	<polygon style="fill:#754C24;" points="287.333,452 224.667,452 235.359,231.358 276.641,231.358  "/>
	<path style="fill:#754C24;" d="M329.933,229.136L329.933,229.136l-2.798,3.609c-10.902,14.061-27.694,22.29-45.486,22.29h-3.86   l-1.147-23.677H235.36l-1.147,23.677h-3.86c-17.792,0-34.584-8.229-45.486-22.29l-2.798-3.609l0,0   c5.458,24.047,26.768,41.137,51.399,41.276l-1.04,21.462h-2.075c-17.792,0-34.584-8.229-45.486-22.29l-2.798-3.61l0,0   c5.326,23.464,25.745,40.306,49.616,41.238L224.667,452h62.667l-7.016-144.787c23.871-0.932,44.291-17.773,49.616-41.238l0,0   l-2.798,3.61c-10.902,14.061-27.694,22.29-45.486,22.29h-2.075l-1.04-21.462C303.165,270.273,324.475,253.183,329.933,229.136z"/>
</g>
<path style="fill:#603813;" d="M329.933,229.136L329.933,229.136l-2.798,3.609c-10.902,14.061-27.694,22.29-45.486,22.29h-3.86  l-1.147-23.677h-20.974v23.677v15.384v21.455v15.384V452h31.667l-7.016-144.787c23.871-0.932,44.291-17.773,49.616-41.238l0,0  l-2.798,3.61c-10.902,14.061-27.694,22.29-45.486,22.29h-2.075l-1.04-21.462C303.165,270.273,324.475,253.183,329.933,229.136z"/>
<path style="fill:#60C344;" d="M28.247,373C70.735,455.542,156.772,512,256,512s185.265-56.458,227.753-139H28.247z"/>
<path style="fill:#47AB4B;" d="M255.667,373v138.997c0.111,0,0.222,0.003,0.333,0.003c99.228,0,185.265-56.458,227.753-139H255.667z  "/>
<g>
</g>
<g>
</g>
<g>
</g>
<g>
</g>
<g>
</g>
<g>
</g>
<g>
</g>
<g>
</g>
<g>
</g>
<g>
</g>
<g>
</g>
<g>
</g>
<g>
</g>
<g>
</g>
<g>
</g>
</svg>
