<?xml version="1.0" encoding="iso-8859-1"?>
<!-- Generator: Adobe Illustrator 19.0.0, SVG Export Plug-In . SVG Version: 6.00 Build 0)  -->
<svg xmlns="http://www.w3.org/2000/svg" xmlns:xlink="http://www.w3.org/1999/xlink" version="1.1" id="Capa_1" x="0px" y="0px" viewBox="0 0 512 512" style="enable-background:new 0 0 512 512;" xml:space="preserve">
<circle style="fill:#00BAFF;" cx="256" cy="256" r="256"/>
<path style="fill:#008CC3;" d="M512,256c0-1.763-0.031-3.518-0.067-5.272l-77.718-77.718L176.333,99l-85.117,88.829l290.956,290.956  C459.693,434.786,512,351.506,512,256z"/>
<polygon style="fill:#FFECB3;" points="409.333,379.937 102.667,379.937 102.667,170.604 179.333,101.104 256,74.373   332.667,101.104 409.333,170.604 "/>
<polygon style="fill:#FFD863;" points="409.333,170.604 332.667,101.104 256,74.373 256,74.443 256,379.89 409.333,379.937 "/>
<polygon style="fill:#FFB344;" points="420.784,187.829 336.539,111.459 256,83.378 175.461,111.459 91.216,187.829 77.784,173.011   165.039,93.912 256,62.198 346.961,93.912 434.216,173.011 "/>
<polygon style="fill:#FF9451;" points="346.961,93.912 256,62.198 256,62.198 256,83.378 256,83.378 336.539,111.459   420.784,187.829 434.216,173.011 "/>
<rect x="226.67" y="123.94" style="fill:#FFD863;" width="58.667" height="58.667"/>
<g>
	<rect x="256" y="123.94" style="fill:#FFCF35;" width="29.333" height="58.667"/>
	<rect x="201.67" y="271.94" style="fill:#FFCF35;" width="108.67" height="108"/>
</g>
<rect x="256" y="271.94" style="fill:#FFB344;" width="54.33" height="108"/>
<path style="fill:#60C344;" d="M28.247,373C70.735,455.542,156.772,512,256,512s185.265-56.458,227.753-139H28.247z"/>
<path style="fill:#47AB4B;" d="M256,373v138.997c-0.222,0-0.111,0.003,0,0.003c99.228,0,185.265-56.458,227.753-139H256z"/>
<g>
</g>
<g>
</g>
<g>
</g>
<g>
</g>
<g>
</g>
<g>
</g>
<g>
</g>
<g>
</g>
<g>
</g>
<g>
</g>
<g>
</g>
<g>
</g>
<g>
</g>
<g>
</g>
<g>
</g>
</svg>
