<?xml version="1.0" encoding="iso-8859-1"?>
<!-- Generator: Adobe Illustrator 19.0.0, SVG Export Plug-In . SVG Version: 6.00 Build 0)  -->
<svg xmlns="http://www.w3.org/2000/svg" xmlns:xlink="http://www.w3.org/1999/xlink" version="1.1" id="Capa_1" x="0px" y="0px" viewBox="0 0 512 512" style="enable-background:new 0 0 512 512;" xml:space="preserve">
<circle style="fill:#B9EAFF;" cx="256" cy="256" r="256"/>
<path style="fill:#35CCFF;" d="M257.341,511.983C398.107,511.259,512,396.937,512,256c0-1.054-0.027-2.101-0.04-3.152  L374.097,114.985l-32.618,29.04L280.12,82.667L165.007,201.43l54.468,57.739l-54.097,52.079l59.963,58.048l-60.173,50.513  L257.341,511.983z"/>
<path style="fill:#47AB4B;" d="M280.532,229.08c51.591,0.065,93.468-41.703,93.537-93.294l0.028-20.8l-20.801-0.026  c-20.705-0.026-39.842,6.69-55.343,18.071c-1.122-22.351-10.23-44.374-27.322-61.424l-14.73-14.694l-14.694,14.735  c-17.02,17.068-26.065,39.072-27.152,61.389c-15.502-11.384-34.643-18.103-55.351-18.077l-20.801,0.026l0.028,20.8  c0.069,51.591,41.946,93.359,93.538,93.294l14.356-0.018v54.677c-13.635-34.777-47.514-59.384-87.12-59.334l-20.801,0.026  l0.028,20.8c0.069,51.591,41.946,93.359,93.538,93.294l14.356-0.018v54.006c-13.635-34.777-47.514-59.384-87.12-59.334  l-20.801,0.026l0.028,20.8c0.069,51.591,41.946,93.359,93.538,93.294l14.356-0.018v64.498C249.201,511.913,252.59,512,256,512  s6.799-0.087,10.176-0.219v-64.498l14.356,0.018c51.591,0.065,93.468-41.703,93.537-93.294l0.028-20.8l-20.801-0.026  c-39.607-0.05-73.485,24.557-87.12,59.335v-54.007l14.356,0.018c51.591,0.065,93.468-41.703,93.537-93.294l0.028-20.8l-20.801-0.026  c-39.607-0.05-73.485,24.557-87.12,59.335v-54.678L280.532,229.08z"/>
<path style="fill:#2B9153;" d="M256,512c3.41,0,6.799-0.087,10.176-0.219v-64.498l14.356,0.018  c51.591,0.065,93.468-41.703,93.537-93.294l0.028-20.8l-20.801-0.026c-39.607-0.05-73.485,24.557-87.12,59.335v-54.007l14.356,0.018  c51.591,0.065,93.468-41.703,93.537-93.294l0.028-20.8l-20.801-0.026c-39.607-0.05-73.485,24.557-87.12,59.335v-54.678l14.356,0.018  c51.591,0.065,93.468-41.703,93.537-93.294l0.028-20.8l-20.801-0.026c-20.705-0.026-39.842,6.69-55.343,18.071  c-1.122-22.351-10.23-44.374-27.322-61.424l-14.73-14.694L256,512z"/>
<g>
</g>
<g>
</g>
<g>
</g>
<g>
</g>
<g>
</g>
<g>
</g>
<g>
</g>
<g>
</g>
<g>
</g>
<g>
</g>
<g>
</g>
<g>
</g>
<g>
</g>
<g>
</g>
<g>
</g>
</svg>
