<?xml version="1.0" encoding="iso-8859-1"?>
<!-- Generator: Adobe Illustrator 19.0.0, SVG Export Plug-In . SVG Version: 6.00 Build 0)  -->
<svg xmlns="http://www.w3.org/2000/svg" xmlns:xlink="http://www.w3.org/1999/xlink" version="1.1" id="Capa_1" x="0px" y="0px" viewBox="0 0 512 512" style="enable-background:new 0 0 512 512;" xml:space="preserve">
<circle style="fill:#FFB344;" cx="256" cy="256" r="256"/>
<path style="fill:#FF9451;" d="M496.768,343.165L445,291.397l-18.832,33.769l-238.04-238.04L157,428.875l82.587,82.587  C245.016,511.805,250.485,512,256,512C366.777,512,461.111,441.635,496.768,343.165z"/>
<rect x="157" y="87.12" style="fill:#754C24;" width="31.13" height="341.75"/>
<path style="fill:#FFFFFF;" d="M445,291.397l-9.319,12.02c-36.304,46.825-92.223,74.228-151.473,74.228H157v51.23h115.824  C355.277,428.875,426.751,371.805,445,291.397L445,291.397z"/>
<path style="fill:#E0E0E0;" d="M435.681,303.417c-36.304,46.825-92.223,74.228-151.473,74.228h-28.542v51.23h17.157  c82.453,0,153.927-57.07,172.176-137.478l0,0L435.681,303.417z"/>
<rect x="157" y="175.97" style="fill:#8C6239;" width="90.79" height="33.721"/>
<g>
</g>
<g>
</g>
<g>
</g>
<g>
</g>
<g>
</g>
<g>
</g>
<g>
</g>
<g>
</g>
<g>
</g>
<g>
</g>
<g>
</g>
<g>
</g>
<g>
</g>
<g>
</g>
<g>
</g>
</svg>
