<?xml version="1.0" encoding="iso-8859-1"?>
<!-- Generator: Adobe Illustrator 19.0.0, SVG Export Plug-In . SVG Version: 6.00 Build 0)  -->
<svg xmlns="http://www.w3.org/2000/svg" xmlns:xlink="http://www.w3.org/1999/xlink" version="1.1" id="Capa_1" x="0px" y="0px" viewBox="0 0 512 512" style="enable-background:new 0 0 512 512;" xml:space="preserve">
<circle style="fill:#FFDC00;" cx="256" cy="256" r="256"/>
<path style="fill:#FFC000;" d="M512,256c0-1.605-0.031-3.203-0.061-4.8L344.179,83.439l-62.896,21.434L253.41,77l16.296,77.822  L105.364,377.169l134.297,134.297C245.065,511.807,250.51,512,256,512C397.385,512,512,397.385,512,256z"/>
<path style="fill:#2B9153;" d="M250.5,133.298c-0.212-42.275-20.521-53.058-21.386-53.496l0.149,0.071l7.973-17.246  c1.306,0.604,31.986,15.419,32.264,70.575L250.5,133.298z"/>
<path style="fill:#005D5E;" d="M256,80.709v52.561l13.5-0.068C269.375,108.26,263.032,91.569,256,80.709z"/>
<ellipse style="fill:#822D1A;" cx="346.33" cy="266.33" rx="97.66" ry="140.9"/>
<ellipse style="fill:#AE4E32;" cx="165.67" cy="266.33" rx="97.66" ry="140.9"/>
<path style="fill:#005D5E;" d="M344.179,83.439l-12.607-8.128l-9.618,14.919c-3.377-4.103-8.261-6.979-13.938-7.693  c-5.709-0.72-11.363,0.831-15.91,4.362c-3.344,2.596-5.787,6.041-7.137,9.95l-16.085,35.015l13.631,6.262l8.369-18.217  c3.251,2.949,7.308,4.844,11.753,5.403c0.909,0.114,1.812,0.17,2.705,0.17c7.559,0,14.408-3.997,18.268-10.176l0.018,0.012  L344.179,83.439z M304.508,110.429c-1.737-0.218-3.285-1.101-4.359-2.483c-1.073-1.383-1.545-3.102-1.326-4.839  c0.037-0.293,0.099-0.576,0.172-0.854l0.941-2.049c1.199-1.73,3.195-2.835,5.385-2.835c0.271,0,0.547,0.017,0.823,0.052  c3.587,0.451,6.138,3.736,5.687,7.322C311.381,108.329,308.097,110.881,304.508,110.429z"/>
<ellipse style="fill:#FF6838;" cx="256" cy="266.33" rx="107.83" ry="140.9"/>
<path style="fill:#AE4E32;" d="M256,125.432v281.803c59.554,0,107.833-63.083,107.833-140.901S315.554,125.432,256,125.432z"/>
<g>
</g>
<g>
</g>
<g>
</g>
<g>
</g>
<g>
</g>
<g>
</g>
<g>
</g>
<g>
</g>
<g>
</g>
<g>
</g>
<g>
</g>
<g>
</g>
<g>
</g>
<g>
</g>
<g>
</g>
</svg>
