<?xml version="1.0" encoding="iso-8859-1"?>
<!-- Generator: Adobe Illustrator 19.0.0, SVG Export Plug-In . SVG Version: 6.00 Build 0)  -->
<svg xmlns="http://www.w3.org/2000/svg" xmlns:xlink="http://www.w3.org/1999/xlink" version="1.1" id="Capa_1" x="0px" y="0px" viewBox="0 0 512 512" style="enable-background:new 0 0 512 512;" xml:space="preserve">
<circle style="fill:#2B9153;" cx="256" cy="256" r="256"/>
<path style="fill:#005D5E;" d="M510.907,279.597L292.669,61.359L139.795,370.134l47.644,47.644l-12.356,17.468l76.701,76.701  C253.188,511.969,254.59,512,256,512C389.427,512,498.994,409.918,510.907,279.597z"/>
<path style="fill:#E0E0E0;" d="M293.504,448.417h-16c0-21.675-13.333-49.111-21.504-49.111s-21.504,27.437-21.504,49.111h-16  c0-22.955,14.239-65.111,37.504-65.111S293.504,425.462,293.504,448.417z"/>
<path style="fill:#C0C0C0;" d="M256,383.306v16c8.171,0,21.504,27.437,21.504,49.111h16  C293.504,425.462,279.265,383.306,256,383.306z"/>
<path style="fill:#E0E0E0;" d="M336.917,435.246h-16c0-7-5.766-19.145-18.646-30.498c-7.887-6.952-24.387-18.614-46.271-18.614  s-38.383,11.662-46.271,18.614c-12.881,11.353-18.646,23.498-18.646,30.498h-16c0-25.712,36.25-65.111,80.917-65.111  C300.666,370.134,336.917,409.534,336.917,435.246z"/>
<path style="fill:#C0C0C0;" d="M256,370.134v16c21.884,0,38.384,11.662,46.271,18.614c12.881,11.353,18.646,23.498,18.646,30.498h16  C336.917,409.534,300.666,370.134,256,370.134z"/>
<path style="fill:#E0E0E0;" d="M281.289,336.306c0-27.757-49.939-150.369-21.074-150.369s125.603,122.612,125.603,150.369  s-23.4,50.258-52.264,50.258S281.289,364.062,281.289,336.306z"/>
<path style="fill:#C0C0C0;" d="M253.471,342.268c0-28.858-22.542-156.332,6.322-156.332S358,313.411,358,342.268  s-23.4,52.251-52.264,52.251S253.471,371.126,253.471,342.268z"/>
<path style="fill:#FFFFFF;" d="M230.711,336.306c0-27.757,49.939-150.369,21.074-150.369S126.182,308.549,126.182,336.306  s23.4,50.258,52.264,50.258S230.711,364.062,230.711,336.306z"/>
<path style="fill:#E0E0E0;" d="M258.529,342.268c0-28.858,22.542-156.332-6.322-156.332S154,313.411,154,342.268  s23.4,52.251,52.264,52.251S258.529,371.126,258.529,342.268z"/>
<path style="fill:#FFFFFF;" d="M203.736,342.308c0-28.865,23.4-156.371,52.264-156.371s52.264,127.507,52.264,156.371  c0,28.865-23.4,52.264-52.264,52.264S203.736,371.172,203.736,342.308z"/>
<path style="fill:#E0E0E0;" d="M256,185.937v208.635c28.865,0,52.264-23.399,52.264-52.264S284.865,185.937,256,185.937z"/>
<rect x="219.33" y="61.36" style="fill:#FFFFFF;" width="73.34" height="148.6"/>
<rect x="256" y="61.36" style="fill:#E0E0E0;" width="36.669" height="148.6"/>
<g>
</g>
<g>
</g>
<g>
</g>
<g>
</g>
<g>
</g>
<g>
</g>
<g>
</g>
<g>
</g>
<g>
</g>
<g>
</g>
<g>
</g>
<g>
</g>
<g>
</g>
<g>
</g>
<g>
</g>
</svg>
