<?xml version="1.0" encoding="iso-8859-1"?>
<!-- Generator: Adobe Illustrator 19.0.0, SVG Export Plug-In . SVG Version: 6.00 Build 0)  -->
<svg xmlns="http://www.w3.org/2000/svg" xmlns:xlink="http://www.w3.org/1999/xlink" version="1.1" id="Capa_1" x="0px" y="0px" viewBox="0 0 512 512" style="enable-background:new 0 0 512 512;" xml:space="preserve">
<circle style="fill:#FFB344;" cx="256" cy="256" r="256"/>
<path style="fill:#FF9451;" d="M511.638,269.629L336.505,94.496l-72.381,224.128l143.584,143.583  C467.538,418.116,507.494,348.621,511.638,269.629z"/>
<path style="fill:#B9EAFF;" d="M367.188,361.333H144.812V171.188C144.812,109.781,194.592,60,256,60l0,0  c61.408,0,111.188,49.781,111.188,111.188V361.333z"/>
<path style="fill:#35CCFF;" d="M367.188,171.188C367.188,109.781,317.408,60,256,60l0,0c-0.111,0-0.222,0.004-0.333,0.004v301.329  h111.522V171.188H367.188z"/>
<path style="fill:#2B9153;" d="M262.383,367V196.187l9.006,0.011c32.364,0.041,58.634-26.161,58.677-58.525l0.017-13.048  l-13.049-0.016c-24.846-0.031-52.482,15.405-61.035,37.221c-8.553-21.816-36.189-37.253-61.035-37.221l-13.049,0.016l0.017,13.048  c0.044,32.364,26.314,58.566,58.678,58.525l9.006-0.011V367H262.383z"/>
<path style="fill:#005D5E;" d="M317.035,124.608c-24.846-0.031-52.482,15.405-61.035,37.221c-0.104-0.265-0.224-0.525-0.333-0.788  V367h6.717V196.187l9.006,0.011c32.364,0.041,58.634-26.161,58.677-58.525l0.017-13.048L317.035,124.608z"/>
<path style="fill:#8C6239;" d="M21.142,358C60.555,448.625,150.871,512,256,512s195.445-63.375,234.858-154H21.142z"/>
<path style="fill:#754C24;" d="M255.667,358v153.997c0.111,0,0.222,0.003,0.333,0.003c105.129,0,195.445-63.375,234.858-154H255.667  z"/>
<g>
</g>
<g>
</g>
<g>
</g>
<g>
</g>
<g>
</g>
<g>
</g>
<g>
</g>
<g>
</g>
<g>
</g>
<g>
</g>
<g>
</g>
<g>
</g>
<g>
</g>
<g>
</g>
<g>
</g>
</svg>
