<?xml version="1.0" encoding="iso-8859-1"?>
<!-- Generator: Adobe Illustrator 19.0.0, SVG Export Plug-In . SVG Version: 6.00 Build 0)  -->
<svg xmlns="http://www.w3.org/2000/svg" xmlns:xlink="http://www.w3.org/1999/xlink" version="1.1" id="Capa_1" x="0px" y="0px" viewBox="0 0 512 512" style="enable-background:new 0 0 512 512;" xml:space="preserve">
<circle style="fill:#FFD863;" cx="256" cy="256" r="256"/>
<polygon style="fill:#FFB344;" points="328.726,225.286 403.347,299.907 428.428,299.588 482.253,353.413 103.667,395.333   82.333,339.764 221.667,241 "/>
<path style="fill:#8C6239;" d="M8.065,320C36.484,430.415,136.714,512,256,512s219.516-81.585,247.935-192H8.065z"/>
<path style="fill:#754C24;" d="M255.667,320v191.997c0.111,0,0.222,0.003,0.333,0.003c119.286,0,219.516-81.585,247.935-192H255.667  z"/>
<g>
	<rect x="140.91" y="345" style="fill:#A67C52;" width="42.37" height="14"/>
	<rect x="47" y="345" style="fill:#A67C52;" width="42.37" height="14"/>
</g>
<g>
	<rect x="422.63" y="345" style="fill:#8C6239;" width="42.37" height="14"/>
	<rect x="328.73" y="345" style="fill:#8C6239;" width="42.37" height="14"/>
</g>
<rect x="234.82" y="345" style="fill:#A67C52;" width="42.37" height="14"/>
<rect x="255.67" y="345" style="fill:#8C6239;" width="21.516" height="14"/>
<rect x="93.95" y="388.33" style="fill:#A67C52;" width="42.37" height="14"/>
<g>
	<rect x="375.68" y="388.33" style="fill:#8C6239;" width="42.37" height="14"/>
	<rect x="281.77" y="388.33" style="fill:#8C6239;" width="42.37" height="14"/>
</g>
<rect x="187.86" y="388.33" style="fill:#A67C52;" width="42.37" height="14"/>
<rect x="328.73" y="438" style="fill:#8C6239;" width="42.37" height="14"/>
<rect x="234.82" y="438" style="fill:#A67C52;" width="42.37" height="14"/>
<rect x="255.67" y="438" style="fill:#8C6239;" width="21.516" height="14"/>
<rect x="140.91" y="438" style="fill:#A67C52;" width="42.37" height="14"/>
<path style="fill:#FF6838;" d="M404,356c-53.047,0-80.244-33.814-100.104-58.503C285.7,274.874,276.063,264,256,264  s-29.7,10.874-47.896,33.497C188.244,322.186,161.047,356,108,356c-18.502,0-33.5-14.999-33.5-33.5S89.498,289,108,289  c20.063,0,29.7-10.874,47.896-33.497C175.756,230.814,202.953,197,256,197s80.244,33.814,100.104,58.503  C374.3,278.126,383.937,289,404,289c18.502,0,33.5,14.999,33.5,33.5S422.502,356,404,356z"/>
<path style="fill:#AE4E32;" d="M404,289c-20.063,0-29.7-10.874-47.896-33.497C336.244,230.814,309.047,197,256,197  c-0.113,0-0.221,0.006-0.333,0.007v66.999c0.112-0.001,0.22-0.006,0.333-0.006c20.063,0,29.7,10.874,47.896,33.497  C323.756,322.186,350.953,356,404,356c18.502,0,33.5-14.999,33.5-33.5S422.502,289,404,289z"/>
<circle style="fill:#590F38;" cx="98.95" cy="314" r="8"/>
<g>
</g>
<g>
</g>
<g>
</g>
<g>
</g>
<g>
</g>
<g>
</g>
<g>
</g>
<g>
</g>
<g>
</g>
<g>
</g>
<g>
</g>
<g>
</g>
<g>
</g>
<g>
</g>
<g>
</g>
</svg>
