<?xml version="1.0" encoding="iso-8859-1"?>
<!-- Generator: Adobe Illustrator 19.0.0, SVG Export Plug-In . SVG Version: 6.00 Build 0)  -->
<svg xmlns="http://www.w3.org/2000/svg" xmlns:xlink="http://www.w3.org/1999/xlink" version="1.1" id="Capa_1" x="0px" y="0px" viewBox="0 0 512 512" style="enable-background:new 0 0 512 512;" xml:space="preserve">
<circle style="fill:#008CC3;" cx="256" cy="256" r="256"/>
<path style="fill:#0074A3;" d="M512,256c0-4.769-0.141-9.504-0.399-14.209L404.779,134.969l-73.698,89.364L64.37,299.651  l25.299,24.895l0.76,4.37l182.722,182.499C406.536,502.589,512,391.62,512,256z"/>
<rect x="68.04" y="197.25" style="fill:#FFCF35;" width="282.62" height="102.34"/>
<rect x="255.67" y="197.25" style="fill:#FFB344;" width="94.99" height="102.34"/>
<polygon style="fill:#FFDC00;" points="427.606,203.508 396.906,141.633 318.928,141.633 318.928,299.651 442.023,299.651   442.023,203.508 "/>
<polygon style="fill:#35CCFF;" points="418.004,205.723 391.274,151.849 327.821,151.849 327.821,205.723 "/>
<rect x="415.31" y="234.85" style="fill:#FF6838;" width="26.713" height="27.13"/>
<rect x="64.37" y="272.52" style="fill:#FFB344;" width="383.26" height="27.13"/>
<g>
	<rect x="255.67" y="272.52" style="fill:#FF9451;" width="191.96" height="27.13"/>
	<rect x="315.54" y="134.97" style="fill:#FF9451;" width="89.24" height="10.947"/>
</g>
<circle style="fill:#1A1A1A;" cx="120.51" cy="299.65" r="41.968"/>
<circle style="fill:#808080;" cx="120.51" cy="299.65" r="20.886"/>
<circle cx="373.05" cy="299.65" r="41.968"/>
<circle style="fill:#666666;" cx="373.05" cy="299.65" r="20.886"/>
<g>
</g>
<g>
</g>
<g>
</g>
<g>
</g>
<g>
</g>
<g>
</g>
<g>
</g>
<g>
</g>
<g>
</g>
<g>
</g>
<g>
</g>
<g>
</g>
<g>
</g>
<g>
</g>
<g>
</g>
</svg>
