<?xml version="1.0" encoding="iso-8859-1"?>
<!-- Generator: Adobe Illustrator 19.0.0, SVG Export Plug-In . SVG Version: 6.00 Build 0)  -->
<svg xmlns="http://www.w3.org/2000/svg" xmlns:xlink="http://www.w3.org/1999/xlink" version="1.1" id="Capa_1" x="0px" y="0px" viewBox="0 0 512 512" style="enable-background:new 0 0 512 512;" xml:space="preserve">
<circle style="fill:#FFB344;" cx="256" cy="256" r="256"/>
<path style="fill:#FF9451;" d="M511.155,276.81L299.465,65.12l-86.93,30.827l49.759,49.759L245.5,338.5l-125.5,4L108.333,385  L234.42,511.086C241.536,511.68,248.73,512,256,512C390.378,512,500.562,408.46,511.155,276.81z"/>
<path style="fill:#754C24;" d="M256,348.936L256,348.936c-8.713,0-15.777-7.063-15.777-15.777V87.308  c0-8.713,7.063-15.777,15.777-15.777l0,0c8.713,0,15.777,7.063,15.777,15.777v245.851C271.777,341.873,264.713,348.936,256,348.936z  "/>
<g>
	<path style="fill:#603813;" d="M256,71.532L256,71.532c-0.113,0-0.221,0.014-0.333,0.017V348.92   c0.112,0.002,0.221,0.017,0.333,0.017c8.713,0,15.777-7.063,15.777-15.776V87.309C271.777,78.595,264.713,71.532,256,71.532z"/>
	<rect x="212.53" y="65.12" style="fill:#603813;" width="86.93" height="30.826"/>
</g>
<rect x="255.67" y="65.12" style="fill:#42210B;" width="43.798" height="30.827"/>
<polygon style="fill:#FFFFFF;" points="403.667,323 108.333,323 108.333,385 129.667,385 129.667,355 154,355 154,385 175.333,385   175.333,355 199.667,355 199.667,385 221,385 221,355 245.333,355 245.333,385 266.667,385 266.667,355 291,355 291,385   312.333,385 312.333,355 336.667,355 336.667,385 358,385 358,355 382.333,355 382.333,385 403.667,385 "/>
<polygon style="fill:#E0E0E0;" points="403.667,385 403.667,323 255.667,323 255.667,385 266.667,385 266.667,355 291,355 291,385   312.333,385 312.333,355 336.667,355 336.667,385 358,385 358,355 382.333,355 382.333,385 "/>
<g>
</g>
<g>
</g>
<g>
</g>
<g>
</g>
<g>
</g>
<g>
</g>
<g>
</g>
<g>
</g>
<g>
</g>
<g>
</g>
<g>
</g>
<g>
</g>
<g>
</g>
<g>
</g>
<g>
</g>
</svg>
