<?xml version="1.0" encoding="iso-8859-1"?>
<!-- Generator: Adobe Illustrator 19.0.0, SVG Export Plug-In . SVG Version: 6.00 Build 0)  -->
<svg xmlns="http://www.w3.org/2000/svg" xmlns:xlink="http://www.w3.org/1999/xlink" version="1.1" id="Capa_1" x="0px" y="0px" viewBox="0 0 512 512" style="enable-background:new 0 0 512 512;" xml:space="preserve">
<circle style="fill:#175D76;" cx="256" cy="256" r="256"/>
<path style="fill:#00263F;" d="M511.843,264.537L322,74.694l-13.176,35.51L256,57.379l9.769,93.083L190,74.694l55.87,205.176  L256,456.621l50.406,50.406C420.95,484.152,507.899,384.849,511.843,264.537z"/>
<path style="fill:#60C344;" d="M257.614,241.917l-0.731-47.631c-0.146-9.483,2.384-18.776,7.229-26.564L322,74.694l-20.642,110.928  c-1.728,9.286-6.028,17.728-12.29,24.132L257.614,241.917z"/>
<path style="fill:#97CC52;" d="M254.386,241.917l0.731-47.631c0.146-9.483-2.384-18.776-7.229-26.564L190,74.694l20.642,110.928  c1.728,9.286,6.028,17.728,12.29,24.132L254.386,241.917z"/>
<path style="fill:#60C344;" d="M256,239.415l-17.518-43.431c-3.488-8.647-4.451-18.3-2.754-27.593L256,57.379l20.272,111.012  c1.697,9.293,0.733,18.946-2.754,27.593L256,239.415z"/>
<path style="fill:#47AB4B;" d="M276.272,168.392L256,57.379l0,0v182.035l0,0l17.518-43.43  C277.005,187.338,277.969,177.684,276.272,168.392z"/>
<path style="fill:#FFB344;" d="M256,456.621l-38.932-217.865c-3.141-23.546,15.177-44.47,38.932-44.47l0,0  c23.755,0,42.073,20.924,38.932,44.47L256,456.621z"/>
<g>
	<path style="fill:#FF9451;" d="M256,194.286L256,194.286c-0.112,0-0.221,0.008,0,0.836V455.58v1.04l38.932-217.865   C298.073,215.209,279.755,194.286,256,194.286z"/>
	<polygon style="fill:#FF9451;" points="218.146,244.787 220.197,256.265 250.261,256.265 250.261,244.787  "/>
</g>
<polygon style="fill:#F7674F;" points="257.008,260.569 257.008,272.048 288.983,272.048 291.034,260.569 "/>
<polygon style="fill:#FF9451;" points="230.51,313.975 232.561,325.453 254.992,325.453 254.992,313.975 "/>
<polygon style="fill:#F7674F;" points="261.739,347.931 261.739,359.41 273.372,359.41 275.423,347.931 "/>
<g>
</g>
<g>
</g>
<g>
</g>
<g>
</g>
<g>
</g>
<g>
</g>
<g>
</g>
<g>
</g>
<g>
</g>
<g>
</g>
<g>
</g>
<g>
</g>
<g>
</g>
<g>
</g>
<g>
</g>
</svg>
