<?xml version="1.0" encoding="iso-8859-1"?>
<!-- Generator: Adobe Illustrator 19.0.0, SVG Export Plug-In . SVG Version: 6.00 Build 0)  -->
<svg xmlns="http://www.w3.org/2000/svg" xmlns:xlink="http://www.w3.org/1999/xlink" version="1.1" id="Capa_1" x="0px" y="0px" viewBox="0 0 512 512" style="enable-background:new 0 0 512 512;" xml:space="preserve">
<circle style="fill:#FFCF35;" cx="256" cy="256" r="256"/>
<path style="fill:#FFB344;" d="M279.638,510.903C409.939,498.972,512,389.414,512,256c0-27.556-4.372-54.087-12.429-78.959  L499.53,177H12.47l43.404,43.404L1.129,234.75L279.638,510.903z"/>
<g>
	<path style="fill:#008CC3;" d="M423.089,292.853c0-6.509,11.786-19.741,11.786-19.741s11.786,13.232,11.786,19.741   s-5.277,11.786-11.786,11.786S423.089,299.362,423.089,292.853z"/>
	<path style="fill:#008CC3;" d="M333.589,292.728c0-6.509,11.786-19.741,11.786-19.741s11.786,13.232,11.786,19.741   s-5.277,11.786-11.786,11.786S333.589,299.237,333.589,292.728z"/>
</g>
<path style="fill:#00BAFF;" d="M244.214,292.728c0-6.509,11.786-19.741,11.786-19.741s11.786,13.232,11.786,19.741  s-5.277,11.786-11.786,11.786S244.214,299.237,244.214,292.728z"/>
<path style="fill:#008CC3;" d="M256,304.514c6.509,0,11.786-5.277,11.786-11.786S256,272.987,256,272.987V304.514z"/>
<g>
	<path style="fill:#00BAFF;" d="M154.839,292.728c0-6.509,11.786-19.741,11.786-19.741s11.786,13.232,11.786,19.741   s-5.277,11.786-11.786,11.786S154.839,299.237,154.839,292.728z"/>
	<path style="fill:#00BAFF;" d="M65.464,292.728c0-6.509,11.786-19.741,11.786-19.741s11.786,13.232,11.786,19.741   s-5.277,11.786-11.786,11.786S65.464,299.237,65.464,292.728z"/>
</g>
<rect x="62.75" y="219" style="fill:#0074A3;" width="29" height="31.5"/>
<rect x="420.25" y="219" style="fill:#005C83;" width="29" height="31.5"/>
<g>
	<rect x="152.12" y="219" style="fill:#0074A3;" width="29" height="31.5"/>
	<rect x="241.5" y="219" style="fill:#0074A3;" width="29" height="31.5"/>
</g>
<g>
	<rect x="255.67" y="219" style="fill:#005C83;" width="14.833" height="31.5"/>
	<rect x="330.87" y="219" style="fill:#005C83;" width="29" height="31.5"/>
</g>
<path style="fill:#00BAFF;" d="M25.787,144c-5.17,10.611-9.632,21.63-13.317,33h487.06c-3.685-11.37-8.147-22.389-13.317-33H25.787z  "/>
<g>
	<path style="fill:#008CC3;" d="M486.213,144H255.667v33H499.53C495.845,165.63,491.383,154.611,486.213,144z"/>
	<path style="fill:#008CC3;" d="M8.159,196.75c-3.07,12.339-5.26,25.026-6.466,38h509.743c-1.207-12.974-3.397-25.661-6.466-38   H8.159z"/>
</g>
<path style="fill:#0074A3;" d="M504.97,196.75H255.667v38h255.769C510.229,221.776,508.039,209.089,504.97,196.75z"/>
<path style="fill:#8C6239;" d="M8.065,320C36.484,430.415,136.714,512,256,512s219.516-81.585,247.935-192H8.065z"/>
<path style="fill:#754C24;" d="M255.667,320v191.997c0.111,0,0.222,0.003,0.333,0.003c119.286,0,219.516-81.585,247.935-192H255.667  z"/>
<g>
	<rect x="140.91" y="345" style="fill:#A67C52;" width="42.37" height="14"/>
	<rect x="47" y="345" style="fill:#A67C52;" width="42.37" height="14"/>
</g>
<g>
	<rect x="422.63" y="345" style="fill:#8C6239;" width="42.37" height="14"/>
	<rect x="328.73" y="345" style="fill:#8C6239;" width="42.37" height="14"/>
</g>
<rect x="234.82" y="345" style="fill:#A67C52;" width="42.37" height="14"/>
<rect x="255.67" y="345" style="fill:#8C6239;" width="21.516" height="14"/>
<rect x="93.95" y="388.33" style="fill:#A67C52;" width="42.37" height="14"/>
<g>
	<rect x="375.68" y="388.33" style="fill:#8C6239;" width="42.37" height="14"/>
	<rect x="281.77" y="388.33" style="fill:#8C6239;" width="42.37" height="14"/>
</g>
<rect x="187.86" y="388.33" style="fill:#A67C52;" width="42.37" height="14"/>
<rect x="328.73" y="438" style="fill:#8C6239;" width="42.37" height="14"/>
<rect x="234.82" y="438" style="fill:#A67C52;" width="42.37" height="14"/>
<rect x="255.67" y="438" style="fill:#8C6239;" width="21.516" height="14"/>
<rect x="140.91" y="438" style="fill:#A67C52;" width="42.37" height="14"/>
<g>
</g>
<g>
</g>
<g>
</g>
<g>
</g>
<g>
</g>
<g>
</g>
<g>
</g>
<g>
</g>
<g>
</g>
<g>
</g>
<g>
</g>
<g>
</g>
<g>
</g>
<g>
</g>
<g>
</g>
</svg>
