<?xml version="1.0" encoding="iso-8859-1"?>
<!-- Generator: Adobe Illustrator 19.0.0, SVG Export Plug-In . SVG Version: 6.00 Build 0)  -->
<svg xmlns="http://www.w3.org/2000/svg" xmlns:xlink="http://www.w3.org/1999/xlink" version="1.1" id="Capa_1" x="0px" y="0px" viewBox="0 0 512 512" style="enable-background:new 0 0 512 512;" xml:space="preserve">
<circle style="fill:#662E57;" cx="256" cy="256" r="256"/>
<path style="fill:#590F38;" d="M512,256c0-5-0.159-9.962-0.442-14.891L365.266,94.817L146.734,417.183l94.375,94.375  C246.038,511.841,251,512,256,512C397.385,512,512,397.385,512,256z"/>
<path style="fill:#FFCF35;" d="M365.266,417.183c-72.844,0-145.688,0-218.533,0c-34.038-104.759-34.038-217.607,0-322.366  c72.844,0,145.688,0,218.533,0C399.305,199.576,399.305,312.424,365.266,417.183z"/>
<g>
	<path style="fill:#FFB344;" d="M365.266,94.817c-36.533,0-73.066,0-109.6,0v322.366c36.533,0,73.066,0,109.6,0   C399.305,312.424,399.305,199.576,365.266,94.817z"/>
	<path style="fill:#FFB344;" d="M323.821,417.183c-45.214,0-90.428,0-135.642,0c-21.127-104.759-21.127-217.607,0-322.366   c45.214,0,90.428,0,135.642,0C344.949,199.576,344.949,312.424,323.821,417.183z"/>
</g>
<path style="fill:#FF9451;" d="M323.821,94.817c-22.718,0-45.436,0-68.154,0v322.366c22.718,0,45.436,0,68.154,0  C344.948,312.424,344.948,199.576,323.821,94.817z"/>
<path style="fill:#FFCF35;" d="M276.806,417.183c-13.87,0-27.741,0-41.611,0c-6.481-104.759-6.481-217.607,0-322.366  c13.87,0,27.741,0,41.611,0C283.287,199.576,283.287,312.424,276.806,417.183z"/>
<path style="fill:#FFB344;" d="M276.806,94.817c-7.046,0-14.093,0-21.139,0v322.366c7.046,0,14.093,0,21.139,0  C283.287,312.424,283.287,199.576,276.806,94.817z"/>
<path style="fill:#FF9451;" d="M125.934,186h260.133c-2.18-16.096-5.127-32.112-8.817-48H134.751  C131.061,153.888,128.113,169.904,125.934,186z"/>
<path style="fill:#F7674F;" d="M377.249,138H255.667v48h130.4C383.887,169.904,380.939,153.888,377.249,138z"/>
<path style="fill:#FF9451;" d="M134.751,374h242.498c3.69-15.888,6.637-31.904,8.817-48H125.934  C128.113,342.096,131.061,358.112,134.751,374z"/>
<path style="fill:#F7674F;" d="M386.066,326h-130.4v48h121.583C380.939,358.112,383.887,342.096,386.066,326z"/>
<g>
</g>
<g>
</g>
<g>
</g>
<g>
</g>
<g>
</g>
<g>
</g>
<g>
</g>
<g>
</g>
<g>
</g>
<g>
</g>
<g>
</g>
<g>
</g>
<g>
</g>
<g>
</g>
<g>
</g>
</svg>
