<?xml version="1.0" encoding="iso-8859-1"?>
<!-- Generator: Adobe Illustrator 19.0.0, SVG Export Plug-In . SVG Version: 6.00 Build 0)  -->
<svg xmlns="http://www.w3.org/2000/svg" xmlns:xlink="http://www.w3.org/1999/xlink" version="1.1" id="Capa_1" x="0px" y="0px" viewBox="0 0 512 512" style="enable-background:new 0 0 512 512;" xml:space="preserve">
<circle style="fill:#FFDC00;" cx="256" cy="256" r="256"/>
<path style="fill:#FFC000;" d="M180.431,422.605l89.043,89.043c121.264-6.289,220.187-96.964,239.205-214.423L316.676,104.751  l-5.78-4.158L271.14,60.781l-8.807,41.582l-74.124,52.255l34.42,34.42l-17.21,142.629L180.431,422.605z"/>
<path style="fill:#662E57;" d="M330.137,248.22c-7.439-6.231-11.63-15.517-11.63-25.221V160.69  c0-34.337-27.836-62.173-62.173-62.173l0,0c-34.337,0-62.173,27.836-62.173,62.173v62.312c0,9.823-4.381,19.108-11.892,25.437  c-24.846,20.939-40.699,52.209-40.932,87.191c-0.42,62.876,50.488,114.897,113.359,115.772  c64.263,0.894,116.638-50.931,116.638-114.989C371.333,300.994,355.319,269.315,330.137,248.22z"/>
<path style="fill:#590F38;" d="M330.137,248.22c-7.439-6.231-11.63-15.517-11.63-25.221V160.69  c0-34.337-27.836-62.173-62.173-62.173v352.888c63.512-0.001,115-51.479,115-114.991  C371.333,300.994,355.319,269.315,330.137,248.22z"/>
<path style="fill:#60C344;" d="M296.336,96.049H271.14V60.781h-28.956v35.268H216.33c-15.531,0-28.121,12.59-28.121,28.121v30.448  h30.448c3.57,0,6.982-0.672,10.125-1.886c1.37,3.556,3.482,6.892,6.35,9.761l21.53,21.53l21.53-21.53  c2.809-2.809,4.895-6.067,6.267-9.541c2.982,1.077,6.197,1.666,9.55,1.666h30.448V124.17  C324.457,108.639,311.867,96.049,296.336,96.049z"/>
<path style="fill:#47AB4B;" d="M296.336,96.049H271.14V60.781h-14.807v122.913l0.329,0.329l21.53-21.53  c2.809-2.809,4.896-6.067,6.267-9.541c2.982,1.077,6.197,1.666,9.55,1.666h30.448V124.17  C324.457,108.639,311.867,96.049,296.336,96.049z"/>
<g>
</g>
<g>
</g>
<g>
</g>
<g>
</g>
<g>
</g>
<g>
</g>
<g>
</g>
<g>
</g>
<g>
</g>
<g>
</g>
<g>
</g>
<g>
</g>
<g>
</g>
<g>
</g>
<g>
</g>
</svg>
