<?xml version="1.0" encoding="iso-8859-1"?>
<!-- Generator: Adobe Illustrator 19.0.0, SVG Export Plug-In . SVG Version: 6.00 Build 0)  -->
<svg xmlns="http://www.w3.org/2000/svg" xmlns:xlink="http://www.w3.org/1999/xlink" version="1.1" id="Capa_1" x="0px" y="0px" viewBox="0 0 512 512" style="enable-background:new 0 0 512 512;" xml:space="preserve">
<circle style="fill:#B9EAFF;" cx="256" cy="256" r="256"/>
<path style="fill:#35CCFF;" d="M512,256c0-2.211-0.028-4.416-0.084-6.613L345.529,83L189.612,288.614L166.471,429l82.916,82.916  c2.198,0.056,4.402,0.084,6.613,0.084C397.385,512,512,397.385,512,256z"/>
<path style="fill:#FFB344;" d="M289.144,390.129l36.398-71.736c23.384-46.086,61.648-46.084,85.032,0.005l36.397,71.738  L289.144,390.129z"/>
<path style="fill:#FF9451;" d="M262,390.132l30.248-59.615c19.432-38.3,51.231-38.298,70.664,0.003l30.247,59.616L262,390.132z"/>
<polygon style="fill:#FF6838;" points="345.529,83 166.471,83 166.471,345.5 220.981,382.923 220.981,410.923 291.019,410.923   291.019,382.923 345.529,345.5 "/>
<g>
	<polygon style="fill:#AE4E32;" points="255.667,83 255.667,410.923 291.019,410.923 291.019,382.923 345.529,345.5 345.529,83  "/>
	<path style="fill:#AE4E32;" d="M331.673,83v40.5H180.327V83h-13.856v346h13.856V329h151.346v100h13.856V83H331.673z M180.327,309   V143.5h151.346V309H180.327z"/>
</g>
<polygon style="fill:#893420;" points="331.673,83 331.673,123.5 255.667,123.5 255.667,143.5 331.673,143.5 331.673,309   255.667,309 255.667,329 331.673,329 331.673,429 345.529,429 345.529,83 "/>
<g>
</g>
<g>
</g>
<g>
</g>
<g>
</g>
<g>
</g>
<g>
</g>
<g>
</g>
<g>
</g>
<g>
</g>
<g>
</g>
<g>
</g>
<g>
</g>
<g>
</g>
<g>
</g>
<g>
</g>
</svg>
