<?xml version="1.0" encoding="iso-8859-1"?>
<!-- Generator: Adobe Illustrator 19.0.0, SVG Export Plug-In . SVG Version: 6.00 Build 0)  -->
<svg xmlns="http://www.w3.org/2000/svg" xmlns:xlink="http://www.w3.org/1999/xlink" version="1.1" id="Capa_1" x="0px" y="0px" viewBox="0 0 512 512" style="enable-background:new 0 0 512 512;" xml:space="preserve">
<circle style="fill:#008CC3;" cx="256" cy="256" r="256"/>
<path style="fill:#0074A3;" d="M329.226,77.656L250.5,160.758l-111.243-11.369l292.618,292.618  c48.351-45.733,78.869-110.112,80.069-181.632L329.226,77.656z"/>
<path style="fill:#FFB344;" d="M71.522,308.079l85.089-167.712c54.665-107.745,144.117-107.747,198.782-0.002l85.087,167.704  L71.522,308.079z"/>
<path style="fill:#FF9451;" d="M355.393,140.365c-27.417-54.039-63.586-80.968-99.727-80.799v248.509l184.813-0.005L355.393,140.365  z"/>
<path style="fill:#FFD863;" d="M3.504,298.333C23.682,419.57,129.038,512,256,512s232.318-92.43,252.496-213.667H3.504z"/>
<g>
	<path style="fill:#FFCF35;" d="M255.667,298.333v213.663c0.111,0,0.222,0.004,0.333,0.004c126.962,0,232.318-92.43,252.496-213.667   H255.667z"/>
	
		<rect x="365.182" y="169.932" transform="matrix(-0.6909 -0.723 0.723 -0.6909 496.5307 593.663)" style="fill:#FFCF35;" width="20.001" height="41.495"/>
	
		<rect x="281.433" y="149.977" transform="matrix(-0.6909 -0.723 0.723 -0.6909 369.3483 499.3737)" style="fill:#FFCF35;" width="20.001" height="41.495"/>
</g>
<g>
	
		<rect x="213.193" y="175.324" transform="matrix(-0.574 -0.8188 0.8188 -0.574 190.762 491.375)" style="fill:#FFD863;" width="19.998" height="41.488"/>
	
		<rect x="141.509" y="138.27" transform="matrix(-0.9206 -0.3904 0.3904 -0.9206 253.7468 348.1196)" style="fill:#FFD863;" width="41.492" height="19.999"/>
</g>
<rect x="327.701" y="245.982" transform="matrix(-0.9206 -0.3904 0.3904 -0.9206 569.3025 627.6873)" style="fill:#FFCF35;" width="41.493" height="19.999"/>
<rect x="94.787" y="221.273" transform="matrix(-0.5165 -0.8563 0.8563 -0.5165 -22.8288 449.6566)" style="fill:#FFD863;" width="41.495" height="20"/>
<rect x="306.79" y="76.295" transform="matrix(-0.9926 -0.1214 0.1214 -0.9926 619.4604 231.75)" style="fill:#FFCF35;" width="20" height="41.42"/>
<rect x="208.785" y="104.765" transform="matrix(-0.5165 -0.8563 0.8563 -0.5165 249.8122 370.5869)" style="fill:#FFD863;" width="41.495" height="20"/>
<g>
</g>
<g>
</g>
<g>
</g>
<g>
</g>
<g>
</g>
<g>
</g>
<g>
</g>
<g>
</g>
<g>
</g>
<g>
</g>
<g>
</g>
<g>
</g>
<g>
</g>
<g>
</g>
<g>
</g>
</svg>
