<?xml version="1.0" encoding="iso-8859-1"?>
<!-- Generator: Adobe Illustrator 19.0.0, SVG Export Plug-In . SVG Version: 6.00 Build 0)  -->
<svg xmlns="http://www.w3.org/2000/svg" xmlns:xlink="http://www.w3.org/1999/xlink" version="1.1" id="Capa_1" x="0px" y="0px" viewBox="0 0 512.001 512.001" style="enable-background:new 0 0 512.001 512.001;" xml:space="preserve">
<circle style="fill:#B9EAFF;" cx="256.001" cy="256" r="256"/>
<path style="fill:#35CCFF;" d="M150.306,205.88l-78.135,78.135l224.72,224.72C418.837,489.157,512,383.466,512,256  c0-7.424-0.334-14.768-0.954-22.032L398.286,121.207l-42.063,28.1l-80.71-80.71l-19.512,69.108l51.263,50.927l-29.409,10.299  l-59.104-59.104l-100.668,24.11l67.358,67.358l-3.44,1.205l12.667,12.667v5.074L150.306,205.88z"/>
<path style="fill:#97CC52;" d="M3.726,299.667C24.451,420.248,129.504,512,256.001,512s231.55-91.752,252.275-212.333H3.726z"/>
<path style="fill:#60C344;" d="M255.668,299.667v212.33c0.111,0,0.222,0.004,0.333,0.004c126.497,0,231.55-91.752,252.275-212.333  H255.668V299.667z"/>
<rect x="194.671" y="185" style="fill:#175D76;" width="122.67" height="193.03"/>
<rect x="255.671" y="185" style="fill:#00263F;" width="61.67" height="193.03"/>
<rect x="182.001" y="170" style="fill:#4B7689;" width="148" height="62.5"/>
<rect x="255.671" y="170" style="fill:#175D76;" width="74.33" height="62.5"/>
<path style="fill:#00BAFF;" d="M280.586,83.546c0,13.578-24.585,54.158-24.585,54.158s-24.586-40.581-24.586-54.159  s11.008-24.584,24.586-24.584S280.586,69.968,280.586,83.546z"/>
<path style="fill:#008CC3;" d="M256.001,137.705c0,0,24.585-40.581,24.585-54.158s-11.007-24.586-24.585-24.586V137.705z"/>
<path style="fill:#00BAFF;" d="M72.171,235.225c13.473-13.473,78.135-29.345,78.135-29.345s-15.872,64.662-29.345,78.136  s-35.317,13.473-48.79,0C58.698,270.542,58.698,248.698,72.171,235.225z"/>
<path style="fill:#008CC3;" d="M439.831,235.225c-13.473-13.473-78.135-29.345-78.135-29.345s15.872,64.662,29.345,78.136  s35.317,13.473,48.79,0C453.304,270.542,453.304,248.698,439.831,235.225z"/>
<path style="fill:#00BAFF;" d="M142.752,105.328c19.054,0,75.999,34.499,75.999,34.499s-56.946,34.5-76,34.501  c-19.054,0-34.5-15.446-34.5-34.499S123.698,105.328,142.752,105.328z"/>
<path style="fill:#008CC3;" d="M369.25,105.328c-19.054,0-75.999,34.499-75.999,34.499s56.946,34.5,76,34.501  c19.054,0,34.5-15.446,34.5-34.499S388.304,105.328,369.25,105.328z"/>
<g>
</g>
<g>
</g>
<g>
</g>
<g>
</g>
<g>
</g>
<g>
</g>
<g>
</g>
<g>
</g>
<g>
</g>
<g>
</g>
<g>
</g>
<g>
</g>
<g>
</g>
<g>
</g>
<g>
</g>
</svg>
