<?xml version="1.0" encoding="iso-8859-1"?>
<!-- Generator: Adobe Illustrator 19.0.0, SVG Export Plug-In . SVG Version: 6.00 Build 0)  -->
<svg xmlns="http://www.w3.org/2000/svg" xmlns:xlink="http://www.w3.org/1999/xlink" version="1.1" id="Capa_1" x="0px" y="0px" viewBox="0 0 512 512" style="enable-background:new 0 0 512 512;" xml:space="preserve">
<circle style="fill:#35CCFF;" cx="256" cy="256" r="256"/>
<path style="fill:#00BAFF;" d="M266.518,511.768C403.023,506.249,512,393.86,512,256c0-1.287-0.03-2.567-0.049-3.85L432.5,172.699  l-35.845,38.571l-38.572-38.571l-31.476,42.94l-42.941-42.94l-26.082,47.731l-0.566,0.037l-47.769-47.769l-18.051,52.104  l-3.998,0.263l-52.368-52.368l-22.192,57.279L66.75,233l59.079,59.079L66.75,312L266.518,511.768z"/>
<rect x="66.75" y="205" style="fill:#FFECB3;" width="378.5" height="28"/>
<rect x="255.67" y="205" style="fill:#FFD863;" width="189.58" height="28"/>
<rect x="66.75" y="284" style="fill:#FFECB3;" width="378.5" height="28"/>
<rect x="255.67" y="284" style="fill:#FFD863;" width="189.58" height="28"/>
<g>
	<polygon style="fill:#FFCF35;" points="134.833,378.032 79.5,378.032 79.5,172.699 107.167,145.968 134.833,172.699  "/>
	<polygon style="fill:#FFCF35;" points="209.25,378.032 153.917,378.032 153.917,172.699 181.583,145.968 209.25,172.699  "/>
	<polygon style="fill:#FFCF35;" points="283.667,378.032 228.333,378.032 228.333,172.699 255.667,145.968 283.667,172.699  "/>
</g>
<g>
	<polygon style="fill:#FFB344;" points="255.667,378.032 283.667,378.032 283.667,172.699 255.667,145.968  "/>
	<polygon style="fill:#FFB344;" points="358.083,378.032 302.75,378.032 302.75,172.699 330.417,145.968 358.083,172.699  "/>
	<polygon style="fill:#FFB344;" points="432.5,378.032 377.167,378.032 377.167,172.699 404.833,145.968 432.5,172.699  "/>
</g>
<path style="fill:#2B9153;" d="M28.247,373C70.735,455.542,156.772,512,256,512s185.265-56.458,227.753-139H28.247z"/>
<path style="fill:#005D5E;" d="M255.667,373v138.997c0.111,0,0.222,0.003,0.333,0.003c99.228,0,185.265-56.458,227.753-139H255.667z  "/>
<g>
</g>
<g>
</g>
<g>
</g>
<g>
</g>
<g>
</g>
<g>
</g>
<g>
</g>
<g>
</g>
<g>
</g>
<g>
</g>
<g>
</g>
<g>
</g>
<g>
</g>
<g>
</g>
<g>
</g>
</svg>
