<?xml version="1.0" encoding="iso-8859-1"?>
<!-- Generator: Adobe Illustrator 19.0.0, SVG Export Plug-In . SVG Version: 6.00 Build 0)  -->
<svg xmlns="http://www.w3.org/2000/svg" xmlns:xlink="http://www.w3.org/1999/xlink" version="1.1" id="Capa_1" x="0px" y="0px" viewBox="0 0 512 512" style="enable-background:new 0 0 512 512;" xml:space="preserve">
<circle style="fill:#005C83;" cx="256" cy="256" r="256"/>
<path style="fill:#00263F;" d="M511.378,273.729L303,65.351l-94,35.333l72.706,72.706L169.942,432.333l79.585,79.585  c2.151,0.053,4.309,0.082,6.473,0.082C391.424,512,502.27,406.841,511.378,273.729z"/>
<path style="fill:#FFFFFF;" d="M342.058,432.333H169.941V213.488c0-31.818,10.872-62.681,30.814-87.474l26.558-33.018h57.372  l26.558,33.018c19.942,24.793,30.814,55.656,30.814,87.474L342.058,432.333z"/>
<path style="fill:#E0E0E0;" d="M342.058,213.489c0-31.818-10.872-62.681-30.814-87.475l-26.558-33.018h-29.019v339.337h86.392  V213.489H342.058z"/>
<path style="fill:#B9EAFF;" d="M236,260c-12-2-23,3-34,7c-6.608,2.782-13.344,5.277-20.168,7.546V416.58l148.337,0.001V262.069  c-3.819,2.446-7.844,4.489-12.169,5.93C290,277,264,263,236,260z"/>
<path style="fill:#35CCFF;" d="M330.169,262.07c-3.819,2.446-7.844,4.489-12.169,5.93c-21.349,6.862-41.536,0.355-62.333-4.454  v153.035l74.502,0.001V262.07z"/>
<rect x="209" y="65.35" style="fill:#E0E0E0;" width="94" height="35.33"/>
<rect x="255.67" y="65.35" style="fill:#C0C0C0;" width="47.33" height="35.33"/>
<g>
</g>
<g>
</g>
<g>
</g>
<g>
</g>
<g>
</g>
<g>
</g>
<g>
</g>
<g>
</g>
<g>
</g>
<g>
</g>
<g>
</g>
<g>
</g>
<g>
</g>
<g>
</g>
<g>
</g>
</svg>
