<?xml version="1.0" encoding="iso-8859-1"?>
<!-- Generator: Adobe Illustrator 19.0.0, SVG Export Plug-In . SVG Version: 6.00 Build 0)  -->
<svg xmlns="http://www.w3.org/2000/svg" xmlns:xlink="http://www.w3.org/1999/xlink" version="1.1" id="Capa_1" x="0px" y="0px" viewBox="0 0 512 512" style="enable-background:new 0 0 512 512;" xml:space="preserve">
<circle style="fill:#B9EAFF;" cx="256" cy="256" r="256"/>
<path style="fill:#35CCFF;" d="M301.987,507.873C421.424,486.208,512,381.685,512,256c0-3.337-0.084-6.655-0.211-9.961L405.75,140  l-22.201,16.485L304.063,77L112.095,317.981L301.987,507.873z"/>
<rect x="201" y="302.5" style="fill:#F48040;" width="110" height="141.5"/>
<rect x="255.67" y="302.5" style="fill:#BC5826;" width="55.33" height="141.5"/>
<path style="fill:#60C344;" d="M344.25,342c42.25,0,76.5-34.25,76.5-76.5c0-14.665-4.133-28.361-11.288-40  c7.155-11.639,11.288-25.335,11.288-40c0-42.25-34.25-76.5-76.5-76.5c-5.564,0-10.983,0.609-16.209,1.737  C317.464,81.165,289.208,60,256,60s-61.464,21.165-72.041,50.737c-5.226-1.128-10.646-1.737-16.209-1.737  c-42.25,0-76.5,34.25-76.5,76.5c0,14.665,4.133,28.361,11.288,40c-7.155,11.639-11.288,25.335-11.288,40  c0,42.25,34.25,76.5,76.5,76.5H344.25z"/>
<path style="fill:#47AB4B;" d="M420.75,185.5c0-42.25-34.25-76.5-76.5-76.5c-5.564,0-10.983,0.609-16.209,1.737  C317.464,81.165,289.208,60,256,60c-0.112,0-0.222,0.006-0.333,0.007V342h88.583c42.25,0,76.5-34.25,76.5-76.5  c0-14.665-4.133-28.361-11.288-40C416.617,213.861,420.75,200.165,420.75,185.5z"/>
<g>
	<circle style="fill:#F1333F;" cx="157.5" cy="279.17" r="17.17"/>
	<circle style="fill:#F1333F;" cx="183.83" cy="176.5" r="17.17"/>
</g>
<g>
	<circle style="fill:#AE283F;" cx="284.5" cy="289.33" r="17.17"/>
	<circle style="fill:#AE283F;" cx="361.83" cy="222" r="17.17"/>
	<circle style="fill:#AE283F;" cx="301.67" cy="140" r="17.17"/>
</g>
<path style="fill:#60C344;" d="M256,512c82.216,0,155.375-38.759,202.212-99H53.788C100.625,473.241,173.784,512,256,512z"/>
<path style="fill:#47AB4B;" d="M255.667,413v98.998c0.111,0,0.222,0.002,0.333,0.002c82.216,0,155.375-38.759,202.212-99H255.667z"/>
<g>
</g>
<g>
</g>
<g>
</g>
<g>
</g>
<g>
</g>
<g>
</g>
<g>
</g>
<g>
</g>
<g>
</g>
<g>
</g>
<g>
</g>
<g>
</g>
<g>
</g>
<g>
</g>
<g>
</g>
</svg>
