<?xml version="1.0" encoding="iso-8859-1"?>
<!-- Generator: Adobe Illustrator 19.0.0, SVG Export Plug-In . SVG Version: 6.00 Build 0)  -->
<svg xmlns="http://www.w3.org/2000/svg" xmlns:xlink="http://www.w3.org/1999/xlink" version="1.1" id="Capa_1" x="0px" y="0px" viewBox="0 0 512 512" style="enable-background:new 0 0 512 512;" xml:space="preserve">
<circle style="fill:#005C83;" cx="256" cy="256" r="256"/>
<path style="fill:#00263F;" d="M262.659,511.915C400.966,508.383,512,395.159,512,256c0-7.302-0.323-14.527-0.922-21.674  L383.553,106.802L333.97,243.718L213.382,123.13l-96.829,45.539l60.293,60.293l-20.211,176.929L262.659,511.915z"/>
<path style="fill:#E0E0E0;" d="M256,451.072c-38.102,0-74.319-16.468-99.365-45.182c-25.045-28.713-36.442-66.831-31.267-104.58  l17.489-127.585l-26.304-5.057l11.894-61.867l84.936,16.328l-25.599,186.737c-2.702,19.712,3.249,39.617,16.328,54.611  c13.079,14.994,31.992,23.594,51.889,23.594s38.81-8.6,51.889-23.594s19.03-34.899,16.328-54.611l-25.6-186.736l84.936-16.328  l11.894,61.867l-26.304,5.057l17.489,127.585c5.175,37.749-6.222,75.867-31.267,104.58C330.319,434.604,294.102,451.072,256,451.072  z"/>
<g>
	<path style="fill:#C0C0C0;" d="M369.143,173.726l26.304-5.057l-11.894-61.867l-84.936,16.328l25.599,186.738   c2.702,19.712-3.249,39.617-16.328,54.611s-31.992,23.594-51.889,23.594c-0.112,0-0.222-0.008-0.333-0.009v63.005   c0.111,0,0.222,0.004,0.333,0.004c38.102,0,74.319-16.468,99.365-45.182c25.045-28.713,36.442-66.831,31.267-104.58   L369.143,173.726z"/>
	<circle style="fill:#C0C0C0;" cx="256" cy="420" r="15.333"/>
</g>
<g>
	<path style="fill:#758F9B;" d="M256,404.667c-0.113,0-0.221,0.015-0.333,0.017v30.633c0.112,0.002,0.221,0.017,0.333,0.017   c8.468,0,15.333-6.865,15.333-15.333S264.468,404.667,256,404.667z"/>
	<circle style="fill:#758F9B;" cx="335.33" cy="378" r="15.333"/>
</g>
<circle style="fill:#C0C0C0;" cx="176.67" cy="378" r="15.333"/>
<circle style="fill:#758F9B;" cx="356.17" cy="304.67" r="15.333"/>
<circle style="fill:#C0C0C0;" cx="155.83" cy="304.67" r="15.333"/>
<circle style="fill:#758F9B;" cx="346.42" cy="231.33" r="15.333"/>
<circle style="fill:#C0C0C0;" cx="165.58" cy="231.33" r="15.333"/>
<g>
</g>
<g>
</g>
<g>
</g>
<g>
</g>
<g>
</g>
<g>
</g>
<g>
</g>
<g>
</g>
<g>
</g>
<g>
</g>
<g>
</g>
<g>
</g>
<g>
</g>
<g>
</g>
<g>
</g>
</svg>
