<?xml version="1.0" encoding="iso-8859-1"?>
<!-- Generator: Adobe Illustrator 19.0.0, SVG Export Plug-In . SVG Version: 6.00 Build 0)  -->
<svg xmlns="http://www.w3.org/2000/svg" xmlns:xlink="http://www.w3.org/1999/xlink" version="1.1" id="Capa_1" x="0px" y="0px" viewBox="0 0 512 512" style="enable-background:new 0 0 512 512;" xml:space="preserve">
<circle style="fill:#B9EAFF;" cx="256" cy="256" r="256"/>
<path style="fill:#35CCFF;" d="M512,256c0-1.252-0.03-2.498-0.047-3.746L380.236,120.538l-45,23.557l29.653,29.653l-8.24,28.568  L250,95.667l-25,7.667L125,111l63.166,63.166L91.48,360.094l151.582,151.582C247.348,511.889,251.661,512,256,512  C397.385,512,512,397.385,512,256z"/>
<rect x="341.09" y="130.93" style="fill:#333333;" width="33.3" height="68.13"/>
<rect x="335.24" y="120.54" style="fill:#1A1A1A;" width="45" height="23.557"/>
<polygon style="fill:#FFDC00;" points="281.972,191.667 238.972,105 129.75,105 129.75,326.333 193.083,326.333 307.75,326.333   399.75,326.333 399.75,191.667 "/>
<polygon style="fill:#FFC000;" points="281.972,191.667 238.972,105 188,105 188,326.333 193.083,326.333 307.75,326.333   399.75,326.333 399.75,191.667 "/>
<polygon style="fill:#35CCFF;" points="268.524,194.77 231.084,119.309 142.206,119.309 142.206,194.77 "/>
<polygon style="fill:#00BAFF;" points="231.084,119.309 188,119.309 188,194.77 268.524,194.77 "/>
<rect x="362.33" y="205.5" style="fill:#AE4E32;" width="37.417" height="38"/>
<g>
	<rect x="339.5" y="205.5" style="fill:#FF9451;" width="6.917" height="70.5"/>
	<rect x="329.5" y="205.5" style="fill:#FF9451;" width="6.917" height="70.5"/>
	<rect x="319.5" y="205.5" style="fill:#FF9451;" width="6.917" height="70.5"/>
</g>
<g>
	<path style="fill:#FF6838;" d="M156.667,204.083c-13.327,0-26.041,2.616-37.667,7.351v36.052   c10.78-7.199,23.731-11.403,37.667-11.403c37.509,0,67.917,30.407,67.917,67.917c0,11.573-2.902,22.464-8.006,32h34.772   c3.394-10.046,5.235-20.808,5.235-32C256.583,248.817,211.849,204.083,156.667,204.083z"/>
	<path style="fill:#FF6838;" d="M255.667,290.46v27.007c0.594-4.406,0.917-8.899,0.917-13.468   C256.583,299.407,256.267,294.889,255.667,290.46z"/>
</g>
<circle style="fill:#1A1A1A;" cx="156.67" cy="304" r="86"/>
<circle style="fill:#808080;" cx="156.67" cy="304" r="42.17"/>
<path style="fill:#AE4E32;" d="M377.474,286.635c16.779,0,31.802,7.479,41.948,19.273v-33.771  c-12.253-7.377-26.603-11.627-41.948-11.627c-44.594,0-80.797,35.841-81.424,80.286h26.125  C322.798,310.78,347.309,286.635,377.474,286.635z"/>
<circle cx="375.03" cy="336.42" r="53.58"/>
<circle style="fill:#666666;" cx="375.03" cy="336.42" r="26.667"/>
<rect x="125" y="95.67" style="fill:#FF9451;" width="125" height="15.333"/>
<rect x="188" y="95.67" style="fill:#F7674F;" width="62" height="15.333"/>
<g>
</g>
<g>
</g>
<g>
</g>
<g>
</g>
<g>
</g>
<g>
</g>
<g>
</g>
<g>
</g>
<g>
</g>
<g>
</g>
<g>
</g>
<g>
</g>
<g>
</g>
<g>
</g>
<g>
</g>
</svg>
