<?xml version="1.0" encoding="iso-8859-1"?>
<!-- Generator: Adobe Illustrator 19.0.0, SVG Export Plug-In . SVG Version: 6.00 Build 0)  -->
<svg xmlns="http://www.w3.org/2000/svg" xmlns:xlink="http://www.w3.org/1999/xlink" version="1.1" id="Capa_1" x="0px" y="0px" viewBox="0 0 512 512" style="enable-background:new 0 0 512 512;" xml:space="preserve">
<circle style="fill:#662E57;" cx="256" cy="256" r="256"/>
<path style="fill:#590F38;" d="M512,256c0-2.884-0.065-5.753-0.16-8.614L392.251,127.797l-51.162,138.266L202.824,127.797  L63,319.667l35.655,35.655l-14.296,7.011l148.625,148.625C240.568,511.635,248.241,512,256,512C397.385,512,512,397.385,512,256z"/>
<path style="fill:#F2C58B;" d="M70.167,264.722c0-65.95,40.796-157.388,91.12-157.388s91.12,87.615,91.12,157.388  c0,50.324-40.796,91.12-91.12,91.12S70.167,315.046,70.167,264.722z"/>
<path style="fill:#D1A16D;" d="M259.594,264.722c0-65.95,40.796-157.388,91.12-157.388s91.12,87.615,91.12,157.388  c0,50.324-40.796,91.12-91.12,91.12S259.594,315.046,259.594,264.722z"/>
<polygon style="fill:#E0E0E0;" points="84.359,362.333 239.308,362.333 250,273.667 73.667,273.667 "/>
<polygon style="fill:#C0C0C0;" points="273.239,362.333 428.188,362.333 438.88,273.667 262.547,273.667 "/>
<rect x="63" y="240.33" style="fill:#FFFFFF;" width="389" height="79.33"/>
<rect x="255.67" y="240.33" style="fill:#E0E0E0;" width="196.33" height="79.33"/>
<g>
</g>
<g>
</g>
<g>
</g>
<g>
</g>
<g>
</g>
<g>
</g>
<g>
</g>
<g>
</g>
<g>
</g>
<g>
</g>
<g>
</g>
<g>
</g>
<g>
</g>
<g>
</g>
<g>
</g>
</svg>
