<?xml version="1.0" encoding="UTF-8"?>
<svg width="210mm" height="297mm" inkscape:version="1.0 (4035a4fb49, 2020-05-01)" sodipodi:docname="puerta_inca2.svg" version="1.1" viewBox="0 0 210 297" xmlns="http://www.w3.org/2000/svg" xmlns:cc="http://creativecommons.org/ns#" xmlns:dc="http://purl.org/dc/elements/1.1/" xmlns:inkscape="http://www.inkscape.org/namespaces/inkscape" xmlns:rdf="http://www.w3.org/1999/02/22-rdf-syntax-ns#" xmlns:sodipodi="http://sodipodi.sourceforge.net/DTD/sodipodi-0.dtd">
 <defs>
  <marker id="DistanceX" overflow="visible" orient="auto">
   <path d="m3-3-6 6m3-8v10" stroke="#000" stroke-width=".5"/>
  </marker>
  <pattern id="Hatch" width="8" height="8" patternUnits="userSpaceOnUse">
   <g stroke="#000" stroke-width=".25">
    <path d="m8 4-4 4" linecap="square"/>
    <path d="m6 2-4 4" linecap="square"/>
    <path d="m4 0-4 4" linecap="square"/>
   </g>
  </pattern>
  <symbol id="*Model_Space"/>
  <symbol id="*Paper_Space"/>
  <symbol/>
  <marker overflow="visible" orient="auto">
   <path d="m3-3-6 6m3-8v10" stroke="#000" stroke-width=".5"/>
  </marker>
  <pattern width="8" height="8" patternUnits="userSpaceOnUse">
   <g stroke="#000" stroke-width=".25">
    <path d="m8 4-4 4" linecap="square"/>
    <path d="m6 2-4 4" linecap="square"/>
    <path d="m4 0-4 4" linecap="square"/>
   </g>
  </pattern>
  <symbol/>
  <symbol/>
  <symbol/>
 </defs>
 <sodipodi:namedview id="base" bordercolor="#666666" borderopacity="1.0" inkscape:current-layer="layer1" inkscape:cx="400" inkscape:cy="560" inkscape:document-rotation="0" inkscape:document-units="mm" inkscape:pageopacity="0.0" inkscape:pageshadow="2" inkscape:window-height="728" inkscape:window-maximized="0" inkscape:window-width="1260" inkscape:window-x="78" inkscape:window-y="0" inkscape:zoom="0.35" pagecolor="#ffffff" showgrid="false"/>
 <metadata>
  <rdf:RDF>
   <cc:Work rdf:about="">
    <dc:format>image/svg+xml</dc:format>
    <dc:type rdf:resource="http://purl.org/dc/dcmitype/StillImage"/>
    <dc:title/>
   </cc:Work>
  </rdf:RDF>
 </metadata>
 <g inkscape:groupmode="layer" inkscape:label="Capa 1">
  <g transform="matrix(.23792 0 0 .21365 11.486 51.135)" stroke-width="14.286">
   <g fill="none" stroke="#adadad" stroke-width="14.286" inkscape:label="simbolo_inca">
    <path d="m62.644-208.05-11.276 39.998-4.111 31.108 2.3492 26.999 4.1111 12.913 8.2221 5.2825 90.443 5.2825 258.06-9.5922 95.2-1.3023 147.34-6.3666 30.347 0.59468 5.3553 0.59467 7.1404-3.5681 4.7603-5.9468-1.1901-50.548-0.59504-22.598-4.7603-15.462-7.7354-6.5414-19.636-4.1628-274.53-0.96386-203.45 3.8184-102.45-5.0723-16.171-0.59858z"/>
    <path d="m52.629-82.934-4.5637 9.1218v126.95l3.0606 19.308 1.4953 3.8855 18.452 3.9884h100.81l12.482-1.4394 7.2011-5.2776 6.2409-22.07 0.49952-95.687-1.4597-30.072-2.7092-6.6186-3.9134-3.0085-69.634 0.19852-40.639-1.8051h-19.266z"/>
    <path d="m599.13-94.856-4.864 4.3749 0.4864 41.319 3.4266 72.557 2.9184 32.213 4.864 11.667 3.8912 8.2638 4.3776 0.97221 20.429 3.4027 60.313-1.4583 10.701-2.9166 2.432-4.375-0.40322-62.892-6.8096-52.986-1.4592-40.347-0.11429-10.337-2.6775-2.4847-11.092-1.9113-15.874 0.19112-43.099 1.4895-18.36 0.38226-5.3549 0.76454z"/>
    <path d="m610.74 80-4.9604 5.4532 0.49604 60.977 1.188 58.298v20.958l2.9958 14.471 6.4909 4.491 27.961 0.99801h49.431l13.481-1.996 4.4937-1.996 4.4937-3.493 1.4979-5.988-4.9294-85.381-0.78275-51.443v-5.3193l-0.93927-2.8161-2.8178-2.1903-32.874-2.5032-37.57-0.6258-20.977-2.1903z"/>
    <path d="m50.314 87.691-5.0588 3.5391-5.5647 12.64-4.5529 65.22-3.5804 59.915-1.0184 15.776 5.0921 5.089 14.258 2.0356 96.749-0.50891 27.497 0.50891 14.258-4.5801 2.546-10.687-5.0124-86.705 2.0368-29.007-1.0184-12.214-4.5829-18.32-6.6197-3.0534-79.945-3.5623-41.246 1.5267z"/>
    <path d="m37.059 254.64-5.1931 9.3419 1.5579 112.1-5.7304 40.716v14.532l1.5579 4.671 5.7124 3.633 68.548 0.519 48.295 1.038 17.137 0.51898 5.193-3.633 5.7124-5.7089 1.5579-48.267 2.1472-93.705 0.38644-26.53-0.65126-3.2544-2.605-3.5798-2.2794-0.97631-31.586-2.9289-68.503 0.6142h-30.935l-8.1408-0.32543z"/>
    <path d="m619.54 254.86-3.3895 11.009 3.3895 127.03 2.9189 17.295 4.2507 5.3102 11.158 2.6551 49.415 3.1861 33.475-1.062h8.5015l4.2507-1.5931 3.1881-4.7792 1.0627-9.0274-9.0251-89.93-2.1254-38.234-1.0627-11.683-2.1254-5.8413-4.2508-3.7172-20.722-2.6551h-70.137z"/>
    <path d="m632.15 427.12-8.6701 3.7909-0.54188 12.997 7.0272 88.948 6.3485 76.001 2.7272 11.992 3.2726 1.0902 26.181 3.2707 65.453 0.54512 7.0907-1.0902 7.6362-5.9962 0.54467-103.22-4.3635-67.049-7.0907-9.812-5.9998-3.2707-68.18-6.5414-18-1.0902z"/>
    <path d="m649.02 628.38-7.1607 3.8534-3.305 14.313 19.159 154.75 7.2852 52.496 7.9839 6.206 50.565 4.4329 42.01-1.8135 7.2313-5.5592-3.8938-85.612-6.9932-77.887-5.4623-48.577-6.1792-10.667-17.414-3.9299-58.591-1.7659z"/>
    <path d="m671.52 868.93 72.046 5.6695 23.259 5.1026 11.346 9.0712 6.8075 30.048 0.33634 113.57 8.3839 62.621-1.7131 7.9895-3.9971 5.7067-22.27 6.2775-66.238 1.712-16.559-0.5707-1.7131-2.2827-5.1392-9.7015-3.4261-133.54-7.5178-53.867 1.7187-40.651z"/>
    <path d="m38.353 447.77-13.002 5.5689-3.7148 48.264v103.95l1.659 16.384 4.3819 5.1092 32.134 0.36494 55.869-4.7442 39.802 0.72987 15.702 0.72988 5.1122-2.9195 2.191-3.6494-0.36516-88.315-1.7668-68.747-1.8438-8.1079-2.9501-0.73708-21.388-2.5798-72.646 1.1056-30.437-1.4334z"/>
    <path d="m22.349 633.93-7.7713 82.446-6.626 65.941-2.989 35.249 1.745 26.845 4.1233 9.7402 8.9963 4.1208 83.216 1.1239 54.143 1.395 15.043-4.8109 9.6275-40.892 0.9321-141.97-0.60567-27.239-9.6908-10.29-39.369-3.6318-70.507 1.1126-35.129-1.8159z"/>
    <path d="m157.42 865.38-109.23-1.8399-30.683 1.8399-10.432 8.586-2.4546 46.61-1.2993 126.59-3.3229 41.048 3.0783 16.921 4.2327 4.2302 14.622 4.6147 116.98 2.3074 7.6958-2.3074 5.0023-5.3838 5.0915-77.818 10.744-95.496 5.4402-37.282v-19.418l-4.6631-9.7089-4.6631-1.9418z"/>
    <path d="m172.92 1004.4-6.2994 41.551-5.0395 28.96v19.516l3.7796 17.628 6.2994 3.1478 115.28 5.0364 33.387-0.6295 13.229-6.2956 3.1497-8.1843 3.7796-16.368-1.8898-64.845v-6.2956l-5.6694-10.073-9.449-8.1843-119.69-0.62956-18.898 1.2591z"/>
    <path d="m348.15 1004.4-3.9054 11.709 0.65091 72.206 1.9527 18.865 16.272 8.4566 46.865 3.9031 74.853-4.5536 14.32-5.2041 6.509-14.311v-70.905l-3.9054-15.612-4.5563-3.2525-101.54-3.2526-30.592 1.9515z"/>
    <path d="m517.64 1003.7-5.714 9.3817-0.40815 64.04 2.5145 31.977 6.1222 7.7501 68.976 0.8158 69.929 4.8087 9.3873-4.4869 2.857-7.3422-2.4488-93.409-4.5464-7.084-33.468-3.6711-93.873-2.4474z"/>
   </g>
  </g>
 </g>
</svg>
