<?xml version="1.0" encoding="UTF-8"?>
<svg width="210mm" height="297mm" inkscape:version="1.0 (4035a4fb49, 2020-05-01)" sodipodi:docname="puerta_inca1.svg" version="1.1" viewBox="0 0 210 297" xmlns="http://www.w3.org/2000/svg" xmlns:cc="http://creativecommons.org/ns#" xmlns:dc="http://purl.org/dc/elements/1.1/" xmlns:inkscape="http://www.inkscape.org/namespaces/inkscape" xmlns:rdf="http://www.w3.org/1999/02/22-rdf-syntax-ns#" xmlns:sodipodi="http://sodipodi.sourceforge.net/DTD/sodipodi-0.dtd">
 <defs>
  <marker id="DistanceX" overflow="visible" orient="auto">
   <path d="m3-3-6 6m3-8v10" stroke="#000" stroke-width=".5"/>
  </marker>
  <pattern id="Hatch" width="8" height="8" patternUnits="userSpaceOnUse">
   <g stroke="#000" stroke-width=".25">
    <path d="m8 4-4 4" linecap="square"/>
    <path d="m6 2-4 4" linecap="square"/>
    <path d="m4 0-4 4" linecap="square"/>
   </g>
  </pattern>
  <symbol id="*Model_Space"/>
  <symbol id="*Paper_Space"/>
  <symbol/>
 </defs>
 <sodipodi:namedview id="base" bordercolor="#666666" borderopacity="1.0" inkscape:current-layer="layer1" inkscape:cx="400" inkscape:cy="560" inkscape:document-rotation="0" inkscape:document-units="mm" inkscape:pageopacity="0.0" inkscape:pageshadow="2" inkscape:window-height="728" inkscape:window-maximized="0" inkscape:window-width="1260" inkscape:window-x="78" inkscape:window-y="0" inkscape:zoom="0.35" pagecolor="#ffffff" showgrid="false"/>
 <metadata>
  <rdf:RDF>
   <cc:Work rdf:about="">
    <dc:format>image/svg+xml</dc:format>
    <dc:type rdf:resource="http://purl.org/dc/dcmitype/StillImage"/>
    <dc:title/>
   </cc:Work>
  </rdf:RDF>
 </metadata>
 <g inkscape:groupmode="layer" inkscape:label="Capa 1">
  <g transform="matrix(1.4211 0 0 1.4211 -419.79 -1287.3)" stroke-width="2.4777">
   <g fill="none" stroke="#adadad" stroke-width="2.4777" inkscape:label="simbolo_inca">
    <path d="m319.21 940.6-0.0705 8.2198 0.84773 2.9653 4.6625 0.42362 69.605-0.41538 19.004 0.72867 3.0419-0.80473 0.98416-0.98357-0.26841-7.1532 0.0541-5.521-1.0086-1.152-35.734-0.57601-42.583 0.21231-13.678 0.14543-3.2013 1.4542z"/>
    <path d="m336.95 958.43-1.1844 4.2013-0.43181 3.2675 0.24675 2.8359 0.43181 1.3563 0.86363 0.55485 9.4999 0.55486 27.105-1.0075 9.9995-0.13679 15.476-0.66872 3.1875 0.0625 0.56251 0.0625 0.75-0.37478 0.50001-0.62463-0.125-5.3094-0.0625-2.3736-0.50001-1.624-0.81251-0.68709-2.0625-0.43724-28.836-0.10125-21.37 0.40108-10.761-0.53278-1.6986-0.0629z"/>
    <path d="m335.9 971.57-0.47936 0.95813v13.334l0.32148 2.0281 0.15706 0.40812 1.9382 0.41893h10.589l1.311-0.15119 0.75638-0.55434 0.65553-2.3182 0.0525-10.051-0.15332-3.1587-0.28457-0.6952-0.41105-0.316-7.3141 0.0208-4.2686-0.1896h-2.0236z"/>
    <path d="m393.3 970.32-0.5109 0.45953 0.0511 4.34 0.35993 7.6212 0.30653 3.3835 0.5109 1.2254 0.40872 0.86801 0.45981 0.10212 2.1458 0.35741 6.3351-0.15317 1.124-0.30636 0.25545-0.45953-0.0424-6.606-0.71525-5.5654-0.15327-4.2379-0.012-1.0858-0.28123-0.26099-1.1651-0.20075-1.6673 0.0201-4.527 0.15645-1.9284 0.0402-0.56246 0.0803z"/>
    <path d="m394.52 988.68-0.52103 0.57279 0.0521 6.4048 0.12478 6.1234v2.2014l0.31467 1.52 0.68179 0.4717 2.9369 0.1049h5.1921l1.416-0.2097 0.47201-0.2097 0.47201-0.3669 0.15734-0.6289-0.51777-8.9682-0.0822-5.4035v-0.55872l-0.0987-0.2958-0.29597-0.23006-3.453-0.26293-3.9463-0.0657-2.2034-0.23006z"/>
    <path d="m335.65 989.49-0.53137 0.37173-0.5845 1.3276-0.47823 6.8505-0.37608 6.2933-0.10697 1.657 0.53486 0.5346 1.4976 0.2138 10.162-0.053 2.8882 0.053 1.4976-0.4811 0.26743-1.1225-0.52649-9.1073 0.21395-3.0468-0.10698-1.2829-0.48137-1.9243-0.69531-0.32072-8.3972-0.37418-4.3323 0.16036z"/>
    <path d="m334.26 1007-0.54546 0.9813 0.16364 11.775-0.60191 4.2767v1.5263l0.16364 0.4907 0.60001 0.3816 7.2001 0.054 5.0728 0.109 1.8 0.054 0.54547-0.3816 0.60001-0.5996 0.16364-5.0698 0.22553-9.8425 0.0406-2.7867-0.0684-0.3418-0.27363-0.376-0.23942-0.1026-3.3177-0.3076-7.1954 0.065h-3.2493l-0.85508-0.034z"/>
    <path d="m395.44 1007-0.35602 1.1564 0.35602 13.343 0.3066 1.8166 0.44649 0.5578 1.172 0.2788 5.1904 0.3347 3.5161-0.1115h0.89297l0.44649-0.1674 0.33486-0.502 0.11162-0.9482-0.94797-9.446-0.22324-4.0159-0.11162-1.2271-0.22324-0.6136-0.44649-0.3904-2.1766-0.2789h-7.367z"/>
    <path d="m396.77 1025.1-0.91068 0.3982-0.0569 1.3652 0.73812 9.3428 0.66683 7.983 0.28646 1.2597 0.34374 0.1145 2.75 0.3435 6.875 0.057 0.74479-0.1145 0.80208-0.6299 0.0572-10.842-0.45833-7.0426-0.74479-1.0306-0.63021-0.3435-7.1614-0.6871-1.8906-0.1145z"/>
    <path d="m398.54 1046.3-0.75213 0.4048-0.34715 1.5033 2.0124 16.254 0.76521 5.514 0.83861 0.6519 5.3112 0.4656 4.4126-0.1905 0.75956-0.5839-0.40899-8.9925-0.73455-8.181-0.57375-5.1024-0.64904-1.1204-1.8291-0.4128-6.1542-0.1854z"/>
    <path d="m400.9 1071.5 7.5675 0.5955 2.443 0.5359 1.1917 0.9528 0.71504 3.1562 0.0353 11.929 0.88062 6.5775-0.17993 0.8392-0.41985 0.5995-2.3391 0.6593-6.9574 0.1798-1.7394-0.06-0.17994-0.2398-0.5398-1.019-0.35987-14.026-0.78965-5.658 0.18053-4.2698z"/>
    <path d="m334.4 1027.3-1.3657 0.585-0.39019 5.0695v10.919l0.17425 1.7209 0.46027 0.5367 3.3752 0.038 5.8683-0.4983 4.1807 0.077 1.6493 0.077 0.53697-0.3066 0.23013-0.3833-0.0384-9.2764-0.18558-7.2209-0.19367-0.8517-0.30986-0.077-2.2466-0.271-7.6305 0.1162-3.197-0.1506z"/>
    <path d="m332.72 1046.9-0.81628 8.6599-0.69597 6.9262-0.31395 3.7024 0.18329 2.8198 0.4331 1.023 0.94494 0.4329 8.7408 0.118 5.6871 0.1466 1.5801-0.5054 1.0112-4.2952 0.0979-14.912-0.0636-2.8611-1.0179-1.0808-4.1352-0.3815-7.4059 0.1168-3.6898-0.1907z"/>
    <path d="m346.9 1071.2-11.473-0.1932-3.2228 0.1932-1.0958 0.9019-0.25782 4.8957-0.13648 13.296-0.34903 4.3115 0.32334 1.7773 0.44459 0.4444 1.5359 0.4847 12.287 0.2423 0.80835-0.2423 0.52543-0.5655 0.53479-8.1738 1.1285-10.031 0.57142-3.916v-2.0396l-0.48979-1.0198-0.48979-0.204z"/>
    <path d="m348.53 1085.8-0.66166 4.3644-0.52934 3.0418v2.05l0.397 1.8515 0.66167 0.3307 12.108 0.529 3.5068-0.066 1.3895-0.6612 0.33083-0.8597 0.397-1.7193-0.1985-6.8111v-0.6612l-0.5955-1.0581-0.9925-0.8596-12.572-0.066-1.985 0.1322z"/>
    <path d="m309.54 952.35 22.621 0.35059 0.94162 0.53775 0.60533 1.546-0.20178 8.2678 0.26231 5.136-0.20177 1.3444-0.60533 0.94106-9.6852 0.47053-11.232-0.13444-1.2106-0.20165-1.0089-1.6805-1.2217-3.8542v-9.1417l0.13452-2.5543z"/>
    <path d="m366.94 1085.8-0.41022 1.2299 0.0684 7.5843 0.20511 1.9815 1.7092 0.8883 4.9225 0.41 7.8624-0.4783 1.5041-0.5467 0.68369-1.5032v-7.4476l-0.41021-1.6399-0.47858-0.3416-10.665-0.3417-3.2133 0.205z"/>
    <path d="m384.74 1085.7-0.60018 0.9855-0.0429 6.7266 0.26412 3.3587 0.64305 0.8141 7.2451 0.086 7.3452 0.505 0.98602-0.4712 0.30009-0.7712-0.25722-9.8115-0.47754-0.744-3.5154-0.3856-9.8602-0.2571z"/>
    <path d="m319.38 971.54v12.025l-0.046 3.7006 0.53914 0.92461 11.907 0.28333 0.77963-0.2125 0.42525-8.6416 0.30057-6.8382-0.13333-0.71065-0.26665-0.26649-3.1998-0.39974-8.5977-0.0892z"/>
    <path d="m408.09 953.05-0.8788 0.80508-0.0732 3.8058 0.6591 11.857 0.73233 1.0246 5.1996 0.36595 13.994 0.0868 0.58587-0.14637 1.0985-1.171 0.65909-4.1718-0.21779-10.944-0.51263-1.6834-1.1717-0.43913-14.647 0.29276-4.1743 0.29275z"/>
    <path d="m408.24 972.72 0.79469 9.5404-0.0739 4.139 0.51769 1.4782 0.96143 0.14782 22.852 0.29565 3.4216-0.81045 0.59165-0.51738 0.22187-10.791-0.074-3.5478-0.22186-0.6652-0.73956-0.44347-4.7457-0.16025-12.572 0.36956-9.6882-0.0739-1.0354 0.36956z"/>
    <path d="m408.72 989.56 0.60537 5.6719 0.41248 8.2998 0.14235 1.9443 0.76028 0.9624 2.4673 0.6639 8.1612-0.5217 0.52194-0.047 0.2847-0.569-0.0949-5.2637 0.62399-3.0562 0.53317-4.7195-0.38084-3.5777-0.6855-0.38061-11.145-0.0541-1.4806 0.0955z"/>
    <path d="m331.23 989.4-26.51-0.86663-3.9011 0.68878-0.54374 3.4158 0.69696 6.3758v5.7447l0.54374 1.1645 20.818 0.1552 8.8553 0.1553 0.77678-0.7763 0.0558-12.244 0.24354-2.4826-0.24354-1.1683z"/>
    <path d="m313.07 1007-0.63736 0.882-0.44125 2.3519 0.24386 7.6618 0.83382 6.6315 0.39223 1.5679 0.5393 0.196 11.522 0.539 4.0906 0.1365 0.68638-0.392 1.2198-4.1525 0.1574-11.562 0.0359-2.8875-0.2961-0.7398-1.7766-0.5918-12.404 0.1392-3.4545-0.049z"/>
    <path d="m439.36 1007.1-21.752 0.085-4.4801 0.2059-2.1038-0.3586-0.58122 0.1291-0.16145 1.6135 0.73462 8.1716 0.82933 5.5532 0.58054 2.2379 0.58053 0.4144 19.075 0.2486 9.4468-0.1168 0.41602-0.8316-0.20801-8.6273 0.22239-7.1593-0.19565-1.0754-0.3913-0.3911-0.88044-0.098z"/>
    <path d="m302.26 1027.3 23.675 0.1696 3.3094 0.1696 0.67884 0.5937 0.25457 3.9858-6e-3 9.7554-0.17139 2.9118-0.85692 0.5995-14.482 1.199-10.397 0.3427-0.59985-0.8564-1.3711-1.9698-0.25708-0.5138-0.25708-10.106-0.0857-4.1108 0.0857-1.3702z"/>
    <path d="m298.67 1047.8 20.098-0.086 7.073-0.2586 2.3289 0.431 0.94881 1.0345 0.43128 6.379 3e-3 11.492-0.0968 2.7068-0.74613 0.6779-1.594 0.7796-13.587 0.2114-12.63 0.3057-1.1436-0.1758-0.96763-1.055-0.45389-9.3908-0.59768-9.7168-0.20958-2.0945 0.0349-0.5585 0.31436-0.5236z"/>
    <path d="m411.92 1025.8-0.33973 0.8488 1.1324 9.9596 0.0533 6.8735 0.67947 1.6411 10.815 0.2263 7.3103 0.7395 0.51464-0.2286 0.45745-0.5715 0.17154-9.9436-0.15173-8.6997-0.74824-0.9204h-6.5615l-12.275 0.041z"/>
    <path d="m415.23 1047.7-1.7552 0.6432-0.46806 1.3449 0.93611 4.4438 0.63645 13.015 0.69289 3.6345 0.6478 0.2942 10.895-0.2354 1.5901-0.5297 0.47113-1.0005-1.2273-13.561-0.70669-4.061-0.7067-2.8251-0.58891-1.3537-0.41224-0.2943-1.7078-0.1177-2.0612 0.059-4.5935 0.412z"/>
    <path d="m416.11 1072-1.1972 0.2992-0.41904 1.0769 0.41904 5.8032 1.9655 6.4334 0.17959 8.1963 0.65714 2.9106 1.1569 0.8672 11.569-0.1927 1.4462-2.2161 0.0106-12.656 0.94141-6.3314 0.48363-1.3896 0.0605-1.5708-0.36272-0.7855-0.36272-0.4229-0.60454-0.1208-7.7381-0.06-6.7708 0.1208z"/>
    <path d="m313.91 1071.7-0.43016 0.5527-0.1229 10.44 0.28136 12.906 0.35648 1.2718 0.31411 0.2656 4.47 0.1932 7.8816-0.3488 1.5514-0.2326 0.62057-0.4652 3e-3 -12.655 0.85468-9.8918-0.23425-1.4046-0.35136-0.6243-0.27329-0.078-4.4116-0.039-9.4033-0.041z"/>
   </g>
  </g>
 </g>
</svg>
