<?xml version="1.0" encoding="UTF-8"?>
<svg width="210mm" height="297mm" inkscape:version="1.0 (4035a4fb49, 2020-05-01)" sodipodi:docname="vasija_inca_aribalo3_svg.svg" version="1.1" viewBox="0 0 210 297" xmlns="http://www.w3.org/2000/svg" xmlns:cc="http://creativecommons.org/ns#" xmlns:dc="http://purl.org/dc/elements/1.1/" xmlns:inkscape="http://www.inkscape.org/namespaces/inkscape" xmlns:rdf="http://www.w3.org/1999/02/22-rdf-syntax-ns#" xmlns:sodipodi="http://sodipodi.sourceforge.net/DTD/sodipodi-0.dtd">
 <defs>
  <marker id="DistanceX" overflow="visible" orient="auto">
   <path d="m3-3-6 6m3-8v10" stroke="#000" stroke-width=".5"/>
  </marker>
  <pattern id="Hatch" width="8" height="8" patternUnits="userSpaceOnUse">
   <g stroke="#000" stroke-width=".25">
    <path d="m8 4-4 4" linecap="square"/>
    <path d="m6 2-4 4" linecap="square"/>
    <path d="m4 0-4 4" linecap="square"/>
   </g>
  </pattern>
  <symbol id="*Model_Space"/>
  <symbol id="*Paper_Space"/>
  <symbol/>
  <marker overflow="visible" orient="auto">
   <path d="m3-3-6 6m3-8v10" stroke="#000" stroke-width=".5"/>
  </marker>
  <pattern width="8" height="8" patternUnits="userSpaceOnUse">
   <g stroke="#000" stroke-width=".25">
    <path d="m8 4-4 4" linecap="square"/>
    <path d="m6 2-4 4" linecap="square"/>
    <path d="m4 0-4 4" linecap="square"/>
   </g>
  </pattern>
  <symbol/>
  <symbol/>
  <symbol/>
  <marker overflow="visible" orient="auto">
   <path d="m3-3-6 6m3-8v10" stroke="#000" stroke-width=".5"/>
  </marker>
  <pattern width="8" height="8" patternUnits="userSpaceOnUse">
   <g stroke="#000" stroke-width=".25">
    <path d="m8 4-4 4" linecap="square"/>
    <path d="m6 2-4 4" linecap="square"/>
    <path d="m4 0-4 4" linecap="square"/>
   </g>
  </pattern>
  <symbol/>
  <symbol/>
  <symbol/>
  <marker id="Arrow1Lstart" overflow="visible" inkscape:isstock="true" inkscape:stockid="Arrow1Lstart" orient="auto">
   <path transform="scale(.8) translate(12.5)" d="m0 0 5-5-17.5 5 17.5 5-5-5z" fill-rule="evenodd" stroke="#000" stroke-width="1pt"/>
  </marker>
  <clipPath>
   <path d="m317 0h1626v1385h-1626v-1385"/>
  </clipPath>
  <marker overflow="visible" orient="auto">
   <path d="m3-3-6 6m3-8v10" stroke="#000" stroke-width=".5"/>
  </marker>
  <pattern width="8" height="8" patternUnits="userSpaceOnUse">
   <g stroke="#000" stroke-width=".25">
    <path d="m8 4-4 4" linecap="square"/>
    <path d="m6 2-4 4" linecap="square"/>
    <path d="m4 0-4 4" linecap="square"/>
   </g>
  </pattern>
  <symbol/>
  <symbol/>
  <symbol/>
 </defs>
 <sodipodi:namedview id="base" bordercolor="#666666" borderopacity="1.0" inkscape:current-layer="layer1" inkscape:cx="400" inkscape:cy="560" inkscape:document-rotation="0" inkscape:document-units="mm" inkscape:pageopacity="0.0" inkscape:pageshadow="2" inkscape:window-height="728" inkscape:window-maximized="0" inkscape:window-width="1260" inkscape:window-x="78" inkscape:window-y="0" inkscape:zoom="0.35" pagecolor="#ffffff" showgrid="false"/>
 <metadata>
  <rdf:RDF>
   <cc:Work rdf:about="">
    <dc:format>image/svg+xml</dc:format>
    <dc:type rdf:resource="http://purl.org/dc/dcmitype/StillImage"/>
    <dc:title/>
   </cc:Work>
  </rdf:RDF>
 </metadata>
 <g inkscape:groupmode="layer" inkscape:label="Capa 1">
  <g transform="matrix(.26458 0 0 .26458 .077438 -5.7432)" stroke-width="13.474">
   <g fill="none" stroke="#333" stroke-width="13.474" inkscape:label="vasijas">
    <path d="m545.22 123.46-297.42-2.5744-10.829 3.0149-3.8133 5.1318 0.8266 7.6178 7.1275 4.4681 29.953 12.324 16.228 12.367 11.526 19.194 9.4357 24.682 8.1802 31.376 3.8679 30.088 1.0606 16.605-2.6982 28.821-8.8977 30.167-12.719 31.431-7.5486 11.045-18.333 13.196-30.467 17.239-40.714 30.921-33.321 27.24-25.968 31.126-16.555 29.557-17.226 36.044-9.5059 30.761-14.707 14.159-23.387 10.14-13.678 10.14-22.942 27.771-15.448 29.977-5.872 16.21-1.3803 19.613 1.3803 23.759 5.5289 19.749 11.058 24.863 20.189 22.929 26.069 22.561 11.128 10.837 8.344 13.06 6.3945 23.065 7.6656 40.904 10.255 28.046 12.469 20.03 34.904 25.578 56.139 30.716 73.521 34.276 63.718 28.489 37.111 17.559 16.75 2.7907 16.197-3.6264 90.193-39.335 32.464-17.36 70.409-33.763 26.904-16.183 19.176-12.958 12.968-11.833 10.434-15.212 10.535-26.842 13.553-62.726 5.5289-21.451 5.3729-7.0718 19.534-12.726 27.738-18.099 11.245-9.9017 13.116-22.516 5.7082-30.495-0.30413-23.484-7.7046-27.644-10.551-21.375-21.453-22.654-20.54-16.246-27.106-19.378-11.689-12.255-4.6165-12.4-19.971-46.169-17.398-32.773-18.622-27.859-28.237-28.215-28.245-25.08-39.934-28.501-21.188-15.99-14.832-12.321-4.827-5.3581-6.2619-10.538-9.6541-21.076-11.721-41.764-3.4468-28.721 2.0197-30.583 3.7431-26.423 11.783-32.17 6.7142-11.802 18.848-19.731 18.123-13.217 5.3027-1.786 14.247-1.4572 5.8486-1.6442 2.5578-3.1014 0.72523-8.3932-3.6495-4.5616-3.2908-1.4602z"/>
    <path d="m99.067 679.47-5.9188 48.501-0.89678 47.155 0.3977 11.715-1.505 0.11766-10.699-5.4607-8.3674-7.5484-6.0513-11.265-7.3458-18.234-2.0431-18.606 2.9789-21.212 5.6068-12.738 6.8935-8.188 8.5623-3.907 14.715-0.55814z"/>
    <path d="m711.31 686.99 5.0844 53.684 0.45229 34.973 0.18716 7.7053 4.7023-0.56417 16.93-6.764 11.845-9.2078 6.5816-12.964 2.316-20.787-3.9147-21.973-6.6284-15.35-8.2972-6.9028-11.354-6.3839-6.9871-0.94431-6.1527 0.82665-2.9555 1.418z"/>
    <path d="m552.03 141.81 0.76421 16.361-1.3257 8.0764-3.5014 6.5076-7.0105 4.0186-5.5445 2.0515-7.6032-0.36203-17.132-6.6313-7.1119-0.96241-6.0081 0.51058"/>
    <path d="m527.26 154.94-0.61605 4.9569 0.53807 3.204 1.2945 2.3653 1.7546 0.91413 2.3706 0.22929 3.8133-0.30471 1.8326-1.5266 0.30413-4.0397-0.45229-4.9599-0.53807-1.2943-1.8326-1.2219-3.283-0.76329-3.3532 0.38316-1.3023 1.068z"/>
    <path d="m237.55 138.88 3.7977 20.354 2.5188 11.645 7.8761 7.5545 7.2211 2.5071 7.3068 0.19912 14.122-3.6686 8.0633-0.92922 5.2207-0.10816"/>
    <path d="m260.29 157.42-1.622 2.492-0.24954 5.4818 2.4954 3.2402 2.8697 0.74519 1.9963-0.37411 1.8716-1.6171 1.1151-1.4964 0.37431-1.4934v-4.2358l-0.49908-1.7438-1.9885-1.7468-2.7449-0.24739-2.3706 0.24739z"/>
    <path d="m382.76 397.02-7.2601 6.043-2.0119 10.882v8.8668l1.4115 9.4702 3.4234 6.4472 6.6596 4.634 7.4628 1.6111 11.292-1.6111 10.488-5.6417 6.2541-8.0613 1.817-11.081-5.4431-16.524-5.8564-5.6417-9.6775-3.023h-9.8802l-5.8486 2.0153z"/>
    <path d="m374.95 406.01-6.8707 7.5194-3.8757 11.009-0.4211 7.2226 3.2674 6.5227 4.4917 6.7278 6.3243 3.2613 10.41 3.6716h6.1215l9.5917-2.0395 5.1-2.4468 8.0866-10.031 3.2986-7.7687"/>
    <path d="m387.93 400.94-1.7078 2.0364-1.0294 3.5992 1.0294 1.5417 1.2867 0.38617 1.4193 0.12671 1.9261-0.64261 1.2867-1.5417 0.77201-3.4695-0.51467-1.2852-2.0587-1.1555h-0.77201z"/>
    <path d="m403.32 401.41-0.96697 1.8524v1.1253l0.16376 1.6111 1.7702 2.0938 2.4174 0.24136 1.4504-1.0469 0.88899-2.2537 0.0858-1.611-0.4055-1.3697-2.5032-1.3667h-1.5284z"/>
   </g>
  </g>
 </g>
</svg>
