<?xml version="1.0" encoding="UTF-8" standalone="no"?>
<svg
   xmlns:dc="http://purl.org/dc/elements/1.1/"
   xmlns:cc="http://creativecommons.org/ns#"
   xmlns:rdf="http://www.w3.org/1999/02/22-rdf-syntax-ns#"
   xmlns:svg="http://www.w3.org/2000/svg"
   xmlns="http://www.w3.org/2000/svg"
   xmlns:sodipodi="http://sodipodi.sourceforge.net/DTD/sodipodi-0.dtd"
   xmlns:inkscape="http://www.inkscape.org/namespaces/inkscape"
   sodipodi:docname="vasija_inca_aribalo2_svg.svg"
   inkscape:version="1.0 (4035a4fb49, 2020-05-01)"
   id="svg8"
   version="1.1"
   viewBox="0 0 210 297"
   height="297mm"
   width="210mm">
  <defs
     id="defs2">
    <marker
       id="DistanceX"
       orient="auto"
       refX="0.0"
       refY="0.0"
       style="overflow:visible">
      <path
         d="M 3,-3 L -3,3 M 0,-5 L  0,5"
         style="stroke:#000000; stroke-width:0.5"
         id="path833" />
    </marker>
    <pattern
       id="Hatch"
       patternUnits="userSpaceOnUse"
       width="8"
       height="8"
       x="0"
       y="0">
      <path
         d="M8 4 l-4,4"
         stroke="#000000"
         stroke-width="0.25"
         linecap="square"
         id="path836" />
      <path
         d="M6 2 l-4,4"
         stroke="#000000"
         stroke-width="0.25"
         linecap="square"
         id="path838" />
      <path
         d="M4 0 l-4,4"
         stroke="#000000"
         stroke-width="0.25"
         linecap="square"
         id="path840" />
    </pattern>
    <symbol
       id="*Model_Space" />
    <symbol
       id="*Paper_Space" />
    <symbol
       id="*Paper_Space0" />
    <marker
       id="DistanceX-7"
       orient="auto"
       refX="0.0"
       refY="0.0"
       style="overflow:visible">
      <path
         d="M 3,-3 L -3,3 M 0,-5 L  0,5"
         style="stroke:#000000; stroke-width:0.5"
         id="path975" />
    </marker>
    <pattern
       id="Hatch-5"
       patternUnits="userSpaceOnUse"
       width="8"
       height="8"
       x="0"
       y="0">
      <path
         d="M8 4 l-4,4"
         stroke="#000000"
         stroke-width="0.25"
         linecap="square"
         id="path978" />
      <path
         d="M6 2 l-4,4"
         stroke="#000000"
         stroke-width="0.25"
         linecap="square"
         id="path980" />
      <path
         d="M4 0 l-4,4"
         stroke="#000000"
         stroke-width="0.25"
         linecap="square"
         id="path982" />
    </pattern>
    <symbol
       id="*Model_Space-9" />
    <symbol
       id="*Paper_Space-6" />
    <symbol
       id="*Paper_Space0-7" />
    <marker
       id="DistanceX-4"
       orient="auto"
       refX="0.0"
       refY="0.0"
       style="overflow:visible">
      <path
         d="M 3,-3 L -3,3 M 0,-5 L  0,5"
         style="stroke:#000000; stroke-width:0.5"
         id="path1883" />
    </marker>
    <pattern
       id="Hatch-9"
       patternUnits="userSpaceOnUse"
       width="8"
       height="8"
       x="0"
       y="0">
      <path
         d="M8 4 l-4,4"
         stroke="#000000"
         stroke-width="0.25"
         linecap="square"
         id="path1886" />
      <path
         d="M6 2 l-4,4"
         stroke="#000000"
         stroke-width="0.25"
         linecap="square"
         id="path1888" />
      <path
         d="M4 0 l-4,4"
         stroke="#000000"
         stroke-width="0.25"
         linecap="square"
         id="path1890" />
    </pattern>
    <symbol
       id="*Model_Space-2" />
    <symbol
       id="*Paper_Space-7" />
    <symbol
       id="*Paper_Space0-75" />
  </defs>
  <sodipodi:namedview
     inkscape:window-maximized="0"
     inkscape:window-y="0"
     inkscape:window-x="78"
     inkscape:window-height="728"
     inkscape:window-width="1260"
     showgrid="false"
     inkscape:document-rotation="0"
     inkscape:current-layer="layer1"
     inkscape:document-units="mm"
     inkscape:cy="560"
     inkscape:cx="400"
     inkscape:zoom="0.35"
     inkscape:pageshadow="2"
     inkscape:pageopacity="0.0"
     borderopacity="1.0"
     bordercolor="#666666"
     pagecolor="#ffffff"
     id="base" />
  <metadata
     id="metadata5">
    <rdf:RDF>
      <cc:Work
         rdf:about="">
        <dc:format>image/svg+xml</dc:format>
        <dc:type
           rdf:resource="http://purl.org/dc/dcmitype/StillImage" />
        <dc:title></dc:title>
      </cc:Work>
    </rdf:RDF>
  </metadata>
  <g
     id="layer1"
     inkscape:groupmode="layer"
     inkscape:label="Capa 1">
    <g
       style="stroke-width:13.01616669;stroke-miterlimit:4;stroke-dasharray:none"
       transform="matrix(0.25981903,0,0,0.28872335,0.07827171,-30.578614)"
       id="g2053">
      <g
         style="stroke-width:13.01616669;stroke-miterlimit:4;stroke-dasharray:none"
         inkscape:label="0"
         id="g1898" />
      <g
         style="stroke-width:13.01616669;stroke-miterlimit:4;stroke-dasharray:none"
         inkscape:label="vasijas"
         id="g1988">
        <path
           d="m 545.22139,123.45941 -279.18062,-2.41658 -18.2348,-0.15784 -10.8288,3.0149 -3.81328,5.13185 0.8266,7.61782 7.12748,4.46812 29.95259,12.32428 16.2279,12.36652 11.52563,19.1939 9.43572,24.68175 8.18023,31.37638 3.86787,30.08815 1.06055,16.60534 -2.69815,28.82102 -8.89766,30.16658 -12.71874,31.4307 -7.54858,11.04508 -18.33339,13.19619 -30.46727,17.23891 -40.714,30.92082 -33.32138,27.24013 -25.96775,31.12598 -16.55542,29.55716 -17.22605,36.04362 -9.505914,30.76092 -14.70726,14.15859 -23.386572,10.14001 -13.677908,10.14 L 22.700337,667.51083 7.252255,697.48734 1.380268,713.69747 0,733.31073 l 1.380268,23.75856 5.528869,19.74902 11.057739,24.86276 20.189341,22.9289 26.069126,22.56083 11.127922,10.83692 8.343992,13.06042 6.394461,23.06465 7.665556,40.90395 10.254536,28.04566 12.46919,20.0296 34.9044,25.5778 56.13869,30.7157 73.52071,34.2756 63.71847,28.4892 37.11126,17.5587 16.75037,2.7907 16.19671,-3.6264 90.19309,-39.3351 32.46359,-17.3596 70.40925,-33.7628 26.90353,-16.183 19.17558,-12.95783 12.96828,-11.83252 10.43389,-15.21151 10.53527,-26.84189 13.55313,-62.72562 5.52887,-21.45058 5.37291,-7.07176 19.5343,-12.72553 27.73792,-18.09875 11.2449,-9.90166 13.11644,-22.51557 5.70823,-30.49544 -0.30413,-23.48401 -7.70455,-27.64441 -10.55086,-21.37516 -21.45263,-22.65435 -20.54026,-16.24633 -27.10628,-19.37794 -11.68938,-12.25489 -4.61649,-12.3997 -19.971,-46.16854 -17.39761,-32.77324 -18.62192,-27.85861 -28.237,-28.21461 -28.24481,-25.07999 -39.93418,-28.50122 -21.1875,-15.98988 -14.83204,-12.32127 -4.82703,-5.35812 -6.2619,-10.53824 -9.65407,-21.07648 -11.72058,-41.76378 -3.44677,-28.72146 2.01971,-30.58292 3.7431,-26.42254 11.78296,-32.16984 6.71419,-11.80235 18.84806,-19.73092 18.12284,-13.2173 5.30273,-1.78604 14.24717,-1.45719 5.84859,-1.64425 2.55778,-3.10143 0.72523,-8.39319 -3.64952,-4.56164 -3.29081,-1.46021 z"
           style="fill:none;stroke:#333333;stroke-width:13.01616669;stroke-miterlimit:4;stroke-dasharray:none"
           id="path1900" />
        <path
           d="m 99.067358,679.47307 -5.918775,48.50065 -0.896784,47.15509 0.397704,11.71485 -1.505038,0.11766 -10.699025,-5.46069 -8.367386,-7.54844 -6.051344,-11.26533 -7.345832,-18.2345 -2.043108,-18.60559 2.978883,-21.21225 5.60685,-12.7376 6.893541,-8.18803 8.56234,-3.90697 14.715058,-0.55814 z"
           style="fill:none;stroke:#333333;stroke-width:13.01616669;stroke-miterlimit:4;stroke-dasharray:none"
           id="path1902" />
        <path
           d="m 711.30582,686.98832 5.08437,53.68379 0.45229,34.9726 0.18716,7.70531 4.70227,-0.56417 16.92972,-6.76402 11.84535,-9.20776 6.58162,-12.96388 2.31604,-20.78685 -3.91466,-21.97252 -6.6284,-15.3503 -8.2972,-6.9028 -11.35407,-6.38389 -6.98712,-0.94431 -6.15272,0.82665 -2.95549,1.41797 z"
           style="fill:none;stroke:#333333;stroke-width:13.01616669;stroke-miterlimit:4;stroke-dasharray:none"
           id="path1904" />
        <path
           d="m 552.02915,141.80856 0.76421,16.36098 -1.32568,8.0764 -3.50135,6.50758 -7.01052,4.01859 -5.54446,2.05153 -7.60317,-0.36203 -17.13248,-6.63128 -7.11189,-0.96241 -6.00814,0.51058"
           style="fill:none;stroke:#333333;stroke-width:13.01616669;stroke-miterlimit:4;stroke-dasharray:none"
           id="path1906" />
        <path
           d="m 527.26231,154.93837 -0.61605,4.95687 0.53807,3.20401 1.29449,2.3653 1.75457,0.91413 2.37063,0.22929 3.81329,-0.30471 1.83255,-1.52658 0.30413,-4.03971 -0.45229,-4.95988 -0.53807,-1.29428 -1.83256,-1.22187 -3.28301,-0.76329 -3.35319,0.38316 -1.30229,1.068 z"
           style="fill:none;stroke:#333333;stroke-width:13.01616669;stroke-miterlimit:4;stroke-dasharray:none"
           id="path1908" />
        <path
           d="m 237.55423,138.88362 3.79769,20.35392 2.51879,11.64547 7.8761,7.55446 7.22107,2.5071 7.30684,0.19912 14.1224,-3.66863 8.06326,-0.92922 5.22074,-0.10816"
           style="fill:none;stroke:#333333;stroke-width:13.01616669;stroke-miterlimit:4;stroke-dasharray:none"
           id="path1910" />
        <path
           d="m 260.29356,157.4153 -1.62201,2.49201 -0.24954,5.48181 2.4954,3.24022 2.86971,0.74519 1.99632,-0.37411 1.87155,-1.61709 1.11513,-1.49641 0.37431,-1.49339 v -2.24462 -1.9912 l -0.49908,-1.7438 -1.98852,-1.74682 -2.74494,-0.24739 -2.37063,0.24739 z"
           style="fill:none;stroke:#333333;stroke-width:13.01616669;stroke-miterlimit:4;stroke-dasharray:none"
           id="path1912" />
        <path
           d="m 382.75529,397.01623 -7.26006,6.04297 -2.01191,10.88217 v 8.86685 l 1.41146,9.47024 3.42337,6.44724 6.6596,4.63405 7.46281,1.61106 11.29168,-1.61106 10.48847,-5.64172 6.2541,-8.06131 1.81696,-11.0813 -5.44309,-16.52389 -5.85639,-5.64171 -9.67747,-3.023 h -9.88022 l -5.8486,2.01533 z"
           style="fill:none;stroke:#333333;stroke-width:13.01616669;stroke-miterlimit:4;stroke-dasharray:none"
           id="path1914" />
        <path
           d="m 374.94993,406.00869 -6.87071,7.51936 -3.87567,11.00889 -0.4211,7.2226 3.26742,6.52267 4.49171,6.72782 6.32428,3.26133 10.4105,3.67164 h 6.12152 l 9.5917,-2.03946 5.09997,-2.44676 8.08665,-10.03139 3.29861,-7.76867"
           style="fill:none;stroke:#333333;stroke-width:13.01616669;stroke-miterlimit:4;stroke-dasharray:none"
           id="path1916" />
        <path
           d="m 387.92544,400.94129 -1.70779,2.03645 -1.02935,3.59923 1.02935,1.54167 1.28669,0.38617 1.41926,0.12671 1.92614,-0.64261 1.28669,-1.54167 0.77201,-3.4695 -0.51467,-1.28522 -2.05871,-1.1555 h -0.77201 z"
           style="fill:none;stroke:#333333;stroke-width:13.01616669;stroke-miterlimit:4;stroke-dasharray:none"
           id="path1918" />
        <path
           d="m 403.31894,401.4059 -0.96697,1.85242 v 1.12532 l 0.16376,1.61106 1.77017,2.09377 2.41742,0.24136 1.45045,-1.04689 0.88899,-2.25367 0.0858,-1.61105 -0.4055,-1.3697 -2.5032,-1.36669 h -1.52843 z"
           style="fill:none;stroke:#333333;stroke-width:13.01616669;stroke-miterlimit:4;stroke-dasharray:none"
           id="path1920" />
        <path
           d="m 528.96459,410.07813 -22.71822,8.07794 -19.45632,5.64473 -18.62192,2.30194 -21.35126,1.25204 -18.41137,-0.20817 -7.47848,-0.24787"
           style="fill:none;stroke:#333333;stroke-width:13.01616669;stroke-miterlimit:4;stroke-dasharray:none"
           id="path1922" />
        <path
           d="m 271.17194,402.41357 34.74064,10.27878 22.09208,4.18151 23.23061,3.2372 14.06546,1.30931"
           style="fill:none;stroke:#333333;stroke-width:13.01616669;stroke-miterlimit:4;stroke-dasharray:none"
           id="path1924" />
        <path
           d="m 660.73685,996.76738 -48.21766,21.30212 -53.84604,18.7293 -43.56812,11.5459 -40.57363,7.7174 -70.05834,5.5391 -61.80793,0.6668 -52.82448,-8.2906 -65.37947,-14.7107 -20.02846,-3.7412"
           style="fill:none;stroke:#333333;stroke-width:13.01616669;stroke-miterlimit:4;stroke-dasharray:none"
           id="path1926" />
        <path
           d="m 340.22238,484.23368 31.08733,83.93608"
           style="fill:none;stroke:#333333;stroke-width:13.01616669;stroke-miterlimit:4;stroke-dasharray:none"
           id="path1928" />
        <path
           d="m 378.56867,490.37847 -53.17248,84.77567"
           style="fill:none;stroke:#333333;stroke-width:13.01616669;stroke-miterlimit:4;stroke-dasharray:none"
           id="path1930" />
        <path
           d="m 306.55818,797.89512 49.68788,105.05116"
           style="fill:none;stroke:#333333;stroke-width:13.01616669;stroke-miterlimit:4;stroke-dasharray:none"
           id="path1932" />
        <path
           d="M 357.24691,801.94161 304.5869,909.09993"
           style="fill:none;stroke:#333333;stroke-width:13.01616669;stroke-miterlimit:4;stroke-dasharray:none"
           id="path1934" />
        <path
           d="m 452.57761,427.01697 21.4781,201.90392 5.54447,120.27111 1.6766,146.95009 -5.61465,127.31571 -1.13073,32.6043"
           style="fill:none;stroke:#333333;stroke-width:13.01616669;stroke-miterlimit:4;stroke-dasharray:none"
           id="path1936" />
        <path
           d="m 351.23527,420.11106 -20.04897,116.73523 -11.58022,76.6157 -12.10268,131.11105 -2.9165,164.52689 0.77201,106.20307 1.81869,41.3953"
           style="fill:none;stroke:#333333;stroke-width:13.01616669;stroke-miterlimit:4;stroke-dasharray:none"
           id="path1938" />
        <path
           d="M 439.50223,1058.8317 439.98571,891.03438 443.76,737.8422 443.88477,536.59286 442.04902,427.30087"
           style="fill:none;stroke:#333333;stroke-width:13.01616669;stroke-miterlimit:4;stroke-dasharray:none"
           id="path1940" />
        <path
           d="m 354.66863,1062.1385 3.49917,-353.13241 21.95172,-235.24745 2.95159,-23.65146"
           style="fill:none;stroke:#333333;stroke-width:13.01616669;stroke-miterlimit:4;stroke-dasharray:none"
           id="path1942" />
        <path
           d="m 417.1762,437.42539 -8.39858,163.77869 -11.83112,230.71587 -4.45925,229.81055"
           style="fill:none;stroke:#333333;stroke-width:13.01616669;stroke-miterlimit:4;stroke-dasharray:none"
           id="path1944" />
        <path
           d="m 371.30971,568.16976 -54.65956,77.31448"
           style="fill:none;stroke:#333333;stroke-width:13.01616669;stroke-miterlimit:4;stroke-dasharray:none"
           id="path1946" />
        <path
           d="m 325.39619,575.15414 38.52303,72.21636"
           style="fill:none;stroke:#333333;stroke-width:13.01616669;stroke-miterlimit:4;stroke-dasharray:none"
           id="path1948" />
        <path
           d="m 316.65015,645.48424 41.40076,75.31857"
           style="fill:none;stroke:#333333;stroke-width:13.01616669;stroke-miterlimit:4;stroke-dasharray:none"
           id="path1950" />
        <path
           d="M 363.91922,647.3705 309.8931,718.68488"
           style="fill:none;stroke:#333333;stroke-width:13.01616669;stroke-miterlimit:4;stroke-dasharray:none"
           id="path1952" />
        <path
           d="m 309.8931,718.68488 47.35381,83.25673"
           style="fill:none;stroke:#333333;stroke-width:13.01616669;stroke-miterlimit:4;stroke-dasharray:none"
           id="path1954" />
        <path
           d="m 358.05091,720.80281 -51.49273,77.09231"
           style="fill:none;stroke:#333333;stroke-width:13.01616669;stroke-miterlimit:4;stroke-dasharray:none"
           id="path1956" />
        <path
           d="m 414.89443,481.92161 28.97546,78.68019"
           style="fill:none;stroke:#333333;stroke-width:13.01616669;stroke-miterlimit:4;stroke-dasharray:none"
           id="path1958" />
        <path
           d="m 443.0835,488.88893 -31.98139,66.9859"
           style="fill:none;stroke:#333333;stroke-width:13.01616669;stroke-miterlimit:4;stroke-dasharray:none"
           id="path1960" />
        <path
           d="m 411.10211,555.87483 32.71553,88.99704"
           style="fill:none;stroke:#333333;stroke-width:13.01616669;stroke-miterlimit:4;stroke-dasharray:none"
           id="path1962" />
        <path
           d="m 443.86989,560.6018 -37.3022,83.69769"
           style="fill:none;stroke:#333333;stroke-width:13.01616669;stroke-miterlimit:4;stroke-dasharray:none"
           id="path1964" />
        <path
           d="m 406.56769,644.29949 37.19848,83.59342"
           style="fill:none;stroke:#333333;stroke-width:13.01616669;stroke-miterlimit:4;stroke-dasharray:none"
           id="path1966" />
        <path
           d="m 443.81764,644.87187 -40.95558,71.69014"
           style="fill:none;stroke:#333333;stroke-width:13.01616669;stroke-miterlimit:4;stroke-dasharray:none"
           id="path1968" />
        <path
           d="m 402.86206,716.56201 39.25563,87.93894"
           style="fill:none;stroke:#333333;stroke-width:13.01616669;stroke-miterlimit:4;stroke-dasharray:none"
           id="path1970" />
        <path
           d="m 443.76617,727.89291 -45.26195,73.65045"
           style="fill:none;stroke:#333333;stroke-width:13.01616669;stroke-miterlimit:4;stroke-dasharray:none"
           id="path1972" />
        <path
           d="m 398.50422,801.54336 41.45948,97.13028"
           style="fill:none;stroke:#333333;stroke-width:13.01616669;stroke-miterlimit:4;stroke-dasharray:none"
           id="path1974" />
        <path
           d="m 442.11769,804.50095 -46.52257,97.06334"
           style="fill:none;stroke:#333333;stroke-width:13.01616669;stroke-miterlimit:4;stroke-dasharray:none"
           id="path1976" />
        <path
           d="m 304.5869,909.09993 50.48492,112.34967"
           style="fill:none;stroke:#333333;stroke-width:13.01616669;stroke-miterlimit:4;stroke-dasharray:none"
           id="path1978" />
        <path
           d="M 356.24606,902.94628 305.70424,1023.163"
           style="fill:none;stroke:#333333;stroke-width:13.01616669;stroke-miterlimit:4;stroke-dasharray:none"
           id="path1980" />
        <path
           d="m 395.59512,901.56429 44.02677,115.73611"
           style="fill:none;stroke:#333333;stroke-width:13.01616669;stroke-miterlimit:4;stroke-dasharray:none"
           id="path1982" />
        <path
           d="M 439.9637,898.67364 393.31482,1019.0811"
           style="fill:none;stroke:#333333;stroke-width:13.01616669;stroke-miterlimit:4;stroke-dasharray:none"
           id="path1984" />
        <path
           d="m 345.22013,419.27284 -57.83589,230.78186 -13.7247,134.02844 16.18111,269.89426"
           style="fill:none;stroke:#333333;stroke-width:13.01616669;stroke-miterlimit:4;stroke-dasharray:none"
           id="path1986" />
      </g>
    </g>
  </g>
</svg>
