<?xml version="1.0" encoding="UTF-8"?>
<svg width="210mm" height="297mm" inkscape:version="1.0 (4035a4fb49, 2020-05-01)" sodipodi:docname="vasija_asaestribo_svg.svg" version="1.1" viewBox="0 0 210 297" xmlns="http://www.w3.org/2000/svg" xmlns:cc="http://creativecommons.org/ns#" xmlns:dc="http://purl.org/dc/elements/1.1/" xmlns:inkscape="http://www.inkscape.org/namespaces/inkscape" xmlns:rdf="http://www.w3.org/1999/02/22-rdf-syntax-ns#" xmlns:sodipodi="http://sodipodi.sourceforge.net/DTD/sodipodi-0.dtd">
 <defs>
  <marker id="DistanceX" overflow="visible" orient="auto">
   <path d="m3-3-6 6m3-8v10" stroke="#000" stroke-width=".5"/>
  </marker>
  <pattern id="Hatch" width="8" height="8" patternUnits="userSpaceOnUse">
   <g stroke="#000" stroke-width=".25">
    <path d="m8 4-4 4" linecap="square"/>
    <path d="m6 2-4 4" linecap="square"/>
    <path d="m4 0-4 4" linecap="square"/>
   </g>
  </pattern>
  <symbol id="*Model_Space"/>
  <symbol id="*Paper_Space"/>
  <symbol/>
  <marker overflow="visible" orient="auto">
   <path d="m3-3-6 6m3-8v10" stroke="#000" stroke-width=".5"/>
  </marker>
  <pattern width="8" height="8" patternUnits="userSpaceOnUse">
   <g stroke="#000" stroke-width=".25">
    <path d="m8 4-4 4" linecap="square"/>
    <path d="m6 2-4 4" linecap="square"/>
    <path d="m4 0-4 4" linecap="square"/>
   </g>
  </pattern>
  <symbol/>
  <symbol/>
  <symbol/>
  <marker overflow="visible" orient="auto">
   <path d="m3-3-6 6m3-8v10" stroke="#000" stroke-width=".5"/>
  </marker>
  <pattern width="8" height="8" patternUnits="userSpaceOnUse">
   <g stroke="#000" stroke-width=".25">
    <path d="m8 4-4 4" linecap="square"/>
    <path d="m6 2-4 4" linecap="square"/>
    <path d="m4 0-4 4" linecap="square"/>
   </g>
  </pattern>
  <symbol/>
  <symbol/>
  <symbol/>
  <marker id="Arrow1Lstart" overflow="visible" inkscape:isstock="true" inkscape:stockid="Arrow1Lstart" orient="auto">
   <path transform="scale(.8) translate(12.5)" d="m0 0 5-5-17.5 5 17.5 5-5-5z" fill-rule="evenodd" stroke="#000" stroke-width="1pt"/>
  </marker>
  <clipPath>
   <path d="m317 0h1626v1385h-1626v-1385"/>
  </clipPath>
  <marker overflow="visible" orient="auto">
   <path d="m3-3-6 6m3-8v10" stroke="#000" stroke-width=".5"/>
  </marker>
  <pattern width="8" height="8" patternUnits="userSpaceOnUse">
   <g stroke="#000" stroke-width=".25">
    <path d="m8 4-4 4" linecap="square"/>
    <path d="m6 2-4 4" linecap="square"/>
    <path d="m4 0-4 4" linecap="square"/>
   </g>
  </pattern>
  <symbol/>
  <symbol/>
  <symbol/>
  <marker overflow="visible" orient="auto">
   <path d="m3-3-6 6m3-8v10" stroke="#000" stroke-width=".5"/>
  </marker>
  <pattern width="8" height="8" patternUnits="userSpaceOnUse">
   <g stroke="#000" stroke-width=".25">
    <path d="m8 4-4 4" linecap="square"/>
    <path d="m6 2-4 4" linecap="square"/>
    <path d="m4 0-4 4" linecap="square"/>
   </g>
  </pattern>
  <symbol/>
  <symbol/>
  <symbol/>
  <marker overflow="visible" orient="auto">
   <path d="m3-3-6 6m3-8v10" stroke="#000" stroke-width=".5"/>
  </marker>
  <pattern width="8" height="8" patternUnits="userSpaceOnUse">
   <g stroke="#000" stroke-width=".25">
    <path d="m8 4-4 4" linecap="square"/>
    <path d="m6 2-4 4" linecap="square"/>
    <path d="m4 0-4 4" linecap="square"/>
   </g>
  </pattern>
  <symbol/>
  <symbol/>
  <symbol/>
 </defs>
 <sodipodi:namedview id="base" bordercolor="#666666" borderopacity="1.0" inkscape:current-layer="layer1" inkscape:cx="400" inkscape:cy="560" inkscape:document-rotation="0" inkscape:document-units="mm" inkscape:pageopacity="0.0" inkscape:pageshadow="2" inkscape:window-height="728" inkscape:window-maximized="0" inkscape:window-width="1260" inkscape:window-x="78" inkscape:window-y="0" inkscape:zoom="0.35" pagecolor="#ffffff" showgrid="false"/>
 <metadata>
  <rdf:RDF>
   <cc:Work rdf:about="">
    <dc:format>image/svg+xml</dc:format>
    <dc:type rdf:resource="http://purl.org/dc/dcmitype/StillImage"/>
    <dc:title/>
   </cc:Work>
  </rdf:RDF>
 </metadata>
 <g inkscape:groupmode="layer" inkscape:label="Capa 1">
  <g transform="matrix(.26057 0 0 .23069 -.59832 66.92)" stroke-width="14.133">
   <g fill="none" stroke="#000" stroke-width="14.133" inkscape:label="vasija">
    <path d="m409.9-275.17 48.347-0.1632 6.52 0.89462 1.6382 1.9068-2.9272 260.21 1.393 3.3819 2.7942 2.7092 2.8261 2.1974 9.7343 4.3948 21.353 6.9061 44.172 13.519 38.545 20.518 51.059 34.029 27.605 39.29 17.52 36.531 7.0082 40.535-3.5665 45.865-12.768 47.068-16.758 39.091-43.985 72.751-13.428 29.217 0.7899 8.6862 4.7394 6.3172 43.444 45.01 30.016 51.327 14.194 65.104-2.3697 68.7-7.899 55.276-16.296 58.447-36.873 90.978-26.204 50.118-26.493 31.938-17.922 7.0107-52.986 8.5686-93.224-0.0236-93.224 0.0236-52.986-8.5686-17.922-7.0107-26.493-31.938-26.204-50.118-36.873-90.978-16.296-58.447-7.899-55.276-2.3697-68.7 14.194-65.104 30.016-51.327 43.444-45.01 4.7394-6.3172 0.7899-8.6862-13.428-29.217-43.985-72.751-16.758-39.091-12.768-47.068-3.5665-45.865 7.0082-40.535 17.52-36.531 27.605-39.29 51.059-34.029 38.545-20.518 44.172-13.519 21.353-6.9061 9.7343-4.3948 2.8261-2.1974 2.7942-2.7092 1.393-3.3819-2.9272-260.21 1.6382-1.9068 6.52-0.89462z"/>
    <path d="m409.9 94.563 19.138 1.6918 52.34 8.3164 43.328 17.326 26.79 17.827 16.638 22.177 5.8926 21.137 0.42477 32.505-5.5257 23.201-23.761 42.535-29.766 48.388-35.804 39.923-7.9182 1.7208h-4.4755l-14.804-1.7208-17.213-2.065-25.284-0.60924-25.284 0.60924-17.213 2.065-14.804 1.7208h-4.4755l-7.9182-1.7208-35.804-39.923-29.766-48.388-23.761-42.535-5.5257-23.201 0.42477-32.505 5.8926-21.137 16.638-22.177 26.79-17.827 43.328-17.326 52.34-8.3164z"/>
   </g>
  </g>
 </g>
</svg>
