<?xml version="1.0" encoding="UTF-8" standalone="no"?>
<svg
   xmlns:dc="http://purl.org/dc/elements/1.1/"
   xmlns:cc="http://creativecommons.org/ns#"
   xmlns:rdf="http://www.w3.org/1999/02/22-rdf-syntax-ns#"
   xmlns:svg="http://www.w3.org/2000/svg"
   xmlns="http://www.w3.org/2000/svg"
   xmlns:sodipodi="http://sodipodi.sourceforge.net/DTD/sodipodi-0.dtd"
   xmlns:inkscape="http://www.inkscape.org/namespaces/inkscape"
   sodipodi:docname="vasija_inca_aribalo1_svg.svg"
   inkscape:version="1.0 (4035a4fb49, 2020-05-01)"
   id="svg8"
   version="1.1"
   viewBox="0 0 210 297"
   height="297mm"
   width="210mm">
  <defs
     id="defs2">
    <marker
       id="DistanceX"
       orient="auto"
       refX="0.0"
       refY="0.0"
       style="overflow:visible">
      <path
         d="M 3,-3 L -3,3 M 0,-5 L  0,5"
         style="stroke:#000000; stroke-width:0.5"
         id="path833" />
    </marker>
    <pattern
       id="Hatch"
       patternUnits="userSpaceOnUse"
       width="8"
       height="8"
       x="0"
       y="0">
      <path
         d="M8 4 l-4,4"
         stroke="#000000"
         stroke-width="0.25"
         linecap="square"
         id="path836" />
      <path
         d="M6 2 l-4,4"
         stroke="#000000"
         stroke-width="0.25"
         linecap="square"
         id="path838" />
      <path
         d="M4 0 l-4,4"
         stroke="#000000"
         stroke-width="0.25"
         linecap="square"
         id="path840" />
    </pattern>
    <symbol
       id="*Model_Space" />
    <symbol
       id="*Paper_Space" />
    <symbol
       id="*Paper_Space0" />
    <marker
       id="DistanceX-7"
       orient="auto"
       refX="0.0"
       refY="0.0"
       style="overflow:visible">
      <path
         d="M 3,-3 L -3,3 M 0,-5 L  0,5"
         style="stroke:#000000; stroke-width:0.5"
         id="path975" />
    </marker>
    <pattern
       id="Hatch-5"
       patternUnits="userSpaceOnUse"
       width="8"
       height="8"
       x="0"
       y="0">
      <path
         d="M8 4 l-4,4"
         stroke="#000000"
         stroke-width="0.25"
         linecap="square"
         id="path978" />
      <path
         d="M6 2 l-4,4"
         stroke="#000000"
         stroke-width="0.25"
         linecap="square"
         id="path980" />
      <path
         d="M4 0 l-4,4"
         stroke="#000000"
         stroke-width="0.25"
         linecap="square"
         id="path982" />
    </pattern>
    <symbol
       id="*Model_Space-9" />
    <symbol
       id="*Paper_Space-6" />
    <symbol
       id="*Paper_Space0-7" />
    <marker
       id="DistanceX-4"
       orient="auto"
       refX="0.0"
       refY="0.0"
       style="overflow:visible">
      <path
         d="M 3,-3 L -3,3 M 0,-5 L  0,5"
         style="stroke:#000000; stroke-width:0.5"
         id="path1883" />
    </marker>
    <pattern
       id="Hatch-9"
       patternUnits="userSpaceOnUse"
       width="8"
       height="8"
       x="0"
       y="0">
      <path
         d="M8 4 l-4,4"
         stroke="#000000"
         stroke-width="0.25"
         linecap="square"
         id="path1886" />
      <path
         d="M6 2 l-4,4"
         stroke="#000000"
         stroke-width="0.25"
         linecap="square"
         id="path1888" />
      <path
         d="M4 0 l-4,4"
         stroke="#000000"
         stroke-width="0.25"
         linecap="square"
         id="path1890" />
    </pattern>
    <symbol
       id="*Model_Space-2" />
    <symbol
       id="*Paper_Space-7" />
    <symbol
       id="*Paper_Space0-75" />
    <marker
       inkscape:stockid="Arrow1Lstart"
       orient="auto"
       refY="0.0"
       refX="0.0"
       id="Arrow1Lstart"
       style="overflow:visible"
       inkscape:isstock="true">
      <path
         id="path1313"
         d="M 0.0,0.0 L 5.0,-5.0 L -12.5,0.0 L 5.0,5.0 L 0.0,0.0 z "
         style="fill-rule:evenodd;stroke:#000000;stroke-width:1.0pt"
         transform="scale(0.8) translate(12.5,0)" />
    </marker>
    <clipPath
       clipPathUnits="userSpaceOnUse"
       id="clipPath107">
      <path
         d="M 317,0 H 1943 V 1385 H 317 V 0"
         id="path105" />
    </clipPath>
  </defs>
  <sodipodi:namedview
     inkscape:window-maximized="0"
     inkscape:window-y="0"
     inkscape:window-x="78"
     inkscape:window-height="728"
     inkscape:window-width="1260"
     showgrid="false"
     inkscape:document-rotation="0"
     inkscape:current-layer="layer1"
     inkscape:document-units="mm"
     inkscape:cy="560"
     inkscape:cx="400"
     inkscape:zoom="0.35"
     inkscape:pageshadow="2"
     inkscape:pageopacity="0.0"
     borderopacity="1.0"
     bordercolor="#666666"
     pagecolor="#ffffff"
     id="base" />
  <metadata
     id="metadata5">
    <rdf:RDF>
      <cc:Work
         rdf:about="">
        <dc:format>image/svg+xml</dc:format>
        <dc:type
           rdf:resource="http://purl.org/dc/dcmitype/StillImage" />
        <dc:title></dc:title>
      </cc:Work>
    </rdf:RDF>
  </metadata>
  <g
     id="layer1"
     inkscape:groupmode="layer"
     inkscape:label="Capa 1">
    <g
       id="g103"
       clip-path="url(#clipPath107)"
       style="stroke-width:19.91983894;stroke-miterlimit:4;stroke-dasharray:none"
       transform="matrix(0,-0.18992815,-0.16788301,0,223.77019,356.8977)">
      <path
         d="m 1859,485 4,426 v 28 l -4,16 -8,6 -12,-1 -7,-11 -18,-46 -19,-24 -29,-18 -38,-14 -48,-13 -46,-6 -25,-1 -44,4 -46,13 -48,20 -17,11 -20,28 -26,47 -48,62 -41,51 -48,39 -45,25 -55,27 -47,14 -21,23 -16,35 -15,21 -43,35 -45,24 -25,9 -30,2 -36,-2 -30,-9 -38,-17 -35,-30 -35,-40 -16,-17 -20,-13 -35,-10 -63,-11 -43,-16 -30,-19 -39,-53 -47,-86 -52,-112 -44,-97 -27,-57 -4,-25 6,-25 60,-138 26,-49 52,-107 24,-41 20,-30 18,-19 23,-16 41,-16 96,-21 33,-9 11,-8 19,-30 28,-42 15,-17 34,-20 47,-9 35,1 43,12 32,16 35,32 25,32 29,41 19,18 19,7 70,30 50,27 43,28 43,43 38,43 44,61 24,33 19,22 8,8 16,9 32,15 64,18 44,5 46,-3 41,-6 49,-18 18,-10 30,-29 20,-27 3,-8 2,-22 2,-9 5,-4 13,-1 7,5 2,5 1,5"
         style="fill:none;stroke:#000000;stroke-width:19.91983894;stroke-linecap:round;stroke-linejoin:round;stroke-miterlimit:4;stroke-dasharray:none;stroke-opacity:1"
         id="path109" />
      <path
         d="m 1021,1195 -74,9 -72,1 h -18 v 2 l 8,16 12,13 17,9 28,12 28,3 32,-5 20,-8 12,-11 6,-13 1,-22 v -6"
         style="fill:none;stroke:#000000;stroke-width:19.91983894;stroke-linecap:round;stroke-linejoin:round;stroke-miterlimit:4;stroke-dasharray:none;stroke-opacity:1"
         id="path111" />
      <path
         d="m 1000,232 -82,-8 h -54 l -11,-1 v -7 l 11,-26 14,-18 20,-10 31,-3 34,6 23,10 11,12 10,18 1,10 -1,10 -2,4 -5,3"
         style="fill:none;stroke:#000000;stroke-width:19.91983894;stroke-linecap:round;stroke-linejoin:round;stroke-miterlimit:4;stroke-dasharray:none;stroke-opacity:1"
         id="path113" />
      <path
         d="m 1831,475 -25,-1 -12,2 -10,5 -6,11 -3,8 1,12 10,26 1,11 -1,9"
         style="fill:none;stroke:#000000;stroke-width:19.91983894;stroke-linecap:round;stroke-linejoin:round;stroke-miterlimit:4;stroke-dasharray:none;stroke-opacity:1"
         id="path115" />
      <path
         d="m 1811,513 -7,1 c 0,0 -3.3923,-0.44839 -5,-1 -1.41,-0.48379 -4,-2 -4,-2 l -1,-3 v -4 -5 l 2,-3 7,-1 7,1 2,1 2,3 1,5 v 5 l -2,2 -2,1"
         style="fill:none;stroke:#000000;stroke-width:19.91983894;stroke-linecap:round;stroke-linejoin:round;stroke-miterlimit:4;stroke-dasharray:none;stroke-opacity:1"
         id="path117"
         sodipodi:nodetypes="ccsccccccccccccc" />
      <path
         d="m 1836,954 -31,-5 -18,-4 -11,-12 -4,-11 -1,-11 6,-22 1,-12 1,-8"
         style="fill:none;stroke:#000000;stroke-width:19.91983894;stroke-linecap:round;stroke-linejoin:round;stroke-miterlimit:4;stroke-dasharray:none;stroke-opacity:1"
         id="path119" />
      <path
         d="m 1808,920 -4,2 -9,1 c 0,0 -2.962,-2.42581 -4,-4 -0.9882,-1.49859 -2,-5 -2,-5 l 1,-3 2,-2 3,-2 2,-1 h 3 3 l 3,1 3,3 v 4 4 l -1,2"
         style="fill:none;stroke:#000000;stroke-width:19.91983894;stroke-linecap:round;stroke-linejoin:round;stroke-miterlimit:4;stroke-dasharray:none;stroke-opacity:1"
         id="path121"
         sodipodi:nodetypes="cccscccccccccccc" />
      <path
         d="m 1442,733 -9,11 -17,3 h -13 l -15,-2 -10,-5 c 0,0 -5.4608,-6.2335 -7,-10 -1.534,-3.75384 -2,-12 -2,-12 l 2,-17 9,-16 12,-9 17,-3 25,8 9,9 5,15 v 15 l -3,9 -3,4"
         style="fill:none;stroke:#000000;stroke-width:19.91983894;stroke-linecap:round;stroke-linejoin:round;stroke-miterlimit:4;stroke-dasharray:none;stroke-opacity:1"
         id="path123"
         sodipodi:nodetypes="ccccccsccccccccccc" />
      <path
         d="m 1428,745 -11,10 -17,6 -11,1 -10,-5 -10,-7 -5,-10 -6,-15 v -10 l 3,-14 4,-8 15,-12 12,-5"
         style="fill:none;stroke:#000000;stroke-width:19.91983894;stroke-linecap:round;stroke-linejoin:round;stroke-miterlimit:4;stroke-dasharray:none;stroke-opacity:1"
         id="path125" />
      <path
         d="m 1436,725 -3,3 -6,1 -2,-1 v -2 l -1,-2 1,-3 3,-2 5,-1 h 2 l 2,3 v 2 l -1,2"
         style="fill:none;stroke:#000000;stroke-width:19.91983894;stroke-linecap:round;stroke-linejoin:round;stroke-miterlimit:4;stroke-dasharray:none;stroke-opacity:1"
         id="path127" />
      <path
         d="m 1435,702 -2,1 h -2 -3 l -3,-3 v -3 l 1,-3 4,-1 h 2 2 l 2,4 v 3 l -1,2"
         style="fill:none;stroke:#000000;stroke-width:19.91983894;stroke-linecap:round;stroke-linejoin:round;stroke-miterlimit:4;stroke-dasharray:none;stroke-opacity:1"
         id="path129" />
      <path
         d="m 1422,510 -12,35 -9,29 -3,29 -2,32 v 28 12"
         style="fill:none;stroke:#000000;stroke-width:19.91983894;stroke-linecap:round;stroke-linejoin:round;stroke-miterlimit:4;stroke-dasharray:none;stroke-opacity:1"
         id="path131" />
      <path
         d="m 1434,903 -16,-53 -6,-33 -5,-36 -2,-21"
         style="fill:none;stroke:#000000;stroke-width:19.91983894;stroke-linecap:round;stroke-linejoin:round;stroke-miterlimit:4;stroke-dasharray:none;stroke-opacity:1"
         id="path133" />
      <path
         d="m 1396,627 -308,-33 -183,-9 -224,-2 -195,8 -49,2"
         style="fill:none;stroke:#000000;stroke-width:19.91983894;stroke-linecap:round;stroke-linejoin:round;stroke-miterlimit:4;stroke-dasharray:none;stroke-opacity:1"
         id="path135" />
      <path
         d="m 527,309 -32,74 -29,82 -18,66 -11,62 -9,107 -1,94 13,81 22,99 6,31"
         style="fill:none;stroke:#000000;stroke-width:19.91983894;stroke-linecap:round;stroke-linejoin:round;stroke-miterlimit:4;stroke-dasharray:none;stroke-opacity:1"
         id="path137" />
      <path
         d="m 1407,781 -178,31 -117,17 -200,19 -251,4 -162,-1 -63,-3"
         style="fill:none;stroke:#000000;stroke-width:19.91983894;stroke-linecap:round;stroke-linejoin:round;stroke-miterlimit:4;stroke-dasharray:none;stroke-opacity:1"
         id="path139" />
      <path
         d="m 1339,793 -65,-78 h -3 l -42,42 -59,64"
         style="fill:none;stroke:#000000;stroke-width:19.91983894;stroke-linecap:round;stroke-linejoin:round;stroke-miterlimit:4;stroke-dasharray:none;stroke-opacity:1"
         id="path141" />
      <path
         d="m 1326,619 -50,61 -2,1 -64,-74"
         style="fill:none;stroke:#000000;stroke-width:19.91983894;stroke-linecap:round;stroke-linejoin:round;stroke-miterlimit:4;stroke-dasharray:none;stroke-opacity:1"
         id="path143" />
      <path
         d="m 1129,827 -65,-73 -24,-24 h -3 l -29,26 -101,92"
         style="fill:none;stroke:#000000;stroke-width:19.91983894;stroke-linecap:round;stroke-linejoin:round;stroke-miterlimit:4;stroke-dasharray:none;stroke-opacity:1"
         id="path145" />
      <path
         d="m 1135,599 -91,91 -2,1 -84,-103"
         style="fill:none;stroke:#000000;stroke-width:19.91983894;stroke-linecap:round;stroke-linejoin:round;stroke-miterlimit:4;stroke-dasharray:none;stroke-opacity:1"
         id="path147" />
      <path
         d="M 926,586 787,695 784,696 675,583"
         style="fill:none;stroke:#000000;stroke-width:19.91983894;stroke-linecap:round;stroke-linejoin:round;stroke-miterlimit:4;stroke-dasharray:none;stroke-opacity:1"
         id="path149" />
      <path
         d="m 878,848 -83,-108 -4,-1 -87,112"
         style="fill:none;stroke:#000000;stroke-width:19.91983894;stroke-linecap:round;stroke-linejoin:round;stroke-miterlimit:4;stroke-dasharray:none;stroke-opacity:1"
         id="path151" />
      <path
         d="m 649,584 -108,104 -6,2 -74,-98"
         style="fill:none;stroke:#000000;stroke-width:19.91983894;stroke-linecap:round;stroke-linejoin:round;stroke-miterlimit:4;stroke-dasharray:none;stroke-opacity:1"
         id="path153" />
      <path
         d="m 431,819 95,-92 5,1 93,124"
         style="fill:none;stroke:#000000;stroke-width:19.91983894;stroke-linecap:round;stroke-linejoin:round;stroke-miterlimit:4;stroke-dasharray:none;stroke-opacity:1"
         id="path155" />
      <path
         d="m 1195,700 -36,39 -40,-37 38,-37 38,35"
         style="fill:none;stroke:#000000;stroke-width:19.91983894;stroke-linecap:round;stroke-linejoin:round;stroke-miterlimit:4;stroke-dasharray:none;stroke-opacity:1"
         id="path157" />
      <path
         d="m 950,716 -33,31 -32,-34 31,-28 34,31"
         style="fill:none;stroke:#000000;stroke-width:19.91983894;stroke-linecap:round;stroke-linejoin:round;stroke-miterlimit:4;stroke-dasharray:none;stroke-opacity:1"
         id="path159" />
      <path
         d="m 706,721 -41,46 -38,-51 38,-39 41,44"
         style="fill:none;stroke:#000000;stroke-width:19.91983894;stroke-linecap:round;stroke-linejoin:round;stroke-miterlimit:4;stroke-dasharray:none;stroke-opacity:1"
         id="path161" />
    </g>
  </g>
</svg>
